{"glyphs":{"0":{"ha":838,"x_min":86,"x_max":750,"o":"m 86 400 q 178 696 86 588 q 419 804 269 804 q 660 699 569 804 q 750 401 750 594 q 657 97 750 213 q 419 -18 564 -18 q 179 94 272 -18 q 86 400 86 207 m 176 404 q 244 149 176 242 q 419 57 313 57 q 591 149 522 57 q 660 397 660 242 q 593 644 660 558 q 419 731 526 731 q 245 644 314 731 q 176 404 176 558 z "},"1":{"ha":528,"x_min":86,"x_max":454,"o":"m 454 0 l 99 0 l 86 69 l 235 69 l 235 679 l 131 608 l 90 668 l 264 786 l 322 786 l 322 69 l 444 69 l 454 0 z "},"2":{"ha":679,"x_min":43,"x_max":606,"o":"m 313 804 q 522 727 461 804 q 582 572 582 650 q 528 427 582 494 q 375 272 475 360 l 147 69 l 594 69 l 606 0 l 43 0 l 43 69 l 328 331 q 454 463 418 413 q 490 572 490 514 q 446 688 490 642 q 310 733 401 733 q 185 701 240 733 q 128 668 129 669 l 89 732 q 154 768 90 732 q 313 804 218 804 z "},"3":{"ha":708,"x_min":43,"x_max":621,"o":"m 328 804 q 535 735 467 804 q 604 579 604 667 q 558 449 604 504 q 446 372 511 393 q 572 293 524 354 q 621 147 621 232 q 536 -33 621 40 q 307 -106 451 -106 q 160 -83 229 -106 q 43 -33 90 -60 l 89 28 q 186 -18 138 -1 q 311 -35 235 -35 q 463 13 394 -35 q 531 144 531 60 q 466 286 531 233 q 257 339 401 339 l 232 339 l 218 401 l 265 401 q 448 450 382 401 q 514 578 514 499 q 463 686 514 639 q 324 733 411 733 q 192 710 249 733 q 101 665 135 688 l 58 722 q 178 781 113 757 q 328 804 244 804 z "},"4":{"ha":756,"x_min":43,"x_max":713,"o":"m 701 103 l 568 103 l 568 -96 l 482 -96 l 482 103 l 56 103 l 43 174 l 511 793 l 568 793 l 568 174 l 713 174 l 701 103 m 136 174 l 482 174 l 482 633 l 136 174 z "},"5":{"ha":743,"x_min":72,"x_max":656,"o":"m 118 319 l 139 786 l 601 786 l 590 714 l 222 714 l 208 407 q 286 444 244 431 q 367 458 328 458 q 587 376 519 458 q 656 181 654 293 q 574 -20 656 65 q 335 -106 492 -106 q 190 -83 258 -106 q 72 -33 121 -60 l 118 28 q 216 -18 167 -1 q 340 -35 265 -35 q 503 23 442 -35 q 564 181 564 81 q 510 334 564 281 q 372 388 457 388 q 272 363 317 388 q 206 319 228 338 l 118 319 z "},"6":{"ha":750,"x_min":86,"x_max":676,"o":"m 486 881 l 521 829 q 299 688 392 799 q 183 446 207 576 q 279 510 222 482 q 400 538 336 538 q 603 453 529 538 q 676 264 676 369 q 600 69 676 156 q 401 -18 524 -18 q 173 80 260 -18 q 86 363 86 178 q 197 681 86 515 q 486 881 308 846 m 592 257 q 540 404 592 340 q 400 468 489 468 q 265 431 324 468 q 176 344 207 393 q 233 135 178 214 q 399 56 288 56 q 539 117 486 56 q 592 257 592 178 z "},"7":{"ha":669,"x_min":72,"x_max":626,"o":"m 85 -68 l 522 714 l 83 714 l 72 786 l 596 786 l 626 746 l 168 -96 l 85 -68 z "},"8":{"ha":767,"x_min":72,"x_max":693,"o":"m 383 893 q 586 824 518 893 q 654 668 654 756 q 607 547 654 597 q 504 471 560 496 q 635 388 578 453 q 693 235 693 322 q 614 58 693 135 q 383 -18 535 -18 q 151 56 231 -18 q 72 235 72 131 q 128 381 72 310 q 263 471 183 453 q 155 547 199 496 q 111 668 111 599 q 181 824 111 756 q 383 893 250 893 m 379 824 q 242 775 286 824 q 199 665 199 726 q 247 560 199 607 q 383 500 294 513 q 519 561 471 513 q 568 665 568 610 q 522 776 568 729 q 379 824 476 824 m 383 439 q 217 368 272 425 q 161 232 161 311 q 225 103 161 153 q 383 53 289 53 q 539 102 474 53 q 604 232 604 151 q 549 368 604 311 q 383 439 493 425 z "},"9":{"ha":750,"x_min":72,"x_max":663,"o":"m 565 342 q 469 278 526 307 q 350 249 411 249 q 147 332 221 249 q 72 521 72 415 q 149 717 72 631 q 349 804 225 804 q 576 707 490 804 q 663 422 663 610 q 551 105 663 269 q 264 -96 440 -60 l 228 -42 q 450 99 358 -14 q 565 342 542 211 m 574 442 q 516 651 569 571 q 351 732 463 732 q 211 670 263 732 q 160 529 160 608 q 210 383 160 447 q 350 318 261 318 q 484 356 425 318 q 574 442 543 394 z "},"\u0000":{"ha":0,"x_min":0,"x_max":0,"o":""},"\r":{"ha":0,"x_min":0,"x_max":0,"o":""}," ":{"ha":328,"x_min":0,"x_max":0,"o":""}," ":{"ha":328,"x_min":0,"x_max":0,"o":""},"‌":{"ha":0,"x_min":-42,"x_max":42,"o":"m -42 1718 l 42 1718 l 42 -94 l -42 -94 l -42 1718 z "},"‍":{"ha":0,"x_min":-157,"x_max":158,"o":"m 103 1833 l 158 1778 l 56 1675 l 158 1572 l 104 1518 l 42 1579 l 42 -94 l -42 -94 l -42 1578 l -103 1518 l -157 1572 l -54 1675 l -157 1778 l -101 1833 l 0 1731 l 103 1833 z "},"◌":{"ha":933,"x_min":69,"x_max":864,"o":"m 465 708 q 433 721 446 708 q 421 753 421 733 q 433 785 421 772 q 465 799 446 799 q 498 785 485 799 q 511 753 511 772 q 498 721 511 733 q 465 708 485 708 m 604 685 q 572 697 585 685 q 560 729 560 710 q 572 762 560 749 q 604 775 585 775 q 637 762 624 775 q 650 729 650 749 q 637 697 650 710 q 604 685 624 685 m 329 775 q 361 762 349 775 q 374 729 374 749 q 361 697 374 710 q 329 685 349 685 q 297 697 310 685 q 283 729 283 710 q 297 762 283 749 q 329 775 310 775 m 722 607 q 690 619 703 607 q 678 651 678 632 q 690 684 678 671 q 722 697 703 697 q 755 684 742 697 q 768 651 768 671 q 755 619 768 632 q 722 607 742 607 m 211 697 q 243 684 231 697 q 256 651 256 671 q 243 619 256 632 q 211 607 231 607 q 178 619 192 607 q 165 651 165 632 q 178 684 165 671 q 211 697 192 697 m 796 485 q 764 497 776 485 q 751 529 751 510 q 764 562 751 549 q 796 575 776 575 q 828 562 815 575 q 842 529 842 549 q 828 497 842 510 q 796 485 815 485 m 138 575 q 169 562 157 575 q 182 529 182 549 q 169 497 182 510 q 138 485 157 485 q 105 497 118 485 q 92 529 92 510 q 105 562 92 549 q 138 575 118 575 m 818 353 q 786 365 799 353 q 774 397 774 378 q 786 430 774 417 q 818 443 799 443 q 851 430 838 443 q 864 397 864 417 q 851 365 864 378 q 818 353 838 353 m 115 443 q 147 430 135 443 q 160 397 160 417 q 147 365 160 378 q 115 353 135 353 q 83 365 96 353 q 69 397 69 378 q 83 430 69 417 q 115 443 96 443 m 796 224 q 764 236 776 224 q 751 268 751 249 q 764 301 751 288 q 796 314 776 314 q 828 301 815 314 q 842 268 842 288 q 828 236 842 249 q 796 224 815 224 m 138 314 q 169 301 157 314 q 182 268 182 288 q 169 236 182 249 q 138 224 157 224 q 105 236 118 224 q 92 268 92 249 q 105 301 92 288 q 138 314 118 314 m 724 100 q 692 113 704 100 q 679 144 679 125 q 692 177 679 164 q 724 190 704 190 q 756 177 743 190 q 769 144 769 164 q 756 113 769 125 q 724 100 743 100 m 210 190 q 242 177 229 190 q 254 144 254 164 q 242 113 254 125 q 210 100 229 100 q 177 113 190 100 q 164 144 164 125 q 177 177 164 164 q 210 190 190 190 m 329 114 q 361 101 349 114 q 374 68 374 88 q 361 36 374 49 q 329 24 349 24 q 297 36 310 24 q 283 68 283 49 q 297 101 283 88 q 329 114 310 114 m 604 24 q 572 36 585 24 q 560 68 560 49 q 572 101 560 88 q 604 114 585 114 q 637 101 624 114 q 650 68 650 88 q 637 36 650 49 q 604 24 624 24 m 465 0 q 433 13 446 0 q 421 44 421 25 q 433 77 421 64 q 465 90 446 90 q 498 77 485 90 q 511 44 511 64 q 498 13 511 25 q 465 0 485 0 z "},"A":{"ha":811,"x_min":8,"x_max":803,"o":"m 397 833 l 218 353 l 582 353 l 397 833 m 442 944 l 803 14 l 718 0 l 607 283 l 194 283 l 90 0 l 8 0 l 351 944 l 442 944 z "},"B":{"ha":839,"x_min":146,"x_max":767,"o":"m 146 0 l 146 944 l 360 944 q 604 892 508 944 q 700 699 700 840 q 665 579 700 628 q 574 503 631 531 q 713 418 660 476 q 767 261 767 360 q 662 56 767 113 q 411 0 557 0 l 146 0 m 363 871 l 232 871 l 232 525 l 358 525 q 540 562 467 526 q 614 697 614 597 q 545 838 614 806 q 363 871 476 871 m 429 454 l 232 454 l 232 72 l 414 72 q 603 110 525 72 q 681 258 681 149 q 612 409 681 364 q 429 454 543 454 z "},"C":{"ha":833,"x_min":101,"x_max":746,"o":"m 718 849 q 633 878 675 867 q 517 889 592 889 q 281 769 368 888 q 193 468 193 650 q 268 178 193 299 q 504 57 343 57 q 627 69 579 57 q 713 99 675 82 l 746 32 q 637 -4 707 11 q 507 -19 567 -19 q 196 127 290 -19 q 101 467 101 274 q 206 819 101 674 q 515 964 311 964 q 633 951 558 964 q 746 913 707 939 l 718 849 z "},"D":{"ha":963,"x_min":146,"x_max":860,"o":"m 146 0 l 146 944 l 454 944 q 766 808 672 944 q 860 478 860 671 q 754 140 860 281 q 442 0 649 0 l 146 0 m 458 871 l 232 871 l 232 72 l 444 72 q 685 183 593 72 q 776 476 776 294 q 698 758 776 644 q 458 871 619 871 z "},"E":{"ha":728,"x_min":146,"x_max":685,"o":"m 146 0 l 146 944 l 646 944 l 653 882 l 232 882 l 232 515 l 510 515 l 517 453 l 232 453 l 232 69 l 676 69 l 685 0 l 146 0 z "},"F":{"ha":669,"x_min":146,"x_max":640,"o":"m 503 447 l 232 447 l 232 0 l 146 0 l 146 944 l 631 944 l 640 882 l 232 882 l 232 510 l 494 510 l 503 447 z "},"G":{"ha":913,"x_min":101,"x_max":804,"o":"m 514 475 l 804 475 l 804 44 l 803 44 l 804 43 q 688 -1 765 17 q 550 -19 610 -19 q 218 120 335 -19 q 101 467 101 260 q 228 827 101 690 q 558 964 356 964 q 676 951 601 964 q 789 913 750 939 l 763 849 q 677 878 719 867 q 561 889 635 889 q 303 778 413 888 q 193 468 193 669 q 290 167 193 278 q 549 57 388 57 q 641 67 599 57 q 718 89 683 76 l 718 413 l 506 413 l 514 475 z "},"H":{"ha":932,"x_min":146,"x_max":786,"o":"m 700 0 l 700 443 l 232 443 l 232 0 l 146 0 l 146 944 l 232 951 l 232 513 l 700 513 l 700 944 l 786 944 l 786 0 l 700 0 z "},"I":{"ha":378,"x_min":146,"x_max":232,"o":"m 146 0 l 146 944 l 232 944 l 232 0 l 146 0 z "},"J":{"ha":379,"x_min":29,"x_max":233,"o":"m 147 193 l 147 944 l 233 944 l 233 169 q 198 43 233 86 q 63 -31 163 0 l 29 28 q 124 82 99 54 q 147 193 149 110 z "},"K":{"ha":838,"x_min":146,"x_max":824,"o":"m 721 0 l 339 481 l 232 357 l 232 0 l 146 0 l 146 944 l 232 944 l 232 465 l 657 965 l 713 913 l 393 543 l 824 0 l 721 0 z "},"L":{"ha":704,"x_min":146,"x_max":675,"o":"m 675 0 l 146 0 l 146 944 l 232 944 l 232 69 l 668 69 l 675 0 z "},"M":{"ha":1083,"x_min":146,"x_max":938,"o":"m 529 319 l 232 760 l 232 0 l 146 0 l 146 944 l 194 944 l 540 447 l 881 944 l 938 944 l 938 0 l 850 0 l 850 767 l 557 325 l 529 319 z "},"N":{"ha":976,"x_min":146,"x_max":833,"o":"m 146 0 l 146 944 l 203 944 l 699 261 l 746 179 l 746 944 l 833 944 l 833 0 l 776 0 l 251 738 l 232 778 l 232 0 l 146 0 z "},"O":{"ha":1022,"x_min":101,"x_max":922,"o":"m 515 967 q 827 819 732 967 q 922 479 922 672 q 817 133 922 283 q 507 -19 711 -17 q 196 128 290 -19 q 101 468 101 276 q 206 819 101 675 q 515 967 311 963 m 193 469 q 268 178 193 300 q 504 57 343 57 q 740 176 653 57 q 828 478 828 294 q 753 768 828 647 q 517 889 679 889 q 281 770 368 889 q 193 469 193 651 z "},"P":{"ha":801,"x_min":146,"x_max":731,"o":"m 146 0 l 146 944 l 390 944 q 634 879 538 944 q 731 660 731 814 q 626 437 729 507 q 375 367 522 367 l 232 367 l 232 0 l 146 0 m 393 871 l 232 871 l 232 440 l 378 440 q 565 490 489 440 q 643 658 642 540 q 575 826 643 781 q 393 871 507 871 z "},"Q":{"ha":1022,"x_min":101,"x_max":922,"o":"m 844 -19 l 753 67 q 643 4 706 26 q 507 -19 581 -18 q 196 128 290 -19 q 101 468 101 276 q 206 819 101 675 q 515 967 311 963 q 827 819 732 967 q 922 479 922 672 q 892 280 922 375 q 801 115 861 185 l 896 25 l 844 -19 m 193 469 q 268 178 193 300 q 504 57 343 57 q 607 74 560 57 q 692 122 654 90 l 549 258 l 610 304 l 740 176 q 805 309 782 232 q 828 478 828 386 q 753 768 828 647 q 517 889 679 889 q 281 770 368 889 q 193 469 193 651 z "},"R":{"ha":879,"x_min":146,"x_max":806,"o":"m 393 871 l 232 871 l 232 468 l 378 468 q 563 511 483 468 q 643 672 642 554 q 572 832 643 793 q 393 871 501 871 m 708 0 l 485 404 q 431 399 458 401 q 375 397 403 397 l 232 397 l 232 0 l 146 0 l 146 944 l 390 944 q 634 884 538 944 q 731 675 731 824 q 682 517 729 576 q 561 428 635 457 l 806 0 l 708 0 z "},"S":{"ha":740,"x_min":72,"x_max":674,"o":"m 110 107 q 208 71 146 89 q 340 53 271 53 q 523 101 460 53 q 586 222 586 150 q 329 453 586 385 q 74 736 72 522 q 155 900 75 833 q 368 967 235 967 q 499 950 438 967 q 601 913 560 933 l 571 847 q 489 879 535 864 q 371 894 443 894 q 213 851 271 894 q 154 736 154 808 q 414 500 154 571 q 668 222 674 429 q 581 50 667 118 q 342 -18 496 -18 q 197 1 282 -18 q 89 40 113 19 l 110 107 z "},"T":{"ha":714,"x_min":14,"x_max":699,"o":"m 699 876 l 400 876 l 400 0 l 313 0 l 313 876 l 14 876 l 14 944 l 692 944 l 699 876 z "},"U":{"ha":951,"x_min":131,"x_max":821,"o":"m 217 344 q 286 140 217 224 q 475 57 356 57 q 666 140 599 57 q 733 344 733 224 l 733 944 l 821 944 l 821 332 q 728 82 821 181 q 475 -17 636 -17 q 223 83 315 -15 q 131 332 131 181 l 131 944 l 217 944 l 217 344 z "},"V":{"ha":811,"x_min":8,"x_max":803,"o":"m 368 0 l 8 929 l 92 944 l 413 110 l 721 944 l 803 944 l 460 0 l 368 0 z "},"W":{"ha":1317,"x_min":8,"x_max":1311,"o":"m 928 0 l 657 806 l 403 0 l 310 0 l 8 929 l 92 944 l 354 118 l 619 944 l 701 944 l 972 118 l 1228 944 l 1311 944 l 1019 0 l 928 0 z "},"X":{"ha":881,"x_min":29,"x_max":853,"o":"m 29 0 l 383 478 l 50 929 l 140 944 l 449 524 l 758 944 l 853 944 l 494 460 l 833 0 l 738 0 l 431 413 l 115 -14 l 29 0 z "},"Y":{"ha":760,"x_min":8,"x_max":753,"o":"m 333 0 l 335 383 l 8 929 l 99 944 l 378 467 l 660 944 l 753 944 l 422 393 l 421 0 l 333 0 z "},"Z":{"ha":786,"x_min":35,"x_max":742,"o":"m 721 0 l 43 0 l 35 69 l 649 876 l 86 876 l 72 944 l 735 944 l 742 876 l 131 69 l 714 69 l 721 0 z "},"a":{"ha":694,"x_min":72,"x_max":586,"o":"m 157 189 q 189 97 157 142 q 296 53 221 53 q 413 86 361 53 q 500 163 465 119 l 500 333 l 310 333 q 196 290 235 333 q 157 189 157 247 m 119 633 q 226 676 158 660 q 335 692 293 692 q 518 631 450 692 q 586 472 586 571 l 586 0 l 529 0 l 504 72 q 415 10 472 39 q 299 -18 358 -18 q 128 42 185 -18 q 72 189 72 101 q 140 338 72 285 q 313 390 207 392 l 500 390 l 500 458 q 460 574 500 528 q 339 619 421 619 q 224 604 265 619 q 146 572 182 589 l 119 633 z "},"b":{"ha":753,"x_min":117,"x_max":679,"o":"m 117 0 l 117 967 l 203 981 l 203 617 q 294 670 244 649 q 390 692 343 692 q 609 591 539 692 q 679 336 679 490 q 609 82 679 182 q 390 -18 539 -18 q 290 3 342 -18 q 194 60 238 25 l 174 0 l 117 0 m 203 136 q 294 76 246 96 q 383 56 342 56 q 546 134 497 56 q 594 335 594 213 q 546 538 594 458 q 383 618 497 618 q 294 597 342 618 q 203 536 246 576 l 203 136 z "},"c":{"ha":643,"x_min":72,"x_max":579,"o":"m 572 39 q 471 -3 531 13 q 368 -18 411 -18 q 146 83 219 -18 q 72 340 72 183 q 151 592 74 492 q 378 692 229 692 q 478 676 418 692 q 579 633 539 660 l 551 572 q 481 604 517 589 q 374 619 446 619 q 212 540 263 619 q 160 342 161 460 q 206 136 160 218 q 367 54 253 54 q 474 69 440 54 q 544 101 508 83 l 572 39 z "},"d":{"ha":753,"x_min":72,"x_max":636,"o":"m 549 536 q 458 597 506 576 q 369 618 411 618 q 208 538 256 618 q 160 336 160 458 q 208 135 160 214 q 369 56 256 56 q 458 76 411 56 q 549 136 506 96 l 549 536 m 636 979 l 636 0 l 579 0 l 557 60 q 462 3 514 25 q 361 -18 410 -18 q 143 81 214 -18 q 72 335 72 181 q 143 591 72 490 q 361 692 214 692 q 458 670 407 692 q 549 617 508 649 l 549 967 l 636 979 z "},"e":{"ha":725,"x_min":72,"x_max":660,"o":"m 660 332 l 160 332 q 216 131 161 211 q 396 51 271 51 q 515 66 469 51 q 594 99 560 81 l 624 35 q 511 -5 582 8 q 400 -18 440 -18 q 153 83 235 -18 q 72 340 72 183 q 151 592 74 492 q 378 692 229 692 q 593 589 526 692 q 660 332 660 486 m 572 392 q 518 555 563 490 q 374 619 474 619 q 223 555 274 619 q 163 392 172 490 l 572 392 z "},"f":{"ha":400,"x_min":29,"x_max":386,"o":"m 29 660 l 131 660 l 131 782 q 175 922 131 869 q 294 975 219 975 q 347 969 322 975 q 386 957 372 963 l 369 883 q 344 892 361 888 q 313 896 326 896 q 238 864 260 896 q 217 782 217 832 l 217 660 l 339 660 l 368 594 l 217 594 l 217 0 l 131 0 l 131 594 l 31 594 l 29 660 z "},"g":{"ha":753,"x_min":72,"x_max":636,"o":"m 549 536 q 458 597 506 576 q 369 618 411 618 q 208 538 256 618 q 160 336 160 458 q 208 135 160 214 q 369 56 256 56 q 458 76 411 56 q 549 136 506 96 l 549 536 m 636 -74 q 566 -240 636 -174 q 364 -307 496 -307 q 256 -292 324 -307 q 149 -250 188 -276 l 175 -186 q 250 -218 210 -203 q 361 -235 290 -233 q 497 -195 446 -235 q 549 -72 549 -156 l 549 56 q 458 2 508 22 q 361 -18 407 -18 q 143 81 214 -18 q 72 335 72 181 q 143 591 72 490 q 361 692 214 692 q 462 669 410 692 q 556 611 514 646 l 579 674 l 636 674 l 636 -74 z "},"h":{"ha":767,"x_min":117,"x_max":658,"o":"m 117 0 l 117 967 l 203 981 l 203 571 q 312 656 246 619 q 440 692 378 692 q 603 628 549 692 q 658 468 658 565 l 658 1 l 572 1 l 572 451 q 538 569 572 521 q 431 618 504 617 q 318 586 386 618 q 203 494 250 554 l 203 0 l 117 0 z "},"i":{"ha":322,"x_min":96,"x_max":228,"o":"m 161 821 q 114 840 132 821 q 96 886 96 858 q 114 933 96 914 q 161 951 132 951 q 208 933 188 951 q 228 886 228 914 q 208 840 228 858 q 161 821 188 821 m 118 0 l 118 674 l 206 674 l 206 0 l 118 0 z "},"j":{"ha":322,"x_min":-14,"x_max":228,"o":"m 161 821 q 114 840 132 821 q 96 886 96 858 q 114 933 96 914 q 161 951 132 951 q 208 933 188 951 q 228 886 228 914 q 208 840 228 858 q 161 821 188 821 m 118 -65 l 118 674 l 206 674 l 206 -86 q 163 -223 206 -174 q 19 -304 119 -272 l -14 -244 q 88 -183 56 -218 q 118 -65 119 -149 z "},"k":{"ha":669,"x_min":117,"x_max":647,"o":"m 117 0 l 117 967 l 203 981 l 203 369 l 515 692 l 569 640 l 358 424 l 647 0 l 543 0 l 303 367 l 203 264 l 203 0 l 117 0 z "},"l":{"ha":319,"x_min":117,"x_max":203,"o":"m 117 0 l 117 967 l 203 981 l 203 0 l 117 0 z "},"m":{"ha":1171,"x_min":117,"x_max":1064,"o":"m 117 0 l 117 674 l 174 674 l 201 592 q 303 663 244 633 q 418 692 363 692 q 542 661 492 692 q 614 579 592 631 q 721 658 657 625 q 844 692 785 692 q 1009 628 954 692 q 1064 468 1064 565 l 1064 1 l 976 1 l 976 451 q 942 569 976 521 q 835 618 907 617 q 734 592 788 618 q 633 514 681 565 q 635 490 635 501 q 636 468 636 479 l 636 1 l 549 1 l 549 451 q 515 569 549 521 q 410 618 482 617 q 306 591 361 618 q 203 508 250 564 l 203 0 l 117 0 z "},"n":{"ha":767,"x_min":117,"x_max":658,"o":"m 117 0 l 117 674 l 174 674 l 201 568 q 311 655 244 618 q 440 692 378 692 q 603 628 549 692 q 658 468 658 565 l 658 1 l 572 1 l 572 451 q 538 569 572 521 q 431 618 504 617 q 318 586 386 618 q 203 494 250 554 l 203 0 l 117 0 z "},"o":{"ha":733,"x_min":72,"x_max":660,"o":"m 357 -18 q 142 85 211 -17 q 72 340 72 188 q 150 590 74 489 q 371 692 226 690 q 590 590 519 692 q 660 332 660 488 q 581 81 658 179 q 357 -18 503 -18 m 575 332 q 531 535 575 453 q 374 618 488 618 q 212 539 263 618 q 160 342 161 460 q 203 137 160 218 q 358 56 246 56 q 522 133 471 56 q 575 332 574 211 z "},"p":{"ha":753,"x_min":117,"x_max":679,"o":"m 203 136 q 294 76 246 96 q 383 56 342 56 q 546 134 497 56 q 594 335 594 213 q 546 538 594 458 q 383 618 497 618 q 294 597 342 618 q 203 536 246 576 l 203 136 m 117 -304 l 117 674 l 174 674 l 194 611 q 290 668 238 644 q 390 692 342 692 q 609 591 539 692 q 679 336 679 490 q 609 82 679 182 q 390 -18 539 -18 q 294 2 343 -18 q 203 56 244 22 l 203 -289 l 117 -304 z "},"q":{"ha":753,"x_min":72,"x_max":636,"o":"m 636 674 l 636 -289 l 549 -304 l 549 56 q 458 2 508 22 q 361 -18 407 -18 q 143 81 214 -18 q 72 335 72 181 q 143 591 72 490 q 361 692 214 692 q 462 668 410 692 q 557 611 514 644 l 579 674 l 636 674 m 549 536 q 458 597 506 576 q 369 618 411 618 q 208 538 256 618 q 160 336 160 458 q 208 135 160 214 q 369 56 256 56 q 458 76 411 56 q 549 136 506 96 l 549 536 z "},"r":{"ha":446,"x_min":117,"x_max":429,"o":"m 117 0 l 117 674 l 174 674 l 199 581 q 294 642 235 611 q 406 674 353 674 l 429 606 q 303 572 365 606 q 203 494 242 538 l 203 0 l 117 0 z "},"s":{"ha":626,"x_min":72,"x_max":554,"o":"m 106 101 q 190 69 142 83 q 290 54 238 54 q 421 81 374 54 q 468 165 468 108 q 415 249 468 214 q 290 310 363 285 q 142 381 211 336 q 72 506 72 426 q 139 642 72 593 q 319 692 206 692 q 425 676 363 692 q 522 636 488 661 l 494 572 q 423 603 467 586 q 317 619 379 619 q 203 590 246 619 q 160 511 160 560 q 210 434 161 464 q 329 381 258 404 q 483 302 411 351 q 554 172 554 253 q 485 33 554 83 q 288 -18 417 -18 q 181 -5 246 -18 q 78 35 117 8 l 106 101 z "},"t":{"ha":429,"x_min":29,"x_max":385,"o":"m 368 594 l 217 594 l 217 171 q 238 89 217 121 q 311 57 260 57 q 344 62 326 57 q 368 69 361 67 l 385 -1 q 347 -11 371 -4 q 293 -18 322 -18 q 174 28 219 -18 q 129 161 129 74 l 129 594 l 31 594 l 29 660 l 129 660 l 129 835 l 217 865 l 217 660 l 339 660 l 368 594 z "},"u":{"ha":738,"x_min":108,"x_max":622,"o":"m 622 674 l 622 0 l 564 0 l 538 76 q 438 10 494 38 q 328 -17 382 -17 q 163 46 217 -17 q 108 208 108 108 l 108 674 l 194 674 l 194 221 q 229 105 194 153 q 335 57 264 57 q 431 80 374 57 q 536 149 488 103 l 536 674 l 622 674 z "},"v":{"ha":651,"x_min":29,"x_max":624,"o":"m 286 0 l 29 660 l 115 674 l 332 110 l 540 674 l 624 674 l 378 0 l 286 0 z "},"w":{"ha":1046,"x_min":29,"x_max":1018,"o":"m 708 0 l 522 546 l 350 0 l 257 0 l 29 660 l 115 674 l 303 115 l 483 674 l 565 674 l 753 115 l 933 674 l 1018 674 l 801 0 l 708 0 z "},"x":{"ha":669,"x_min":24,"x_max":647,"o":"m 24 0 l 278 340 l 43 660 l 133 674 l 342 388 l 553 674 l 647 674 l 389 324 l 628 0 l 533 0 l 325 276 l 121 0 l 24 0 z "},"y":{"ha":651,"x_min":29,"x_max":624,"o":"m 251 -136 l 296 -10 l 29 660 l 111 674 l 332 115 l 540 674 l 624 674 l 438 163 l 328 -156 q 258 -251 307 -212 q 143 -304 210 -290 l 119 -249 q 202 -204 171 -225 q 251 -136 233 -183 z "},"z":{"ha":656,"x_min":58,"x_max":594,"o":"m 594 629 l 171 67 l 572 67 l 586 0 l 69 0 l 58 43 l 476 606 l 121 606 l 99 674 l 590 674 l 594 629 z "},"ﬁ":{"ha":722,"x_min":29,"x_max":628,"o":"m 29 0 m 29 660 l 131 660 l 131 782 q 175 922 131 869 q 294 975 219 975 q 347 969 322 975 q 386 957 372 963 l 369 883 q 344 892 361 888 q 313 896 326 896 q 238 864 260 896 q 217 782 217 832 l 217 660 l 339 660 l 368 594 l 217 594 l 217 0 l 131 0 l 131 594 l 31 594 l 29 660 m 561 821 q 514 840 532 821 q 496 886 496 858 q 514 933 496 914 q 561 951 532 951 q 608 933 588 951 q 628 886 628 914 q 608 840 628 858 q 561 821 588 821 m 518 0 l 518 674 l 606 674 l 606 0 l 518 0 z "},"ﬂ":{"ha":721,"x_min":29,"x_max":603,"o":"m 29 0 m 29 660 l 131 660 l 131 782 q 175 922 131 869 q 294 975 219 975 q 347 969 322 975 q 386 957 372 963 l 369 883 q 344 892 361 888 q 313 896 326 896 q 238 864 260 896 q 217 782 217 832 l 217 660 l 339 660 l 368 594 l 217 594 l 217 0 l 131 0 l 131 594 l 31 594 l 29 660 m 517 0 l 517 967 l 603 981 l 603 0 l 517 0 z "},"`":{"ha":225,"x_min":22,"x_max":206,"o":"m 22 1031 l 121 1031 l 206 818 l 140 818 l 22 1031 z "},"¨":{"ha":383,"x_min":22,"x_max":360,"o":"m 300 978 q 343 960 326 978 q 360 919 360 943 q 343 876 360 893 q 300 858 326 858 q 258 876 275 858 q 240 919 240 893 q 258 960 240 943 q 300 978 275 978 m 82 978 q 126 960 108 978 q 143 919 143 943 q 126 876 143 893 q 82 858 108 858 q 40 876 58 858 q 22 919 22 893 q 40 960 22 943 q 82 978 58 978 z "},"¯":{"ha":378,"x_min":22,"x_max":357,"o":"m 22 957 l 357 957 l 357 889 l 22 889 l 22 957 z "},"´":{"ha":225,"x_min":22,"x_max":206,"o":"m 106 1031 l 206 1031 l 86 818 l 22 818 l 106 1031 z "},"ˆ":{"ha":419,"x_min":22,"x_max":399,"o":"m 106 818 l 22 818 l 168 1031 l 251 1031 l 399 818 l 313 818 l 210 969 l 106 818 z "},"ˇ":{"ha":419,"x_min":22,"x_max":399,"o":"m 22 1031 l 106 1031 l 210 881 l 313 1031 l 399 1031 l 251 818 l 168 818 l 22 1031 z "},"˘":{"ha":404,"x_min":22,"x_max":383,"o":"m 383 1015 q 341 891 383 946 q 203 835 299 836 q 65 891 107 836 q 22 1015 22 946 l 86 1015 q 115 939 86 976 q 203 901 144 901 q 288 939 258 901 q 318 1015 318 976 l 383 1015 z "},"˙":{"ha":176,"x_min":22,"x_max":154,"o":"m 89 992 q 135 972 115 992 q 154 925 154 951 q 135 878 154 897 q 89 858 115 858 q 42 878 61 858 q 22 925 22 897 q 42 972 22 951 q 89 992 61 992 z "},"˚":{"ha":290,"x_min":22,"x_max":268,"o":"m 146 1054 q 232 1021 196 1054 q 268 938 268 988 q 232 857 268 889 q 146 825 196 825 q 59 857 96 825 q 22 938 22 889 q 59 1021 22 988 q 146 1054 96 1054 m 146 879 q 189 896 171 879 q 207 938 207 913 q 189 981 207 964 q 146 999 171 999 q 103 981 121 999 q 85 938 85 964 q 103 896 85 913 q 146 879 121 879 z "},"˜":{"ha":436,"x_min":21,"x_max":414,"o":"m 349 971 l 413 971 q 379 872 414 899 q 296 844 344 844 q 212 878 249 844 q 140 911 175 911 q 106 897 122 911 q 86 850 89 882 l 24 850 q 56 950 21 924 q 139 976 92 976 q 228 944 197 976 q 296 911 260 911 q 330 925 314 911 q 349 971 346 939 z "},"˝":{"ha":396,"x_min":22,"x_max":374,"o":"m 276 1031 l 374 1031 l 257 818 l 194 818 l 276 1031 m 106 1031 l 201 1031 l 82 818 l 22 818 l 106 1031 z "},"˛":{"ha":300,"x_min":22,"x_max":278,"o":"m 101 6 l 200 6 q 131 -67 163 -19 q 99 -149 99 -114 q 122 -206 99 -190 q 171 -222 144 -222 q 212 -215 193 -222 q 247 -193 231 -207 l 278 -246 q 231 -276 260 -264 q 167 -287 201 -287 q 63 -251 104 -287 q 22 -154 22 -214 q 44 -68 22 -112 q 101 6 65 -24 z "},"¸":{"ha":303,"x_min":22,"x_max":281,"o":"m 132 18 l 206 18 l 169 -75 q 249 -114 217 -81 q 281 -183 281 -147 q 233 -277 281 -247 q 125 -307 186 -307 q 70 -299 100 -307 q 22 -281 40 -292 l 43 -222 q 79 -235 56 -228 q 125 -242 103 -242 q 180 -227 154 -242 q 206 -186 206 -212 q 169 -137 206 -157 q 81 -112 132 -118 l 132 18 z "},"":{"ha":196,"x_min":22,"x_max":175,"o":"m 108 -29 q 156 -49 136 -29 q 175 -104 175 -69 q 138 -226 175 -167 q 47 -312 100 -286 l 22 -271 q 78 -223 56 -249 q 101 -161 100 -197 q 58 -139 75 -158 q 42 -96 42 -119 q 62 -49 42 -68 q 108 -29 82 -29 z "},"Þ":{"ha":818,"x_min":146,"x_max":731,"o":"m 146 0 l 146 944 l 232 944 l 232 786 l 390 786 q 634 722 538 786 q 731 501 731 657 q 626 278 729 349 q 375 208 522 208 l 232 208 l 232 0 l 146 0 m 393 714 l 232 714 l 232 282 l 378 282 q 565 332 489 282 q 643 500 642 382 q 575 668 643 622 q 393 714 507 714 z "},"Ð":{"ha":972,"x_min":29,"x_max":869,"o":"m 154 0 l 154 429 l 40 429 l 29 499 l 154 499 l 154 944 l 464 944 q 775 808 681 944 q 869 478 869 671 q 763 140 869 281 q 450 0 657 0 l 154 0 m 385 429 l 240 429 l 240 72 l 451 72 q 692 183 600 72 q 785 476 785 294 q 707 758 785 644 q 468 871 629 871 l 240 871 l 240 499 l 374 499 l 385 429 z "},"Æ":{"ha":1181,"x_min":8,"x_max":1136,"o":"m 597 0 l 597 283 l 263 283 l 88 0 l 8 14 l 586 944 l 1100 944 l 1108 882 l 685 882 l 685 515 l 963 515 l 971 453 l 685 453 l 685 69 l 1131 69 l 1136 0 l 597 0 m 306 353 l 597 353 l 597 826 l 306 353 z "},"Đ":{"ha":972,"x_min":29,"x_max":869,"o":"m 154 0 l 154 429 l 40 429 l 29 499 l 154 499 l 154 944 l 464 944 q 775 808 681 944 q 869 478 869 671 q 763 140 869 281 q 450 0 657 0 l 154 0 m 385 429 l 240 429 l 240 72 l 451 72 q 692 183 600 72 q 785 476 785 294 q 707 758 785 644 q 468 871 629 871 l 240 871 l 240 499 l 374 499 l 385 429 z "},"Ł":{"ha":708,"x_min":35,"x_max":679,"o":"m 679 0 l 149 0 l 149 364 l 76 300 l 35 354 l 149 451 l 149 944 l 235 944 l 235 529 l 381 656 l 422 604 l 235 440 l 235 69 l 672 69 l 679 0 z "},"Œ":{"ha":1308,"x_min":101,"x_max":1265,"o":"m 726 850 q 645 878 686 868 q 533 889 604 889 q 288 769 383 888 q 193 468 193 650 q 276 178 193 299 q 518 57 358 57 q 640 69 592 57 q 726 99 689 82 l 726 850 m 1265 0 l 726 0 l 726 17 q 626 -10 683 0 q 522 -19 569 -19 q 203 127 306 -19 q 101 467 101 274 q 214 819 101 674 q 531 964 326 964 q 624 956 565 964 q 726 931 682 947 l 726 944 l 1226 944 l 1236 882 l 813 882 l 813 515 l 1090 515 l 1099 453 l 813 453 l 813 69 l 1258 69 l 1265 0 z "},"Ø":{"ha":1022,"x_min":101,"x_max":922,"o":"m 515 967 q 827 819 732 967 q 922 479 922 672 q 817 133 922 283 q 507 -19 711 -17 q 196 128 290 -19 q 101 468 101 276 q 206 819 101 675 q 515 967 311 963 m 517 889 q 281 770 368 889 q 193 469 193 651 q 222 273 193 364 q 311 126 251 182 l 633 867 q 578 883 608 876 q 517 889 549 889 m 375 85 q 434 64 401 71 q 504 57 467 57 q 740 176 653 57 q 828 478 828 294 q 796 682 828 589 q 699 829 764 775 l 375 85 z "},"ß":{"ha":801,"x_min":117,"x_max":731,"o":"m 117 657 q 200 871 117 797 q 413 944 283 944 q 601 884 521 944 q 682 699 682 824 q 652 574 682 625 q 564 494 622 524 q 685 408 639 464 q 731 261 731 351 q 626 56 731 113 q 375 0 522 0 l 307 0 l 307 72 l 378 72 q 566 110 489 72 q 643 258 643 149 q 574 409 643 364 q 392 454 506 454 l 329 454 l 329 525 l 367 525 q 544 567 492 525 q 596 697 596 610 q 540 830 596 789 q 410 871 485 871 q 255 811 307 871 q 203 657 203 751 l 203 0 l 117 0 l 117 657 z "},"ð":{"ha":750,"x_min":72,"x_max":663,"o":"m 547 922 l 444 832 q 600 624 538 747 q 663 363 663 501 q 576 80 663 178 q 349 -18 490 -18 q 149 69 225 -18 q 72 264 72 156 q 147 453 72 369 q 350 538 221 538 q 470 509 413 538 q 567 444 528 481 q 502 629 551 543 q 386 779 453 715 l 250 660 l 210 714 l 335 824 q 243 882 290 858 q 149 915 196 906 l 186 969 q 290 934 238 958 q 392 874 343 910 l 506 975 l 547 922 m 160 257 q 211 117 160 178 q 351 56 263 56 q 516 135 463 56 q 574 344 569 214 q 484 431 543 393 q 350 468 425 468 q 210 404 261 468 q 160 257 160 340 z "},"þ":{"ha":753,"x_min":117,"x_max":679,"o":"m 203 136 q 294 76 246 96 q 383 56 342 56 q 546 134 497 56 q 594 335 594 213 q 546 538 594 458 q 383 618 497 618 q 294 597 342 618 q 203 536 246 576 l 203 136 m 117 -304 l 117 967 l 203 981 l 203 617 q 294 670 244 649 q 390 692 343 692 q 609 591 539 692 q 679 336 679 490 q 609 82 679 182 q 390 -18 539 -18 q 294 2 343 -18 q 203 56 244 22 l 203 -289 l 117 -304 z "},"ƒ":{"ha":400,"x_min":-37,"x_max":386,"o":"m 217 782 l 217 660 l 339 660 l 368 594 l 217 594 l 217 103 q 173 -37 217 15 q 56 -90 129 -90 q 1 -84 26 -90 q -37 -74 -25 -78 l -22 0 q 3 -8 -14 -4 q 33 -12 21 -12 q 109 19 88 -12 q 131 101 131 50 l 131 594 l 31 594 l 29 660 l 131 660 l 131 782 q 175 922 131 869 q 294 975 219 975 q 347 969 322 975 q 386 957 372 963 l 369 883 q 344 892 361 888 q 313 896 326 896 q 238 864 260 896 q 217 782 217 832 z "},"æ":{"ha":1153,"x_min":72,"x_max":1086,"o":"m 1086 332 l 586 332 q 643 131 588 211 q 824 51 699 51 q 942 66 897 51 q 1022 99 988 81 l 1049 35 q 939 -5 1010 8 q 825 -18 868 -18 q 663 18 731 -18 q 557 117 594 54 q 456 23 524 64 q 304 -18 388 -18 q 128 42 183 -18 q 72 189 72 101 q 140 338 72 285 q 313 390 207 392 l 500 390 l 500 458 q 460 574 500 528 q 339 619 421 619 q 224 604 265 619 q 146 572 182 589 l 119 633 q 226 676 158 660 q 335 692 293 692 q 476 658 418 692 q 563 568 535 624 q 661 658 600 625 q 804 692 722 692 q 1019 589 953 692 q 1086 332 1086 486 m 999 392 q 945 555 990 490 q 801 619 900 619 q 651 555 701 619 q 588 392 600 490 l 999 392 m 157 189 q 189 97 157 142 q 296 53 221 53 q 429 92 369 53 q 524 186 489 131 q 507 256 514 219 q 500 332 500 292 l 310 332 q 196 290 235 332 q 157 189 157 247 z "},"đ":{"ha":753,"x_min":72,"x_max":725,"o":"m 549 536 q 458 597 506 576 q 369 618 411 618 q 208 538 256 618 q 160 336 160 458 q 208 135 160 214 q 369 56 256 56 q 458 76 411 56 q 549 136 506 96 l 549 536 m 725 786 l 636 786 l 636 0 l 579 0 l 557 60 q 462 3 514 25 q 361 -18 410 -18 q 143 81 214 -18 q 72 335 72 181 q 143 591 72 490 q 361 692 214 692 q 458 670 407 692 q 549 617 508 649 l 549 786 l 381 786 l 371 849 l 549 849 l 549 967 l 636 979 l 636 849 l 715 849 l 725 786 z "},"œ":{"ha":1142,"x_min":72,"x_max":1078,"o":"m 1078 332 l 575 332 q 631 131 576 211 q 811 51 686 51 q 931 66 886 51 q 1013 99 976 81 l 1039 35 q 929 -5 1000 8 q 815 -18 858 -18 q 708 -4 756 -18 q 622 33 660 10 q 526 -5 582 8 q 428 -18 471 -18 q 169 82 265 -18 q 72 335 74 182 q 168 590 72 488 q 428 692 264 692 q 524 679 469 692 q 621 640 579 667 q 697 678 654 664 q 793 692 740 692 q 1010 589 942 692 q 1078 332 1078 486 m 160 342 q 228 135 160 218 q 424 51 297 51 q 513 61 483 51 q 568 83 543 71 q 510 197 529 131 q 490 340 490 263 q 509 480 490 415 q 567 590 528 544 q 511 613 542 603 q 424 624 481 624 q 230 542 299 624 q 160 342 161 460 m 989 392 q 934 555 979 490 q 789 619 889 619 q 640 555 690 619 q 578 392 589 490 l 989 392 z "},"ĺ":{"ha":319,"x_min":117,"x_max":308,"o":"m 208 1151 l 308 1151 l 189 989 l 125 989 l 208 1151 m 117 0 l 117 935 l 203 951 l 203 0 l 117 0 z "},"ł":{"ha":319,"x_min":-33,"x_max":351,"o":"m 351 632 l 203 500 l 203 0 l 117 0 l 117 425 l 8 329 l -33 383 l 117 514 l 117 967 l 203 981 l 203 589 l 311 686 l 351 632 z "},"ı":{"ha":322,"x_min":118,"x_max":206,"o":"m 118 0 l 118 674 l 206 674 l 206 0 l 118 0 z "},"ø":{"ha":733,"x_min":72,"x_max":660,"o":"m 357 -18 q 142 85 211 -17 q 72 340 72 188 q 150 590 74 489 q 371 692 226 690 q 590 590 519 692 q 660 332 660 488 q 581 81 658 179 q 357 -18 503 -18 m 469 594 q 427 612 451 606 q 374 618 403 618 q 212 539 263 618 q 160 342 161 460 q 173 209 160 269 q 221 110 186 149 l 469 594 m 358 56 q 522 133 471 56 q 575 332 574 211 q 563 449 575 394 q 526 542 551 504 l 283 68 q 318 58 299 61 q 358 56 338 56 z "},"ģ":{"ha":753,"x_min":72,"x_max":636,"o":"m 361 786 q 315 807 333 786 q 296 864 296 828 q 333 985 296 926 q 422 1071 371 1044 l 449 1029 q 393 981 415 1007 q 368 919 371 956 q 411 897 394 917 q 428 854 428 878 q 409 806 428 826 q 361 786 390 786 m 549 536 q 458 597 506 576 q 369 618 411 618 q 208 538 256 618 q 160 336 160 458 q 208 135 160 214 q 369 56 256 56 q 458 76 411 56 q 549 136 506 96 l 549 536 m 636 -74 q 566 -240 636 -174 q 364 -307 496 -307 q 256 -292 324 -307 q 149 -250 188 -276 l 175 -186 q 250 -218 210 -203 q 361 -235 290 -233 q 497 -195 446 -235 q 549 -72 549 -156 l 549 56 q 458 2 508 22 q 361 -18 407 -18 q 143 81 214 -18 q 72 335 72 181 q 143 591 72 490 q 361 692 214 692 q 462 669 410 692 q 556 611 514 646 l 579 674 l 636 674 l 636 -74 z "},"À":{"ha":811,"x_min":8,"x_max":803,"o":"m 279 1239 l 378 1239 l 463 1026 l 397 1026 l 279 1239 m 397 833 l 218 353 l 582 353 l 397 833 m 442 944 l 803 14 l 718 0 l 607 283 l 194 283 l 90 0 l 8 0 l 351 944 l 442 944 z "},"Á":{"ha":811,"x_min":8,"x_max":803,"o":"m 411 1239 l 511 1239 l 392 1026 l 328 1026 l 411 1239 m 397 833 l 218 353 l 582 353 l 397 833 m 442 944 l 803 14 l 718 0 l 607 283 l 194 283 l 90 0 l 8 0 l 351 944 l 442 944 z "},"Â":{"ha":811,"x_min":8,"x_max":803,"o":"m 293 1026 l 210 1026 l 356 1239 l 439 1239 l 586 1026 l 500 1026 l 397 1178 l 293 1026 m 397 833 l 218 353 l 582 353 l 397 833 m 442 944 l 803 14 l 718 0 l 607 283 l 194 283 l 90 0 l 8 0 l 351 944 l 442 944 z "},"Ã":{"ha":811,"x_min":8,"x_max":803,"o":"m 526 1179 l 590 1179 q 557 1080 592 1107 q 474 1053 522 1053 q 390 1086 426 1053 q 318 1119 353 1119 q 283 1105 300 1119 q 264 1058 267 1090 l 201 1058 q 234 1158 199 1132 q 317 1185 269 1185 q 406 1152 375 1185 q 474 1119 438 1119 q 508 1133 492 1119 q 526 1179 524 1147 m 397 833 l 218 353 l 582 353 l 397 833 m 442 944 l 803 14 l 718 0 l 607 283 l 194 283 l 90 0 l 8 0 l 351 944 l 442 944 z "},"Ä":{"ha":811,"x_min":8,"x_max":803,"o":"m 507 1186 q 550 1169 533 1186 q 567 1128 567 1151 q 550 1084 567 1101 q 507 1067 533 1067 q 465 1084 482 1067 q 447 1128 447 1101 q 465 1169 447 1151 q 507 1186 482 1186 m 289 1186 q 333 1169 315 1186 q 350 1128 350 1151 q 333 1084 350 1101 q 289 1067 315 1067 q 247 1084 265 1067 q 229 1128 229 1101 q 247 1169 229 1151 q 289 1186 265 1186 m 397 833 l 218 353 l 582 353 l 397 833 m 442 944 l 803 14 l 718 0 l 607 283 l 194 283 l 90 0 l 8 0 l 351 944 l 442 944 z "},"Å":{"ha":811,"x_min":8,"x_max":803,"o":"m 397 1263 q 483 1229 447 1263 q 519 1146 519 1196 q 483 1065 519 1097 q 397 1033 447 1033 q 310 1065 347 1033 q 274 1146 274 1097 q 310 1229 274 1196 q 397 1263 347 1263 m 397 1088 q 440 1104 422 1088 q 458 1146 458 1121 q 440 1190 458 1172 q 397 1207 422 1207 q 354 1190 372 1207 q 336 1146 336 1172 q 354 1104 336 1121 q 397 1088 372 1088 m 397 833 l 218 353 l 582 353 l 397 833 m 442 944 l 803 14 l 718 0 l 607 283 l 194 283 l 90 0 l 8 0 l 351 944 l 442 944 z "},"Ă":{"ha":811,"x_min":8,"x_max":803,"o":"m 578 1224 q 535 1099 578 1154 q 397 1043 493 1044 q 259 1099 301 1044 q 217 1224 217 1154 l 281 1224 q 310 1147 281 1185 q 397 1110 339 1110 q 483 1147 453 1110 q 513 1224 513 1185 l 578 1224 m 397 833 l 218 353 l 582 353 l 397 833 m 442 944 l 803 14 l 718 0 l 607 283 l 194 283 l 90 0 l 8 0 l 351 944 l 442 944 z "},"Ą":{"ha":811,"x_min":8,"x_max":893,"o":"m 442 944 l 803 14 q 743 -62 772 -10 q 714 -149 714 -114 q 737 -206 714 -190 q 786 -222 760 -222 q 827 -215 808 -222 q 863 -193 846 -207 l 893 -246 q 846 -276 875 -264 q 782 -287 817 -287 q 678 -251 719 -287 q 638 -154 638 -214 q 659 -68 638 -112 q 715 4 681 -24 l 607 283 l 194 283 l 90 0 l 8 0 l 351 944 l 442 944 m 397 833 l 218 353 l 582 353 l 397 833 z "},"Ā":{"ha":811,"x_min":8,"x_max":803,"o":"m 231 1165 l 565 1165 l 565 1097 l 231 1097 l 231 1165 m 397 833 l 218 353 l 582 353 l 397 833 m 442 944 l 803 14 l 718 0 l 607 283 l 194 283 l 90 0 l 8 0 l 351 944 l 442 944 z "},"Ç":{"ha":833,"x_min":101,"x_max":746,"o":"m 718 849 q 633 878 675 867 q 517 889 592 889 q 281 769 368 888 q 193 468 193 650 q 268 178 193 299 q 504 57 343 57 q 627 69 579 57 q 713 99 675 82 l 746 32 q 653 0 711 14 q 540 -18 596 -14 l 518 -75 q 597 -114 565 -81 q 629 -183 629 -147 q 582 -277 629 -247 q 474 -307 535 -307 q 419 -299 449 -307 q 371 -281 389 -292 l 392 -222 q 428 -235 404 -228 q 474 -242 451 -242 q 528 -227 503 -242 q 554 -186 554 -212 q 517 -137 554 -157 q 429 -112 481 -118 l 465 -18 q 186 140 271 -3 q 101 467 101 283 q 206 819 101 674 q 515 964 311 964 q 633 951 558 964 q 746 913 707 939 l 718 849 z "},"Ć":{"ha":833,"x_min":101,"x_max":746,"o":"m 529 1239 l 629 1239 l 510 1026 l 446 1026 l 529 1239 m 718 849 q 633 878 675 867 q 517 889 592 889 q 281 769 368 888 q 193 468 193 650 q 268 178 193 299 q 504 57 343 57 q 627 69 579 57 q 713 99 675 82 l 746 32 q 637 -4 707 11 q 507 -19 567 -19 q 196 127 290 -19 q 101 467 101 274 q 206 819 101 674 q 515 964 311 964 q 633 951 558 964 q 746 913 707 939 l 718 849 z "},"Č":{"ha":833,"x_min":101,"x_max":746,"o":"m 325 1239 l 408 1239 l 513 1089 l 615 1239 l 701 1239 l 554 1026 l 471 1026 l 325 1239 m 718 849 q 633 878 675 867 q 517 889 592 889 q 281 769 368 888 q 193 468 193 650 q 268 178 193 299 q 504 57 343 57 q 627 69 579 57 q 713 99 675 82 l 746 32 q 637 -4 707 11 q 507 -19 567 -19 q 196 127 290 -19 q 101 467 101 274 q 206 819 101 674 q 515 964 311 964 q 633 951 558 964 q 746 913 707 939 l 718 849 z "},"Ď":{"ha":963,"x_min":146,"x_max":860,"o":"m 233 1238 l 317 1238 l 421 1088 l 524 1238 l 610 1238 l 463 1025 l 379 1025 l 233 1238 m 146 0 l 146 944 l 454 944 q 766 808 672 944 q 860 478 860 671 q 754 140 860 281 q 442 0 649 0 l 146 0 m 458 871 l 232 871 l 232 72 l 444 72 q 685 183 593 72 q 776 476 776 294 q 698 758 776 644 q 458 871 619 871 z "},"È":{"ha":728,"x_min":146,"x_max":685,"o":"m 274 1239 l 372 1239 l 457 1026 l 392 1026 l 274 1239 m 146 0 l 146 944 l 646 944 l 653 882 l 232 882 l 232 515 l 510 515 l 517 453 l 232 453 l 232 69 l 676 69 l 685 0 l 146 0 z "},"É":{"ha":728,"x_min":146,"x_max":685,"o":"m 406 1239 l 506 1239 l 386 1026 l 322 1026 l 406 1239 m 146 0 l 146 944 l 646 944 l 653 882 l 232 882 l 232 515 l 510 515 l 517 453 l 232 453 l 232 69 l 676 69 l 685 0 l 146 0 z "},"Ê":{"ha":728,"x_min":146,"x_max":685,"o":"m 288 1026 l 204 1026 l 350 1239 l 433 1239 l 581 1026 l 494 1026 l 392 1178 l 288 1026 m 146 0 l 146 944 l 646 944 l 653 882 l 232 882 l 232 515 l 510 515 l 517 453 l 232 453 l 232 69 l 676 69 l 685 0 l 146 0 z "},"Ë":{"ha":728,"x_min":146,"x_max":685,"o":"m 501 1186 q 544 1169 528 1186 q 561 1128 561 1151 q 544 1084 561 1101 q 501 1067 528 1067 q 459 1084 476 1067 q 442 1128 442 1101 q 459 1169 442 1151 q 501 1186 476 1186 m 283 1186 q 327 1169 310 1186 q 344 1128 344 1151 q 327 1084 344 1101 q 283 1067 310 1067 q 242 1084 260 1067 q 224 1128 224 1101 q 242 1169 224 1151 q 283 1186 260 1186 m 146 0 l 146 944 l 646 944 l 653 882 l 232 882 l 232 515 l 510 515 l 517 453 l 232 453 l 232 69 l 676 69 l 685 0 l 146 0 z "},"Ē":{"ha":728,"x_min":146,"x_max":685,"o":"m 225 1165 l 560 1165 l 560 1097 l 225 1097 l 225 1165 m 146 0 l 146 944 l 646 944 l 653 882 l 232 882 l 232 515 l 510 515 l 517 453 l 232 453 l 232 69 l 676 69 l 685 0 l 146 0 z "},"Ė":{"ha":728,"x_min":146,"x_max":685,"o":"m 392 1200 q 438 1180 418 1200 q 457 1133 457 1160 q 438 1086 457 1106 q 392 1067 418 1067 q 344 1086 364 1067 q 325 1133 325 1106 q 344 1180 325 1160 q 392 1200 364 1200 m 146 0 l 146 944 l 646 944 l 653 882 l 232 882 l 232 515 l 510 515 l 517 453 l 232 453 l 232 69 l 676 69 l 685 0 l 146 0 z "},"Ę":{"ha":728,"x_min":146,"x_max":688,"o":"m 146 0 l 146 944 l 646 944 l 653 882 l 232 882 l 232 515 l 510 515 l 517 453 l 232 453 l 232 69 l 676 69 l 685 0 l 601 0 q 538 -71 567 -26 q 508 -149 508 -115 q 531 -206 508 -190 q 581 -222 554 -222 q 622 -215 603 -222 q 657 -193 640 -207 l 688 -246 q 640 -276 669 -264 q 576 -287 611 -287 q 473 -251 514 -287 q 432 -154 432 -214 q 451 -72 432 -115 q 504 0 471 -29 l 146 0 z "},"Ě":{"ha":728,"x_min":146,"x_max":685,"o":"m 201 1239 l 285 1239 l 389 1089 l 492 1239 l 578 1239 l 431 1026 l 347 1026 l 201 1239 m 146 0 l 146 944 l 646 944 l 653 882 l 232 882 l 232 515 l 510 515 l 517 453 l 232 453 l 232 69 l 676 69 l 685 0 l 146 0 z "},"Ğ":{"ha":913,"x_min":101,"x_max":804,"o":"m 739 1224 q 697 1099 739 1154 q 558 1043 654 1044 q 420 1099 463 1044 q 378 1224 378 1154 l 442 1224 q 471 1147 442 1185 q 558 1110 500 1110 q 644 1147 614 1110 q 674 1224 674 1185 l 739 1224 m 514 475 l 804 475 l 804 44 l 803 44 l 804 43 q 688 -1 765 17 q 550 -19 610 -19 q 218 120 335 -19 q 101 467 101 260 q 228 827 101 690 q 558 964 356 964 q 676 951 601 964 q 789 913 750 939 l 763 849 q 677 878 719 867 q 561 889 635 889 q 303 778 413 888 q 193 468 193 669 q 290 167 193 278 q 549 57 388 57 q 641 67 599 57 q 718 89 683 76 l 718 413 l 506 413 l 514 475 z "},"Ì":{"ha":378,"x_min":71,"x_max":254,"o":"m 71 1239 l 169 1239 l 254 1026 l 189 1026 l 71 1239 m 146 0 l 146 944 l 232 944 l 232 0 l 146 0 z "},"Í":{"ha":378,"x_min":119,"x_max":303,"o":"m 203 1239 l 303 1239 l 183 1026 l 119 1026 l 203 1239 m 146 0 l 146 944 l 232 944 l 232 0 l 146 0 z "},"Î":{"ha":378,"x_min":1,"x_max":378,"o":"m 85 1026 l 1 1026 l 147 1239 l 231 1239 l 378 1026 l 292 1026 l 189 1178 l 85 1026 m 146 0 l 146 944 l 232 944 l 232 0 l 146 0 z "},"Ï":{"ha":378,"x_min":21,"x_max":358,"o":"m 299 1186 q 342 1169 325 1186 q 358 1128 358 1151 q 342 1084 358 1101 q 299 1067 325 1067 q 256 1084 274 1067 q 239 1128 239 1101 q 256 1169 239 1151 q 299 1186 274 1186 m 81 1186 q 124 1169 107 1186 q 142 1128 142 1151 q 124 1084 142 1101 q 81 1067 107 1067 q 39 1084 57 1067 q 21 1128 21 1101 q 39 1169 21 1151 q 81 1186 57 1186 m 146 0 l 146 944 l 232 944 l 232 0 l 146 0 z "},"Ī":{"ha":378,"x_min":22,"x_max":357,"o":"m 22 1165 l 357 1165 l 357 1097 l 22 1097 l 22 1165 m 146 0 l 146 944 l 232 944 l 232 0 l 146 0 z "},"Į":{"ha":378,"x_min":67,"x_max":322,"o":"m 146 6 l 146 944 l 232 944 l 232 0 q 172 -67 201 -21 q 143 -149 143 -114 q 166 -206 143 -190 q 215 -222 189 -222 q 256 -215 238 -222 q 292 -193 275 -207 l 322 -246 q 275 -276 304 -264 q 211 -287 246 -287 q 108 -251 149 -287 q 67 -154 67 -214 q 88 -68 67 -112 q 146 6 110 -24 z "},"İ":{"ha":378,"x_min":122,"x_max":254,"o":"m 189 1200 q 235 1180 215 1200 q 254 1133 254 1160 q 235 1086 254 1106 q 189 1067 215 1067 q 142 1086 161 1067 q 122 1133 122 1106 q 142 1180 122 1160 q 189 1200 161 1200 m 146 0 l 146 944 l 232 944 l 232 0 l 146 0 z "},"Ĺ":{"ha":704,"x_min":146,"x_max":675,"o":"m 274 1239 l 374 1239 l 254 1026 l 190 1026 l 274 1239 m 675 0 l 146 0 l 146 944 l 232 944 l 232 69 l 668 69 l 675 0 z "},"Ľ":{"ha":704,"x_min":146,"x_max":675,"o":"m 472 975 q 518 954 499 975 q 538 899 538 933 q 499 777 538 836 q 410 692 461 718 l 385 732 q 438 780 417 754 q 463 842 460 806 q 420 864 436 844 q 404 908 404 883 q 424 955 404 935 q 472 975 443 975 m 675 0 l 146 0 l 146 944 l 232 944 l 232 69 l 668 69 l 675 0 z "},"Ñ":{"ha":976,"x_min":146,"x_max":833,"o":"m 636 1179 l 700 1179 q 667 1080 701 1107 q 583 1053 632 1053 q 499 1086 536 1053 q 428 1119 463 1119 q 393 1105 410 1119 q 374 1058 376 1090 l 311 1058 q 344 1158 308 1132 q 426 1185 379 1185 q 516 1152 485 1185 q 583 1119 547 1119 q 617 1133 601 1119 q 636 1179 633 1147 m 146 0 l 146 944 l 203 944 l 699 261 l 746 179 l 746 944 l 833 944 l 833 0 l 776 0 l 251 738 l 232 778 l 232 0 l 146 0 z "},"Ń":{"ha":976,"x_min":146,"x_max":833,"o":"m 521 1239 l 621 1239 l 501 1026 l 438 1026 l 521 1239 m 146 0 l 146 944 l 203 944 l 699 261 l 746 179 l 746 944 l 833 944 l 833 0 l 776 0 l 251 738 l 232 778 l 232 0 l 146 0 z "},"Ň":{"ha":976,"x_min":146,"x_max":833,"o":"m 317 1239 l 400 1239 l 504 1089 l 607 1239 l 693 1239 l 546 1026 l 463 1026 l 317 1239 m 146 0 l 146 944 l 203 944 l 699 261 l 746 179 l 746 944 l 833 944 l 833 0 l 776 0 l 251 738 l 232 778 l 232 0 l 146 0 z "},"Ò":{"ha":1022,"x_min":101,"x_max":922,"o":"m 397 1239 l 496 1239 l 581 1026 l 515 1026 l 397 1239 m 515 967 q 827 819 732 967 q 922 479 922 672 q 817 133 922 283 q 507 -19 711 -17 q 196 128 290 -19 q 101 468 101 276 q 206 819 101 675 q 515 967 311 963 m 193 469 q 268 178 193 300 q 504 57 343 57 q 740 176 653 57 q 828 478 828 294 q 753 768 828 647 q 517 889 679 889 q 281 770 368 889 q 193 469 193 651 z "},"Ó":{"ha":1022,"x_min":101,"x_max":922,"o":"m 529 1239 l 629 1239 l 510 1026 l 446 1026 l 529 1239 m 515 967 q 827 819 732 967 q 922 479 922 672 q 817 133 922 283 q 507 -19 711 -17 q 196 128 290 -19 q 101 468 101 276 q 206 819 101 675 q 515 967 311 963 m 193 469 q 268 178 193 300 q 504 57 343 57 q 740 176 653 57 q 828 478 828 294 q 753 768 828 647 q 517 889 679 889 q 281 770 368 889 q 193 469 193 651 z "},"Ô":{"ha":1022,"x_min":101,"x_max":922,"o":"m 411 1026 l 328 1026 l 474 1239 l 557 1239 l 704 1026 l 618 1026 l 515 1178 l 411 1026 m 515 967 q 827 819 732 967 q 922 479 922 672 q 817 133 922 283 q 507 -19 711 -17 q 196 128 290 -19 q 101 468 101 276 q 206 819 101 675 q 515 967 311 963 m 193 469 q 268 178 193 300 q 504 57 343 57 q 740 176 653 57 q 828 478 828 294 q 753 768 828 647 q 517 889 679 889 q 281 770 368 889 q 193 469 193 651 z "},"Õ":{"ha":1022,"x_min":101,"x_max":922,"o":"m 644 1179 l 708 1179 q 675 1080 710 1107 q 592 1053 640 1053 q 508 1086 544 1053 q 436 1119 471 1119 q 401 1105 418 1119 q 382 1058 385 1090 l 319 1058 q 352 1158 317 1132 q 435 1185 388 1185 q 524 1152 493 1185 q 592 1119 556 1119 q 626 1133 610 1119 q 644 1179 642 1147 m 515 967 q 827 819 732 967 q 922 479 922 672 q 817 133 922 283 q 507 -19 711 -17 q 196 128 290 -19 q 101 468 101 276 q 206 819 101 675 q 515 967 311 963 m 193 469 q 268 178 193 300 q 504 57 343 57 q 740 176 653 57 q 828 478 828 294 q 753 768 828 647 q 517 889 679 889 q 281 770 368 889 q 193 469 193 651 z "},"Ö":{"ha":1022,"x_min":101,"x_max":922,"o":"m 625 1186 q 668 1169 651 1186 q 685 1128 685 1151 q 668 1084 685 1101 q 625 1067 651 1067 q 583 1084 600 1067 q 565 1128 565 1101 q 583 1169 565 1151 q 625 1186 600 1186 m 407 1186 q 451 1169 433 1186 q 468 1128 468 1151 q 451 1084 468 1101 q 407 1067 433 1067 q 365 1084 383 1067 q 347 1128 347 1101 q 365 1169 347 1151 q 407 1186 383 1186 m 515 967 q 827 819 732 967 q 922 479 922 672 q 817 133 922 283 q 507 -19 711 -17 q 196 128 290 -19 q 101 468 101 276 q 206 819 101 675 q 515 967 311 963 m 193 469 q 268 178 193 300 q 504 57 343 57 q 740 176 653 57 q 828 478 828 294 q 753 768 828 647 q 517 889 679 889 q 281 770 368 889 q 193 469 193 651 z "},"Ō":{"ha":1022,"x_min":101,"x_max":922,"o":"m 349 1165 l 683 1165 l 683 1097 l 349 1097 l 349 1165 m 515 967 q 827 819 732 967 q 922 479 922 672 q 817 133 922 283 q 507 -19 711 -17 q 196 128 290 -19 q 101 468 101 276 q 206 819 101 675 q 515 967 311 963 m 193 469 q 268 178 193 300 q 504 57 343 57 q 740 176 653 57 q 828 478 828 294 q 753 768 828 647 q 517 889 679 889 q 281 770 368 889 q 193 469 193 651 z "},"Ő":{"ha":1022,"x_min":101,"x_max":922,"o":"m 622 1239 l 719 1239 l 603 1026 l 540 1026 l 622 1239 m 451 1239 l 547 1239 l 428 1026 l 368 1026 l 451 1239 m 515 967 q 827 819 732 967 q 922 479 922 672 q 817 133 922 283 q 507 -19 711 -17 q 196 128 290 -19 q 101 468 101 276 q 206 819 101 675 q 515 967 311 963 m 193 469 q 268 178 193 300 q 504 57 343 57 q 740 176 653 57 q 828 478 828 294 q 753 768 828 647 q 517 889 679 889 q 281 770 368 889 q 193 469 193 651 z "},"Ŕ":{"ha":879,"x_min":146,"x_max":806,"o":"m 404 1239 l 504 1239 l 385 1026 l 321 1026 l 404 1239 m 393 871 l 232 871 l 232 468 l 378 468 q 563 511 483 468 q 643 672 642 554 q 572 832 643 793 q 393 871 501 871 m 708 0 l 485 404 q 431 399 458 401 q 375 397 403 397 l 232 397 l 232 0 l 146 0 l 146 944 l 390 944 q 634 884 538 944 q 731 675 731 824 q 682 517 729 576 q 561 428 635 457 l 806 0 l 708 0 z "},"Ř":{"ha":879,"x_min":146,"x_max":806,"o":"m 200 1239 l 283 1239 l 388 1089 l 490 1239 l 576 1239 l 429 1026 l 346 1026 l 200 1239 m 393 871 l 232 871 l 232 468 l 378 468 q 563 511 483 468 q 643 672 642 554 q 572 832 643 793 q 393 871 501 871 m 708 0 l 485 404 q 431 399 458 401 q 375 397 403 397 l 232 397 l 232 0 l 146 0 l 146 944 l 390 944 q 634 884 538 944 q 731 675 731 824 q 682 517 729 576 q 561 428 635 457 l 806 0 l 708 0 z "},"Ś":{"ha":740,"x_min":72,"x_max":674,"o":"m 382 1239 l 482 1239 l 363 1026 l 299 1026 l 382 1239 m 110 107 q 208 71 146 89 q 340 53 271 53 q 523 101 460 53 q 586 222 586 150 q 329 453 586 385 q 74 736 72 522 q 155 900 75 833 q 368 967 235 967 q 499 950 438 967 q 601 913 560 933 l 571 847 q 489 879 535 864 q 371 894 443 894 q 213 851 271 894 q 154 736 154 808 q 414 500 154 571 q 668 222 674 429 q 581 50 667 118 q 342 -18 496 -18 q 197 1 282 -18 q 89 40 113 19 l 110 107 z "},"Š":{"ha":740,"x_min":72,"x_max":674,"o":"m 178 1239 l 261 1239 l 365 1089 l 468 1239 l 554 1239 l 407 1026 l 324 1026 l 178 1239 m 110 107 q 208 71 146 89 q 340 53 271 53 q 523 101 460 53 q 586 222 586 150 q 329 453 586 385 q 74 736 72 522 q 155 900 75 833 q 368 967 235 967 q 499 950 438 967 q 601 913 560 933 l 571 847 q 489 879 535 864 q 371 894 443 894 q 213 851 271 894 q 154 736 154 808 q 414 500 154 571 q 668 222 674 429 q 581 50 667 118 q 342 -18 496 -18 q 197 1 282 -18 q 89 40 113 19 l 110 107 z "},"Ť":{"ha":714,"x_min":14,"x_max":699,"o":"m 167 1239 l 250 1239 l 354 1089 l 457 1239 l 543 1239 l 396 1026 l 313 1026 l 167 1239 m 699 876 l 400 876 l 400 0 l 313 0 l 313 876 l 14 876 l 14 944 l 692 944 l 699 876 z "},"Ù":{"ha":951,"x_min":131,"x_max":821,"o":"m 357 1239 l 456 1239 l 540 1026 l 475 1026 l 357 1239 m 217 344 q 286 140 217 224 q 475 57 356 57 q 666 140 599 57 q 733 344 733 224 l 733 944 l 821 944 l 821 332 q 728 82 821 181 q 475 -17 636 -17 q 223 83 315 -15 q 131 332 131 181 l 131 944 l 217 944 l 217 344 z "},"Ú":{"ha":951,"x_min":131,"x_max":821,"o":"m 489 1239 l 589 1239 l 469 1026 l 406 1026 l 489 1239 m 217 344 q 286 140 217 224 q 475 57 356 57 q 666 140 599 57 q 733 344 733 224 l 733 944 l 821 944 l 821 332 q 728 82 821 181 q 475 -17 636 -17 q 223 83 315 -15 q 131 332 131 181 l 131 944 l 217 944 l 217 344 z "},"Û":{"ha":951,"x_min":131,"x_max":821,"o":"m 371 1026 l 288 1026 l 433 1239 l 517 1239 l 664 1026 l 578 1026 l 475 1178 l 371 1026 m 217 344 q 286 140 217 224 q 475 57 356 57 q 666 140 599 57 q 733 344 733 224 l 733 944 l 821 944 l 821 332 q 728 82 821 181 q 475 -17 636 -17 q 223 83 315 -15 q 131 332 131 181 l 131 944 l 217 944 l 217 344 z "},"Ü":{"ha":951,"x_min":131,"x_max":821,"o":"m 585 1186 q 628 1169 611 1186 q 644 1128 644 1151 q 628 1084 644 1101 q 585 1067 611 1067 q 542 1084 560 1067 q 525 1128 525 1101 q 542 1169 525 1151 q 585 1186 560 1186 m 367 1186 q 410 1169 393 1186 q 428 1128 428 1151 q 410 1084 428 1101 q 367 1067 393 1067 q 325 1084 343 1067 q 307 1128 307 1101 q 325 1169 307 1151 q 367 1186 343 1186 m 217 344 q 286 140 217 224 q 475 57 356 57 q 666 140 599 57 q 733 344 733 224 l 733 944 l 821 944 l 821 332 q 728 82 821 181 q 475 -17 636 -17 q 223 83 315 -15 q 131 332 131 181 l 131 944 l 217 944 l 217 344 z "},"Ū":{"ha":951,"x_min":131,"x_max":821,"o":"m 308 1165 l 643 1165 l 643 1097 l 308 1097 l 308 1165 m 217 344 q 286 140 217 224 q 475 57 356 57 q 666 140 599 57 q 733 344 733 224 l 733 944 l 821 944 l 821 332 q 728 82 821 181 q 475 -17 636 -17 q 223 83 315 -15 q 131 332 131 181 l 131 944 l 217 944 l 217 344 z "},"Ů":{"ha":951,"x_min":131,"x_max":821,"o":"m 475 1263 q 561 1229 525 1263 q 597 1146 597 1196 q 561 1065 597 1097 q 475 1033 525 1033 q 388 1065 425 1033 q 351 1146 351 1097 q 388 1229 351 1196 q 475 1263 425 1263 m 475 1088 q 518 1104 500 1088 q 536 1146 536 1121 q 518 1190 536 1172 q 475 1207 500 1207 q 432 1190 450 1207 q 414 1146 414 1172 q 432 1104 414 1121 q 475 1088 450 1088 m 217 344 q 286 140 217 224 q 475 57 356 57 q 666 140 599 57 q 733 344 733 224 l 733 944 l 821 944 l 821 332 q 728 82 821 181 q 475 -17 636 -17 q 223 83 315 -15 q 131 332 131 181 l 131 944 l 217 944 l 217 344 z "},"Ű":{"ha":951,"x_min":131,"x_max":821,"o":"m 582 1239 l 679 1239 l 563 1026 l 500 1026 l 582 1239 m 411 1239 l 507 1239 l 388 1026 l 328 1026 l 411 1239 m 217 344 q 286 140 217 224 q 475 57 356 57 q 666 140 599 57 q 733 344 733 224 l 733 944 l 821 944 l 821 332 q 728 82 821 181 q 475 -17 636 -17 q 223 83 315 -15 q 131 332 131 181 l 131 944 l 217 944 l 217 344 z "},"Ų":{"ha":951,"x_min":131,"x_max":821,"o":"m 217 344 q 286 140 217 224 q 475 57 356 57 q 666 140 599 57 q 733 344 733 224 l 733 944 l 821 944 l 821 332 q 756 115 821 206 q 574 -4 690 24 q 514 -75 540 -32 q 488 -149 488 -118 q 510 -206 488 -190 q 560 -222 533 -222 q 601 -215 582 -222 q 636 -193 619 -207 l 667 -246 q 619 -276 649 -264 q 556 -287 590 -287 q 452 -251 493 -287 q 411 -154 411 -214 q 426 -83 411 -119 q 467 -17 440 -46 q 221 85 311 -12 q 131 332 131 182 l 131 944 l 217 944 l 217 344 z "},"Ý":{"ha":760,"x_min":8,"x_max":753,"o":"m 392 1239 l 492 1239 l 372 1026 l 308 1026 l 392 1239 m 333 0 l 335 383 l 8 929 l 99 944 l 378 467 l 660 944 l 753 944 l 422 393 l 421 0 l 333 0 z "},"Ÿ":{"ha":760,"x_min":8,"x_max":753,"o":"m 488 1186 q 531 1169 514 1186 q 547 1128 547 1151 q 531 1084 547 1101 q 488 1067 514 1067 q 445 1084 463 1067 q 428 1128 428 1101 q 445 1169 428 1151 q 488 1186 463 1186 m 269 1186 q 313 1169 296 1186 q 331 1128 331 1151 q 313 1084 331 1101 q 269 1067 296 1067 q 228 1084 246 1067 q 210 1128 210 1101 q 228 1169 210 1151 q 269 1186 246 1186 m 333 0 l 335 383 l 8 929 l 99 944 l 378 467 l 660 944 l 753 944 l 422 393 l 421 0 l 333 0 z "},"Ź":{"ha":786,"x_min":35,"x_max":742,"o":"m 417 1239 l 517 1239 l 397 1026 l 333 1026 l 417 1239 m 721 0 l 43 0 l 35 69 l 649 876 l 86 876 l 72 944 l 735 944 l 742 876 l 131 69 l 714 69 l 721 0 z "},"Ż":{"ha":786,"x_min":35,"x_max":742,"o":"m 403 1200 q 449 1180 429 1200 q 468 1133 468 1160 q 449 1086 468 1106 q 403 1067 429 1067 q 356 1086 375 1067 q 336 1133 336 1106 q 356 1180 336 1160 q 403 1200 375 1200 m 721 0 l 43 0 l 35 69 l 649 876 l 86 876 l 72 944 l 735 944 l 742 876 l 131 69 l 714 69 l 721 0 z "},"Ž":{"ha":786,"x_min":35,"x_max":742,"o":"m 213 1239 l 296 1239 l 400 1089 l 503 1239 l 589 1239 l 442 1026 l 358 1026 l 213 1239 m 721 0 l 43 0 l 35 69 l 649 876 l 86 876 l 72 944 l 735 944 l 742 876 l 131 69 l 714 69 l 721 0 z "},"Ş":{"ha":740,"x_min":72,"x_max":674,"o":"m 110 107 q 208 71 146 89 q 340 53 271 53 q 523 101 460 53 q 586 222 586 150 q 329 453 586 385 q 74 736 72 522 q 155 900 75 833 q 368 967 235 967 q 499 950 438 967 q 601 913 560 933 l 571 847 q 489 879 535 864 q 371 894 443 894 q 213 851 271 894 q 154 736 154 808 q 414 500 154 571 q 668 222 674 429 q 590 57 667 124 q 376 -17 514 -10 l 354 -75 q 432 -114 399 -81 q 465 -183 465 -147 q 417 -277 465 -247 q 310 -307 369 -307 q 254 -299 283 -307 q 206 -281 225 -292 l 228 -222 q 264 -235 240 -228 q 310 -242 288 -242 q 363 -227 338 -242 q 388 -186 388 -212 q 352 -137 388 -157 q 264 -112 317 -118 l 303 -15 q 176 6 243 -10 q 89 40 108 22 l 110 107 z "},"Ģ":{"ha":913,"x_min":101,"x_max":804,"o":"m 514 475 l 804 475 l 804 44 l 803 44 l 804 43 q 695 0 768 18 q 563 -19 622 -18 l 540 -75 q 619 -114 588 -81 q 651 -183 651 -147 q 604 -277 651 -247 q 496 -307 557 -307 q 440 -299 469 -307 q 393 -281 411 -292 l 414 -222 q 451 -235 426 -228 q 496 -242 475 -242 q 549 -227 524 -242 q 575 -186 575 -212 q 540 -137 575 -157 q 451 -112 504 -118 l 490 -15 q 202 139 303 4 q 101 467 101 274 q 228 827 101 690 q 558 964 356 964 q 676 951 601 964 q 789 913 750 939 l 763 849 q 677 878 719 867 q 561 889 635 889 q 303 778 413 888 q 193 468 193 669 q 290 167 193 278 q 549 57 388 57 q 641 67 599 57 q 718 89 683 76 l 718 413 l 506 413 l 514 475 z "},"Ķ":{"ha":838,"x_min":146,"x_max":824,"o":"m 721 0 l 339 481 l 232 357 l 232 0 l 146 0 l 146 944 l 232 944 l 232 465 l 657 965 l 713 913 l 393 543 l 824 0 l 721 0 m 478 -29 q 524 -49 504 -29 q 543 -104 543 -69 q 506 -226 543 -167 q 414 -312 468 -286 l 390 -271 q 445 -223 422 -249 q 469 -161 468 -197 q 426 -139 442 -158 q 410 -96 410 -119 q 430 -49 410 -68 q 478 -29 450 -29 z "},"Ļ":{"ha":704,"x_min":146,"x_max":675,"o":"m 675 0 l 146 0 l 146 944 l 232 944 l 232 69 l 668 69 l 675 0 m 433 -29 q 481 -49 461 -29 q 500 -104 500 -69 q 462 -226 500 -167 q 372 -312 424 -286 l 347 -271 q 401 -223 379 -249 q 426 -161 424 -197 q 383 -139 400 -158 q 367 -96 367 -119 q 387 -49 367 -68 q 433 -29 407 -29 z "},"Ņ":{"ha":976,"x_min":146,"x_max":833,"o":"m 146 0 l 146 944 l 203 944 l 699 261 l 746 179 l 746 944 l 833 944 l 833 0 l 776 0 l 251 738 l 232 778 l 232 0 l 146 0 m 494 -28 q 542 -48 524 -28 q 560 -103 560 -68 q 522 -224 560 -165 q 432 -310 485 -283 l 407 -269 q 463 -222 440 -247 q 488 -160 486 -197 q 444 -137 461 -157 q 428 -94 428 -118 q 448 -47 428 -67 q 494 -28 468 -28 z "},"Ŗ":{"ha":879,"x_min":146,"x_max":806,"o":"m 393 871 l 232 871 l 232 468 l 378 468 q 563 511 483 468 q 643 672 642 554 q 572 832 643 793 q 393 871 501 871 m 708 0 l 485 404 q 431 399 458 401 q 375 397 403 397 l 232 397 l 232 0 l 146 0 l 146 944 l 390 944 q 634 884 538 944 q 731 675 731 824 q 682 517 729 576 q 561 428 635 457 l 806 0 l 708 0 m 446 -29 q 494 -49 475 -29 q 514 -104 514 -69 q 474 -226 514 -167 q 383 -312 435 -286 l 358 -271 q 415 -223 393 -249 q 439 -161 438 -197 q 396 -139 413 -158 q 379 -96 379 -119 q 399 -49 379 -68 q 446 -29 418 -29 z "},"Ţ":{"ha":714,"x_min":14,"x_max":699,"o":"m 699 876 l 400 876 l 400 0 l 390 0 l 360 -75 q 439 -114 407 -81 q 471 -183 471 -147 q 424 -277 471 -247 q 317 -307 378 -307 q 262 -299 292 -307 q 214 -281 232 -292 l 235 -222 q 271 -235 247 -228 q 317 -242 294 -242 q 370 -227 344 -242 q 396 -186 396 -212 q 360 -137 396 -157 q 272 -112 324 -118 l 317 0 l 313 0 l 313 876 l 14 876 l 14 944 l 692 944 l 699 876 z "},"Ș":{"ha":740,"x_min":72,"x_max":674,"o":"m 110 107 q 208 71 146 89 q 340 53 271 53 q 523 101 460 53 q 586 222 586 150 q 329 453 586 385 q 74 736 72 522 q 155 900 75 833 q 368 967 235 967 q 499 950 438 967 q 601 913 560 933 l 571 847 q 489 879 535 864 q 371 894 443 894 q 213 851 271 894 q 154 736 154 808 q 414 500 154 571 q 668 222 674 429 q 581 50 667 118 q 342 -18 496 -18 q 197 1 282 -18 q 89 40 113 19 l 110 107 m 340 -29 q 387 -49 368 -29 q 406 -104 406 -69 q 369 -226 406 -167 q 279 -312 332 -286 l 254 -271 q 309 -223 286 -249 q 333 -161 332 -197 q 290 -139 306 -158 q 274 -96 274 -119 q 294 -49 274 -68 q 340 -29 314 -29 z "},"Ț":{"ha":714,"x_min":14,"x_max":699,"o":"m 699 876 l 400 876 l 400 0 l 313 0 l 313 876 l 14 876 l 14 944 l 692 944 l 699 876 m 357 -29 q 403 -49 383 -29 q 422 -104 422 -69 q 385 -226 422 -167 q 296 -312 347 -286 l 268 -271 q 324 -223 301 -249 q 350 -161 346 -197 q 306 -139 322 -158 q 289 -96 289 -119 q 309 -49 289 -68 q 357 -29 329 -29 z "},"à":{"ha":694,"x_min":72,"x_max":586,"o":"m 218 1031 l 318 1031 l 403 818 l 338 818 l 218 1031 m 157 189 q 189 97 157 142 q 296 53 221 53 q 413 86 361 53 q 500 163 465 119 l 500 333 l 310 333 q 196 290 235 333 q 157 189 157 247 m 119 633 q 226 676 158 660 q 335 692 293 692 q 518 631 450 692 q 586 472 586 571 l 586 0 l 529 0 l 504 72 q 415 10 472 39 q 299 -18 358 -18 q 128 42 185 -18 q 72 189 72 101 q 140 338 72 285 q 313 390 207 392 l 500 390 l 500 458 q 460 574 500 528 q 339 619 421 619 q 224 604 265 619 q 146 572 182 589 l 119 633 z "},"á":{"ha":694,"x_min":72,"x_max":586,"o":"m 351 1031 l 450 1031 l 332 818 l 267 818 l 351 1031 m 157 189 q 189 97 157 142 q 296 53 221 53 q 413 86 361 53 q 500 163 465 119 l 500 333 l 310 333 q 196 290 235 333 q 157 189 157 247 m 119 633 q 226 676 158 660 q 335 692 293 692 q 518 631 450 692 q 586 472 586 571 l 586 0 l 529 0 l 504 72 q 415 10 472 39 q 299 -18 358 -18 q 128 42 185 -18 q 72 189 72 101 q 140 338 72 285 q 313 390 207 392 l 500 390 l 500 458 q 460 574 500 528 q 339 619 421 619 q 224 604 265 619 q 146 572 182 589 l 119 633 z "},"â":{"ha":694,"x_min":72,"x_max":586,"o":"m 232 818 l 149 818 l 296 1031 l 378 1031 l 525 818 l 442 818 l 338 969 l 232 818 m 157 189 q 189 97 157 142 q 296 53 221 53 q 413 86 361 53 q 500 163 465 119 l 500 333 l 310 333 q 196 290 235 333 q 157 189 157 247 m 119 633 q 226 676 158 660 q 335 692 293 692 q 518 631 450 692 q 586 472 586 571 l 586 0 l 529 0 l 504 72 q 415 10 472 39 q 299 -18 358 -18 q 128 42 185 -18 q 72 189 72 101 q 140 338 72 285 q 313 390 207 392 l 500 390 l 500 458 q 460 574 500 528 q 339 619 421 619 q 224 604 265 619 q 146 572 182 589 l 119 633 z "},"ã":{"ha":694,"x_min":72,"x_max":586,"o":"m 465 971 l 531 971 q 497 872 532 899 q 413 844 461 844 q 330 878 367 844 q 257 911 293 911 q 223 897 239 911 q 206 850 207 882 l 140 850 q 174 950 139 924 q 257 976 208 976 q 346 944 315 976 q 413 911 376 911 q 447 925 431 911 q 465 971 463 939 m 157 189 q 189 97 157 142 q 296 53 221 53 q 413 86 361 53 q 500 163 465 119 l 500 333 l 310 333 q 196 290 235 333 q 157 189 157 247 m 119 633 q 226 676 158 660 q 335 692 293 692 q 518 631 450 692 q 586 472 586 571 l 586 0 l 529 0 l 504 72 q 415 10 472 39 q 299 -18 358 -18 q 128 42 185 -18 q 72 189 72 101 q 140 338 72 285 q 313 390 207 392 l 500 390 l 500 458 q 460 574 500 528 q 339 619 421 619 q 224 604 265 619 q 146 572 182 589 l 119 633 z "},"ä":{"ha":694,"x_min":72,"x_max":586,"o":"m 447 978 q 490 960 472 978 q 507 919 507 943 q 490 876 507 893 q 447 858 472 858 q 403 876 421 858 q 386 919 386 893 q 403 960 386 943 q 447 978 421 978 m 231 978 q 272 960 254 978 q 290 919 290 943 q 272 876 290 893 q 231 858 254 858 q 186 876 204 858 q 168 919 168 893 q 186 960 168 943 q 231 978 204 978 m 157 189 q 189 97 157 142 q 296 53 221 53 q 413 86 361 53 q 500 163 465 119 l 500 333 l 310 333 q 196 290 235 333 q 157 189 157 247 m 119 633 q 226 676 158 660 q 335 692 293 692 q 518 631 450 692 q 586 472 586 571 l 586 0 l 529 0 l 504 72 q 415 10 472 39 q 299 -18 358 -18 q 128 42 185 -18 q 72 189 72 101 q 140 338 72 285 q 313 390 207 392 l 500 390 l 500 458 q 460 574 500 528 q 339 619 421 619 q 224 604 265 619 q 146 572 182 589 l 119 633 z "},"å":{"ha":694,"x_min":72,"x_max":586,"o":"m 339 1054 q 424 1021 388 1054 q 461 938 461 988 q 424 857 461 889 q 339 825 388 825 q 251 857 288 825 q 214 938 214 889 q 251 1021 214 988 q 339 1054 288 1054 m 339 879 q 381 896 363 879 q 400 938 400 913 q 381 981 400 964 q 339 999 363 999 q 294 981 313 999 q 276 938 276 964 q 294 896 276 913 q 339 879 313 879 m 157 189 q 189 97 157 142 q 296 53 221 53 q 413 86 361 53 q 500 163 465 119 l 500 333 l 310 333 q 196 290 235 333 q 157 189 157 247 m 119 633 q 226 676 158 660 q 335 692 293 692 q 518 631 450 692 q 586 472 586 571 l 586 0 l 529 0 l 504 72 q 415 10 472 39 q 299 -18 358 -18 q 128 42 185 -18 q 72 189 72 101 q 140 338 72 285 q 313 390 207 392 l 500 390 l 500 458 q 460 574 500 528 q 339 619 421 619 q 224 604 265 619 q 146 572 182 589 l 119 633 z "},"ā":{"ha":694,"x_min":72,"x_max":586,"o":"m 169 957 l 504 957 l 504 889 l 169 889 l 169 957 m 157 189 q 189 97 157 142 q 296 53 221 53 q 413 86 361 53 q 500 163 465 119 l 500 333 l 310 333 q 196 290 235 333 q 157 189 157 247 m 119 633 q 226 676 158 660 q 335 692 293 692 q 518 631 450 692 q 586 472 586 571 l 586 0 l 529 0 l 504 72 q 415 10 472 39 q 299 -18 358 -18 q 128 42 185 -18 q 72 189 72 101 q 140 338 72 285 q 313 390 207 392 l 500 390 l 500 458 q 460 574 500 528 q 339 619 421 619 q 224 604 265 619 q 146 572 182 589 l 119 633 z "},"ă":{"ha":694,"x_min":72,"x_max":586,"o":"m 517 1015 q 474 891 517 946 q 336 835 432 836 q 199 891 240 836 q 157 1015 157 946 l 221 1015 q 251 939 221 976 q 336 901 281 901 q 422 939 393 901 q 451 1015 451 976 l 517 1015 m 157 189 q 189 97 157 142 q 296 53 221 53 q 413 86 361 53 q 500 163 465 119 l 500 333 l 310 333 q 196 290 235 333 q 157 189 157 247 m 119 633 q 226 676 158 660 q 335 692 293 692 q 518 631 450 692 q 586 472 586 571 l 586 0 l 529 0 l 504 72 q 415 10 472 39 q 299 -18 358 -18 q 128 42 185 -18 q 72 189 72 101 q 140 338 72 285 q 313 390 207 392 l 500 390 l 500 458 q 460 574 500 528 q 339 619 421 619 q 224 604 265 619 q 146 572 182 589 l 119 633 z "},"ą":{"ha":694,"x_min":72,"x_max":674,"o":"m 119 633 q 226 676 158 660 q 335 692 293 692 q 518 631 450 692 q 586 472 586 571 l 586 0 q 526 -66 557 -22 q 494 -149 494 -110 q 517 -206 494 -190 q 567 -222 539 -222 q 608 -215 589 -222 q 642 -193 626 -207 l 674 -246 q 625 -276 656 -264 q 560 -287 594 -287 q 458 -251 499 -287 q 417 -154 417 -214 q 449 -53 417 -103 q 519 25 481 -4 l 504 72 q 415 10 472 39 q 299 -18 358 -18 q 128 42 185 -18 q 72 189 72 101 q 140 338 72 285 q 313 390 207 392 l 500 390 l 500 458 q 460 574 500 528 q 339 619 421 619 q 224 604 265 619 q 146 572 182 589 l 119 633 m 157 189 q 189 97 157 142 q 296 53 221 53 q 413 86 361 53 q 500 163 465 119 l 500 333 l 310 333 q 196 290 235 333 q 157 189 157 247 z "},"ç":{"ha":643,"x_min":72,"x_max":579,"o":"m 544 101 l 572 39 q 492 4 538 18 q 404 -15 446 -10 l 382 -75 q 462 -114 429 -81 q 494 -183 494 -147 q 447 -277 494 -247 q 339 -307 399 -307 q 283 -299 313 -307 q 233 -281 253 -292 l 257 -222 q 292 -235 268 -228 q 339 -242 317 -242 q 391 -227 365 -242 q 417 -186 417 -212 q 381 -137 417 -157 q 294 -112 346 -118 l 331 -15 q 137 95 201 -3 q 72 340 72 193 q 151 592 74 492 q 378 692 229 692 q 478 676 418 692 q 579 633 539 660 l 551 572 q 481 604 517 589 q 374 619 446 619 q 212 540 263 619 q 160 342 161 460 q 206 136 160 218 q 367 54 253 54 q 474 69 440 54 q 544 101 508 83 z "},"ć":{"ha":643,"x_min":72,"x_max":579,"o":"m 390 1031 l 489 1031 l 371 818 l 306 818 l 390 1031 m 572 39 q 471 -3 531 13 q 368 -18 411 -18 q 146 83 219 -18 q 72 340 72 183 q 151 592 74 492 q 378 692 229 692 q 478 676 418 692 q 579 633 539 660 l 551 572 q 481 604 517 589 q 374 619 446 619 q 212 540 263 619 q 160 342 161 460 q 206 136 160 218 q 367 54 253 54 q 474 69 440 54 q 544 101 508 83 l 572 39 z "},"č":{"ha":643,"x_min":72,"x_max":579,"o":"m 186 1031 l 269 1031 l 374 881 l 478 1031 l 560 1031 l 414 818 l 332 818 l 186 1031 m 572 39 q 471 -3 531 13 q 368 -18 411 -18 q 146 83 219 -18 q 72 340 72 183 q 151 592 74 492 q 378 692 229 692 q 478 676 418 692 q 579 633 539 660 l 551 572 q 481 604 517 589 q 374 619 446 619 q 212 540 263 619 q 160 342 161 460 q 206 136 160 218 q 367 54 253 54 q 474 69 440 54 q 544 101 508 83 l 572 39 z "},"ď":{"ha":921,"x_min":72,"x_max":913,"o":"m 847 975 q 893 954 874 975 q 913 899 913 933 q 875 777 913 836 q 786 692 838 718 l 760 732 q 815 780 793 754 q 840 842 836 806 q 796 864 813 844 q 779 908 779 883 q 799 955 779 935 q 847 975 819 975 m 549 536 q 458 597 506 576 q 369 618 411 618 q 208 538 256 618 q 160 336 160 458 q 208 135 160 214 q 369 56 256 56 q 458 76 411 56 q 549 136 506 96 l 549 536 m 636 979 l 636 0 l 579 0 l 557 60 q 462 3 514 25 q 361 -18 410 -18 q 143 81 214 -18 q 72 335 72 181 q 143 591 72 490 q 361 692 214 692 q 458 670 407 692 q 549 617 508 649 l 549 967 l 636 979 z "},"è":{"ha":725,"x_min":72,"x_max":660,"o":"m 258 1031 l 357 1031 l 442 818 l 376 818 l 258 1031 m 660 332 l 160 332 q 216 131 161 211 q 396 51 271 51 q 515 66 469 51 q 594 99 560 81 l 624 35 q 511 -5 582 8 q 400 -18 440 -18 q 153 83 235 -18 q 72 340 72 183 q 151 592 74 492 q 378 692 229 692 q 593 589 526 692 q 660 332 660 486 m 572 392 q 518 555 563 490 q 374 619 474 619 q 223 555 274 619 q 163 392 172 490 l 572 392 z "},"é":{"ha":725,"x_min":72,"x_max":660,"o":"m 390 1031 l 489 1031 l 371 818 l 306 818 l 390 1031 m 660 332 l 160 332 q 216 131 161 211 q 396 51 271 51 q 515 66 469 51 q 594 99 560 81 l 624 35 q 511 -5 582 8 q 400 -18 440 -18 q 153 83 235 -18 q 72 340 72 183 q 151 592 74 492 q 378 692 229 692 q 593 589 526 692 q 660 332 660 486 m 572 392 q 518 555 563 490 q 374 619 474 619 q 223 555 274 619 q 163 392 172 490 l 572 392 z "},"ê":{"ha":725,"x_min":72,"x_max":660,"o":"m 272 818 l 186 818 l 335 1031 l 417 1031 l 563 818 l 478 818 l 376 969 l 272 818 m 660 332 l 160 332 q 216 131 161 211 q 396 51 271 51 q 515 66 469 51 q 594 99 560 81 l 624 35 q 511 -5 582 8 q 400 -18 440 -18 q 153 83 235 -18 q 72 340 72 183 q 151 592 74 492 q 378 692 229 692 q 593 589 526 692 q 660 332 660 486 m 572 392 q 518 555 563 490 q 374 619 474 619 q 223 555 274 619 q 163 392 172 490 l 572 392 z "},"ë":{"ha":725,"x_min":72,"x_max":660,"o":"m 486 978 q 528 960 511 978 q 546 919 546 943 q 528 876 546 893 q 486 858 511 858 q 442 876 460 858 q 424 919 424 893 q 442 960 424 943 q 486 978 460 978 m 267 978 q 311 960 293 978 q 329 919 329 943 q 311 876 329 893 q 267 858 293 858 q 225 876 242 858 q 208 919 208 893 q 225 960 208 943 q 267 978 242 978 m 660 332 l 160 332 q 216 131 161 211 q 396 51 271 51 q 515 66 469 51 q 594 99 560 81 l 624 35 q 511 -5 582 8 q 400 -18 440 -18 q 153 83 235 -18 q 72 340 72 183 q 151 592 74 492 q 378 692 229 692 q 593 589 526 692 q 660 332 660 486 m 572 392 q 518 555 563 490 q 374 619 474 619 q 223 555 274 619 q 163 392 172 490 l 572 392 z "},"ē":{"ha":725,"x_min":72,"x_max":660,"o":"m 208 957 l 543 957 l 543 889 l 208 889 l 208 957 m 660 332 l 160 332 q 216 131 161 211 q 396 51 271 51 q 515 66 469 51 q 594 99 560 81 l 624 35 q 511 -5 582 8 q 400 -18 440 -18 q 153 83 235 -18 q 72 340 72 183 q 151 592 74 492 q 378 692 229 692 q 593 589 526 692 q 660 332 660 486 m 572 392 q 518 555 563 490 q 374 619 474 619 q 223 555 274 619 q 163 392 172 490 l 572 392 z "},"ė":{"ha":725,"x_min":72,"x_max":660,"o":"m 376 992 q 422 972 403 992 q 442 925 442 951 q 422 878 442 897 q 376 858 403 858 q 329 878 349 858 q 310 925 310 897 q 329 972 310 951 q 376 992 349 992 m 660 332 l 160 332 q 216 131 161 211 q 396 51 271 51 q 515 66 469 51 q 594 99 560 81 l 624 35 q 511 -5 582 8 q 400 -18 440 -18 q 153 83 235 -18 q 72 340 72 183 q 151 592 74 492 q 378 692 229 692 q 593 589 526 692 q 660 332 660 486 m 572 392 q 518 555 563 490 q 374 619 474 619 q 223 555 274 619 q 163 392 172 490 l 572 392 z "},"ę":{"ha":725,"x_min":72,"x_max":660,"o":"m 660 332 l 160 332 q 216 131 161 211 q 396 51 271 51 q 515 66 469 51 q 594 99 560 81 l 624 35 q 583 15 606 25 q 535 0 560 6 q 471 -71 500 -26 q 442 -149 442 -115 q 465 -206 442 -190 q 514 -222 488 -222 q 555 -215 536 -222 q 588 -193 574 -207 l 621 -246 q 574 -276 603 -264 q 508 -287 544 -287 q 406 -251 447 -287 q 364 -154 364 -214 q 379 -83 364 -119 q 421 -17 394 -46 q 410 -18 415 -18 q 400 -18 404 -18 q 153 83 235 -18 q 72 340 72 183 q 151 592 74 492 q 378 692 229 692 q 593 589 526 692 q 660 332 660 486 m 572 392 q 518 555 563 490 q 374 619 474 619 q 223 555 274 619 q 163 392 172 490 l 572 392 z "},"ě":{"ha":725,"x_min":72,"x_max":660,"o":"m 186 1031 l 269 1031 l 374 881 l 478 1031 l 560 1031 l 414 818 l 332 818 l 186 1031 m 660 332 l 160 332 q 216 131 161 211 q 396 51 271 51 q 515 66 469 51 q 594 99 560 81 l 624 35 q 511 -5 582 8 q 400 -18 440 -18 q 153 83 235 -18 q 72 340 72 183 q 151 592 74 492 q 378 692 229 692 q 593 589 526 692 q 660 332 660 486 m 572 392 q 518 555 563 490 q 374 619 474 619 q 223 555 274 619 q 163 392 172 490 l 572 392 z "},"ğ":{"ha":753,"x_min":72,"x_max":636,"o":"m 540 1015 q 499 891 540 946 q 361 835 457 836 q 223 891 265 836 q 181 1015 181 946 l 246 1015 q 276 939 246 976 q 361 901 306 901 q 448 939 418 901 q 478 1015 478 976 l 540 1015 m 549 536 q 458 597 506 576 q 369 618 411 618 q 208 538 256 618 q 160 336 160 458 q 208 135 160 214 q 369 56 256 56 q 458 76 411 56 q 549 136 506 96 l 549 536 m 636 -74 q 566 -240 636 -174 q 364 -307 496 -307 q 256 -292 324 -307 q 149 -250 188 -276 l 175 -186 q 250 -218 210 -203 q 361 -235 290 -233 q 497 -195 446 -235 q 549 -72 549 -156 l 549 56 q 458 2 508 22 q 361 -18 407 -18 q 143 81 214 -18 q 72 335 72 181 q 143 591 72 490 q 361 692 214 692 q 462 669 410 692 q 556 611 514 646 l 579 674 l 636 674 l 636 -74 z "},"ì":{"ha":322,"x_min":21,"x_max":206,"o":"m 21 1031 l 121 1031 l 204 818 l 139 818 l 21 1031 m 118 0 l 118 674 l 206 674 l 206 0 l 118 0 z "},"í":{"ha":322,"x_min":118,"x_max":301,"o":"m 203 1031 l 301 1031 l 183 818 l 118 818 l 203 1031 m 118 0 l 118 674 l 206 674 l 206 0 l 118 0 z "},"î":{"ha":322,"x_min":-28,"x_max":350,"o":"m 57 818 l -28 818 l 121 1031 l 203 1031 l 350 818 l 264 818 l 163 969 l 57 818 m 118 0 l 118 674 l 206 674 l 206 0 l 118 0 z "},"ï":{"ha":322,"x_min":-8,"x_max":332,"o":"m 271 978 q 314 960 296 978 q 332 919 332 943 q 314 876 332 893 q 271 858 296 858 q 227 876 246 858 q 208 919 208 893 q 227 960 208 943 q 271 978 246 978 m 53 978 q 97 960 78 978 q 115 919 115 943 q 97 876 115 893 q 53 858 78 858 q 10 876 28 858 q -8 919 -8 893 q 10 960 -8 943 q 53 978 28 978 m 118 0 l 118 674 l 206 674 l 206 0 l 118 0 z "},"ī":{"ha":322,"x_min":-7,"x_max":329,"o":"m -7 957 l 329 957 l 329 889 l -7 889 l -7 957 m 118 0 l 118 674 l 206 674 l 206 0 l 118 0 z "},"į":{"ha":322,"x_min":33,"x_max":290,"o":"m 161 821 q 114 840 132 821 q 96 886 96 858 q 114 933 96 914 q 161 951 132 951 q 208 933 188 951 q 228 886 228 914 q 208 840 228 858 q 161 821 188 821 m 206 674 l 206 0 q 144 -66 175 -22 q 113 -149 113 -110 q 135 -206 113 -190 q 186 -222 157 -222 q 225 -215 207 -222 q 260 -193 243 -207 l 290 -246 q 242 -276 272 -264 q 176 -287 213 -287 q 75 -251 117 -287 q 33 -154 33 -214 q 59 -66 33 -110 q 118 8 85 -22 l 118 674 l 206 674 z "},"ľ":{"ha":488,"x_min":117,"x_max":479,"o":"m 117 0 l 117 967 l 203 981 l 203 0 l 117 0 m 413 975 q 460 954 440 975 q 479 899 479 933 q 442 777 479 836 q 351 692 404 718 l 326 732 q 382 780 360 754 q 406 842 404 806 q 363 864 379 844 q 347 908 347 883 q 367 955 347 935 q 413 975 386 975 z "},"ñ":{"ha":767,"x_min":117,"x_max":658,"o":"m 568 971 l 632 971 q 600 872 635 899 q 515 844 565 844 q 431 878 468 844 q 358 911 394 911 q 324 897 340 911 q 307 850 308 882 l 242 850 q 276 950 240 924 q 358 976 311 976 q 449 944 418 976 q 514 911 479 911 q 549 925 532 911 q 568 971 565 939 m 117 0 l 117 674 l 174 674 l 201 568 q 311 655 244 618 q 440 692 378 692 q 603 628 549 692 q 658 468 658 565 l 658 1 l 572 1 l 572 451 q 538 569 572 521 q 431 618 504 617 q 318 586 386 618 q 203 494 250 554 l 203 0 l 117 0 z "},"ń":{"ha":767,"x_min":117,"x_max":658,"o":"m 453 1031 l 553 1031 l 435 818 l 369 818 l 453 1031 m 117 0 l 117 674 l 174 674 l 201 568 q 311 655 244 618 q 440 692 378 692 q 603 628 549 692 q 658 468 658 565 l 658 1 l 572 1 l 572 451 q 538 569 572 521 q 431 618 504 617 q 318 586 386 618 q 203 494 250 554 l 203 0 l 117 0 z "},"ň":{"ha":767,"x_min":117,"x_max":658,"o":"m 250 1031 l 333 1031 l 439 881 l 540 1031 l 626 1031 l 478 818 l 397 818 l 250 1031 m 117 0 l 117 674 l 174 674 l 201 568 q 311 655 244 618 q 440 692 378 692 q 603 628 549 692 q 658 468 658 565 l 658 1 l 572 1 l 572 451 q 538 569 572 521 q 431 618 504 617 q 318 586 386 618 q 203 494 250 554 l 203 0 l 117 0 z "},"ò":{"ha":733,"x_min":72,"x_max":660,"o":"m 253 1031 l 351 1031 l 435 818 l 369 818 l 253 1031 m 357 -18 q 142 85 211 -17 q 72 340 72 188 q 150 590 74 489 q 371 692 226 690 q 590 590 519 692 q 660 332 660 488 q 581 81 658 179 q 357 -18 503 -18 m 575 332 q 531 535 575 453 q 374 618 488 618 q 212 539 263 618 q 160 342 161 460 q 203 137 160 218 q 358 56 246 56 q 522 133 471 56 q 575 332 574 211 z "},"ó":{"ha":733,"x_min":72,"x_max":660,"o":"m 383 1031 l 483 1031 l 364 818 l 300 818 l 383 1031 m 357 -18 q 142 85 211 -17 q 72 340 72 188 q 150 590 74 489 q 371 692 226 690 q 590 590 519 692 q 660 332 660 488 q 581 81 658 179 q 357 -18 503 -18 m 575 332 q 531 535 575 453 q 374 618 488 618 q 212 539 263 618 q 160 342 161 460 q 203 137 160 218 q 358 56 246 56 q 522 133 471 56 q 575 332 574 211 z "},"ô":{"ha":733,"x_min":72,"x_max":660,"o":"m 265 818 l 182 818 l 329 1031 l 410 1031 l 558 818 l 472 818 l 369 969 l 265 818 m 357 -18 q 142 85 211 -17 q 72 340 72 188 q 150 590 74 489 q 371 692 226 690 q 590 590 519 692 q 660 332 660 488 q 581 81 658 179 q 357 -18 503 -18 m 575 332 q 531 535 575 453 q 374 618 488 618 q 212 539 263 618 q 160 342 161 460 q 203 137 160 218 q 358 56 246 56 q 522 133 471 56 q 575 332 574 211 z "},"õ":{"ha":733,"x_min":72,"x_max":660,"o":"m 497 971 l 563 971 q 529 872 564 899 q 446 844 494 844 q 363 878 399 844 q 290 911 326 911 q 256 897 272 911 q 238 850 239 882 l 171 850 q 205 950 169 924 q 288 976 240 976 q 378 944 347 976 q 446 911 410 911 q 479 925 463 911 q 497 971 496 939 m 357 -18 q 142 85 211 -17 q 72 340 72 188 q 150 590 74 489 q 371 692 226 690 q 590 590 519 692 q 660 332 660 488 q 581 81 658 179 q 357 -18 503 -18 m 575 332 q 531 535 575 453 q 374 618 488 618 q 212 539 263 618 q 160 342 161 460 q 203 137 160 218 q 358 56 246 56 q 522 133 471 56 q 575 332 574 211 z "},"ö":{"ha":733,"x_min":72,"x_max":660,"o":"m 479 978 q 523 960 506 978 q 540 919 540 943 q 523 876 540 893 q 479 858 506 858 q 437 876 454 858 q 419 919 419 893 q 437 960 419 943 q 479 978 454 978 m 263 978 q 305 960 288 978 q 322 919 322 943 q 305 876 322 893 q 263 858 288 858 q 219 876 236 858 q 201 919 201 893 q 219 960 201 943 q 263 978 236 978 m 357 -18 q 142 85 211 -17 q 72 340 72 188 q 150 590 74 489 q 371 692 226 690 q 590 590 519 692 q 660 332 660 488 q 581 81 658 179 q 357 -18 503 -18 m 575 332 q 531 535 575 453 q 374 618 488 618 q 212 539 263 618 q 160 342 161 460 q 203 137 160 218 q 358 56 246 56 q 522 133 471 56 q 575 332 574 211 z "},"ō":{"ha":733,"x_min":72,"x_max":660,"o":"m 203 957 l 538 957 l 538 889 l 203 889 l 203 957 m 357 -18 q 142 85 211 -17 q 72 340 72 188 q 150 590 74 489 q 371 692 226 690 q 590 590 519 692 q 660 332 660 488 q 581 81 658 179 q 357 -18 503 -18 m 575 332 q 531 535 575 453 q 374 618 488 618 q 212 539 263 618 q 160 342 161 460 q 203 137 160 218 q 358 56 246 56 q 522 133 471 56 q 575 332 574 211 z "},"ő":{"ha":733,"x_min":72,"x_max":660,"o":"m 478 1031 l 574 1031 l 456 818 l 394 818 l 478 1031 m 306 1031 l 401 1031 l 283 818 l 222 818 l 306 1031 m 357 -18 q 142 85 211 -17 q 72 340 72 188 q 150 590 74 489 q 371 692 226 690 q 590 590 519 692 q 660 332 660 488 q 581 81 658 179 q 357 -18 503 -18 m 575 332 q 531 535 575 453 q 374 618 488 618 q 212 539 263 618 q 160 342 161 460 q 203 137 160 218 q 358 56 246 56 q 522 133 471 56 q 575 332 574 211 z "},"ŕ":{"ha":446,"x_min":117,"x_max":429,"o":"m 274 1031 l 374 1031 l 257 818 l 192 818 l 274 1031 m 117 0 l 117 674 l 174 674 l 199 581 q 294 642 235 611 q 406 674 353 674 l 429 606 q 303 572 365 606 q 203 494 242 538 l 203 0 l 117 0 z "},"ř":{"ha":446,"x_min":33,"x_max":429,"o":"m 33 1031 l 118 1031 l 222 881 l 325 1031 l 410 1031 l 263 818 l 181 818 l 33 1031 m 117 0 l 117 674 l 174 674 l 199 581 q 294 642 235 611 q 406 674 353 674 l 429 606 q 303 572 365 606 q 203 494 242 538 l 203 0 l 117 0 z "},"ś":{"ha":626,"x_min":72,"x_max":554,"o":"m 335 1031 l 432 1031 l 315 818 l 251 818 l 335 1031 m 106 101 q 190 69 142 83 q 290 54 238 54 q 421 81 374 54 q 468 165 468 108 q 415 249 468 214 q 290 310 363 285 q 142 381 211 336 q 72 506 72 426 q 139 642 72 593 q 319 692 206 692 q 425 676 363 692 q 522 636 488 661 l 494 572 q 423 603 467 586 q 317 619 379 619 q 203 590 246 619 q 160 511 160 560 q 210 434 161 464 q 329 381 258 404 q 483 302 411 351 q 554 172 554 253 q 485 33 554 83 q 288 -18 417 -18 q 181 -5 246 -18 q 78 35 117 8 l 106 101 z "},"š":{"ha":626,"x_min":72,"x_max":554,"o":"m 129 1031 l 214 1031 l 318 881 l 422 1031 l 506 1031 l 358 818 l 276 818 l 129 1031 m 106 101 q 190 69 142 83 q 290 54 238 54 q 421 81 374 54 q 468 165 468 108 q 415 249 468 214 q 290 310 363 285 q 142 381 211 336 q 72 506 72 426 q 139 642 72 593 q 319 692 206 692 q 425 676 363 692 q 522 636 488 661 l 494 572 q 423 603 467 586 q 317 619 379 619 q 203 590 246 619 q 160 511 160 560 q 210 434 161 464 q 329 381 258 404 q 483 302 411 351 q 554 172 554 253 q 485 33 554 83 q 288 -18 417 -18 q 181 -5 246 -18 q 78 35 117 8 l 106 101 z "},"ť":{"ha":596,"x_min":29,"x_max":589,"o":"m 524 975 q 569 954 550 975 q 589 899 589 933 q 552 777 589 836 q 461 692 515 718 l 436 732 q 492 780 469 754 q 515 842 514 806 q 472 864 489 844 q 456 908 456 883 q 476 955 456 935 q 524 975 496 975 m 368 594 l 217 594 l 217 171 q 238 89 217 121 q 311 57 260 57 q 344 62 326 57 q 368 69 361 67 l 385 -1 q 347 -11 371 -4 q 293 -18 322 -18 q 174 28 219 -18 q 129 161 129 74 l 129 594 l 31 594 l 29 660 l 129 660 l 129 835 l 217 865 l 217 660 l 339 660 l 368 594 z "},"ù":{"ha":738,"x_min":108,"x_max":622,"o":"m 247 1031 l 344 1031 l 429 818 l 364 818 l 247 1031 m 622 674 l 622 0 l 564 0 l 538 76 q 438 10 494 38 q 328 -17 382 -17 q 163 46 217 -17 q 108 208 108 108 l 108 674 l 194 674 l 194 221 q 229 105 194 153 q 335 57 264 57 q 431 80 374 57 q 536 149 488 103 l 536 674 l 622 674 z "},"ú":{"ha":738,"x_min":108,"x_max":622,"o":"m 378 1031 l 478 1031 l 358 818 l 296 818 l 378 1031 m 622 674 l 622 0 l 564 0 l 538 76 q 438 10 494 38 q 328 -17 382 -17 q 163 46 217 -17 q 108 208 108 108 l 108 674 l 194 674 l 194 221 q 229 105 194 153 q 335 57 264 57 q 431 80 374 57 q 536 149 488 103 l 536 674 l 622 674 z "},"û":{"ha":738,"x_min":108,"x_max":622,"o":"m 261 818 l 176 818 l 322 1031 l 404 1031 l 551 818 l 468 818 l 364 969 l 261 818 m 622 674 l 622 0 l 564 0 l 538 76 q 438 10 494 38 q 328 -17 382 -17 q 163 46 217 -17 q 108 208 108 108 l 108 674 l 194 674 l 194 221 q 229 105 194 153 q 335 57 264 57 q 431 80 374 57 q 536 149 488 103 l 536 674 l 622 674 z "},"ü":{"ha":738,"x_min":108,"x_max":622,"o":"m 474 978 q 517 960 500 978 q 535 919 535 943 q 517 876 535 893 q 474 858 500 858 q 431 876 450 858 q 413 919 413 893 q 431 960 413 943 q 474 978 450 978 m 257 978 q 299 960 282 978 q 317 919 317 943 q 299 876 317 893 q 257 858 282 858 q 213 876 231 858 q 194 919 194 893 q 213 960 194 943 q 257 978 231 978 m 622 674 l 622 0 l 564 0 l 538 76 q 438 10 494 38 q 328 -17 382 -17 q 163 46 217 -17 q 108 208 108 108 l 108 674 l 194 674 l 194 221 q 229 105 194 153 q 335 57 264 57 q 431 80 374 57 q 536 149 488 103 l 536 674 l 622 674 z "},"ū":{"ha":738,"x_min":108,"x_max":622,"o":"m 196 957 l 533 957 l 533 889 l 196 889 l 196 957 m 622 674 l 622 0 l 564 0 l 538 76 q 438 10 494 38 q 328 -17 382 -17 q 163 46 217 -17 q 108 208 108 108 l 108 674 l 194 674 l 194 221 q 229 105 194 153 q 335 57 264 57 q 431 80 374 57 q 536 149 488 103 l 536 674 l 622 674 z "},"ů":{"ha":738,"x_min":108,"x_max":622,"o":"m 364 1054 q 450 1021 413 1054 q 488 938 488 988 q 450 857 488 889 q 364 825 413 825 q 277 857 314 825 q 240 938 240 889 q 277 1021 240 988 q 364 1054 314 1054 m 364 879 q 408 896 390 879 q 425 938 425 913 q 408 981 425 964 q 364 999 390 999 q 322 981 340 999 q 304 938 304 964 q 322 896 304 913 q 364 879 340 879 m 622 674 l 622 0 l 564 0 l 538 76 q 438 10 494 38 q 328 -17 382 -17 q 163 46 217 -17 q 108 208 108 108 l 108 674 l 194 674 l 194 221 q 229 105 194 153 q 335 57 264 57 q 431 80 374 57 q 536 149 488 103 l 536 674 l 622 674 z "},"ű":{"ha":738,"x_min":108,"x_max":622,"o":"m 471 1031 l 568 1031 l 450 818 l 388 818 l 471 1031 m 300 1031 l 396 1031 l 276 818 l 215 818 l 300 1031 m 622 674 l 622 0 l 564 0 l 538 76 q 438 10 494 38 q 328 -17 382 -17 q 163 46 217 -17 q 108 208 108 108 l 108 674 l 194 674 l 194 221 q 229 105 194 153 q 335 57 264 57 q 431 80 374 57 q 536 149 488 103 l 536 674 l 622 674 z "},"ų":{"ha":738,"x_min":108,"x_max":708,"o":"m 622 674 l 622 0 q 560 -66 592 -22 q 529 -149 529 -110 q 551 -206 529 -190 q 603 -222 574 -222 q 642 -215 624 -222 q 675 -193 660 -207 l 708 -246 q 660 -276 690 -264 q 594 -287 631 -287 q 493 -251 535 -287 q 451 -154 451 -214 q 484 -53 451 -103 q 554 25 517 -4 l 538 76 q 438 10 494 38 q 328 -17 382 -17 q 163 46 217 -17 q 108 208 108 108 l 108 674 l 194 674 l 194 221 q 229 105 194 153 q 335 57 264 57 q 431 80 374 57 q 536 149 488 103 l 536 674 l 622 674 z "},"ý":{"ha":651,"x_min":29,"x_max":624,"o":"m 349 1031 l 447 1031 l 329 818 l 264 818 l 349 1031 m 251 -136 l 296 -10 l 29 660 l 111 674 l 332 115 l 540 674 l 624 674 l 438 163 l 328 -156 q 258 -251 307 -212 q 143 -304 210 -290 l 119 -249 q 202 -204 171 -225 q 251 -136 233 -183 z "},"ÿ":{"ha":651,"x_min":29,"x_max":624,"o":"m 446 978 q 487 960 469 978 q 504 919 504 943 q 487 876 504 893 q 446 858 469 858 q 401 876 419 858 q 383 919 383 893 q 401 960 383 943 q 446 978 419 978 m 226 978 q 269 960 253 978 q 286 919 286 943 q 269 876 286 893 q 226 858 253 858 q 184 876 201 858 q 167 919 167 893 q 184 960 167 943 q 226 978 201 978 m 251 -136 l 296 -10 l 29 660 l 111 674 l 332 115 l 540 674 l 624 674 l 438 163 l 328 -156 q 258 -251 307 -212 q 143 -304 210 -290 l 119 -249 q 202 -204 171 -225 q 251 -136 233 -183 z "},"ź":{"ha":656,"x_min":58,"x_max":594,"o":"m 383 1031 l 481 1031 l 363 818 l 299 818 l 383 1031 m 594 629 l 171 67 l 572 67 l 586 0 l 69 0 l 58 43 l 476 606 l 121 606 l 99 674 l 590 674 l 594 629 z "},"ż":{"ha":656,"x_min":58,"x_max":594,"o":"m 361 992 q 409 972 390 992 q 428 925 428 951 q 409 878 428 897 q 361 858 390 858 q 315 878 333 858 q 296 925 296 897 q 315 972 296 951 q 361 992 333 992 m 594 629 l 171 67 l 572 67 l 586 0 l 69 0 l 58 43 l 476 606 l 121 606 l 99 674 l 590 674 l 594 629 z "},"ž":{"ha":656,"x_min":58,"x_max":594,"o":"m 169 1031 l 256 1031 l 358 881 l 461 1031 l 547 1031 l 400 818 l 318 818 l 169 1031 m 594 629 l 171 67 l 572 67 l 586 0 l 69 0 l 58 43 l 476 606 l 121 606 l 99 674 l 590 674 l 594 629 z "},"ş":{"ha":626,"x_min":72,"x_max":554,"o":"m 106 101 q 190 69 142 83 q 290 54 238 54 q 421 81 374 54 q 468 165 468 108 q 415 249 468 214 q 290 310 363 285 q 142 381 211 336 q 72 506 72 426 q 139 642 72 593 q 319 692 206 692 q 425 676 363 692 q 522 636 488 661 l 494 572 q 423 603 467 586 q 317 619 379 619 q 203 590 246 619 q 160 511 160 560 q 210 434 161 464 q 329 381 258 404 q 483 302 411 351 q 554 172 554 253 q 494 40 554 89 q 322 -17 435 -10 l 300 -75 q 378 -114 346 -81 q 411 -183 411 -147 q 364 -277 411 -247 q 257 -307 317 -307 q 201 -299 231 -307 q 153 -281 171 -292 l 175 -222 q 211 -235 188 -228 q 257 -242 235 -242 q 310 -227 285 -242 q 335 -186 335 -212 q 299 -137 335 -157 q 213 -112 264 -118 l 250 -15 q 158 1 208 -11 q 78 35 108 14 l 106 101 z "},"ķ":{"ha":669,"x_min":117,"x_max":647,"o":"m 117 0 l 117 967 l 203 981 l 203 369 l 515 692 l 569 640 l 358 424 l 647 0 l 543 0 l 303 367 l 203 264 l 203 0 l 117 0 m 354 -29 q 402 -49 382 -29 q 422 -104 422 -69 q 383 -226 422 -167 q 293 -312 344 -286 l 267 -271 q 322 -223 300 -249 q 349 -161 344 -197 q 304 -139 321 -158 q 288 -96 288 -119 q 308 -49 288 -68 q 354 -29 328 -29 z "},"ļ":{"ha":319,"x_min":72,"x_max":225,"o":"m 117 0 l 117 967 l 203 981 l 203 0 l 117 0 m 160 -29 q 206 -49 186 -29 q 225 -104 225 -69 q 188 -226 225 -167 q 99 -312 150 -286 l 72 -271 q 128 -223 107 -249 q 153 -161 150 -197 q 110 -139 126 -158 q 93 -96 93 -119 q 112 -49 93 -68 q 160 -29 131 -29 z "},"ņ":{"ha":767,"x_min":117,"x_max":658,"o":"m 117 0 l 117 674 l 174 674 l 201 568 q 311 655 244 618 q 440 692 378 692 q 603 628 549 692 q 658 468 658 565 l 658 1 l 572 1 l 572 451 q 538 569 572 521 q 431 618 504 617 q 318 586 386 618 q 203 494 250 554 l 203 0 l 117 0 m 382 -29 q 429 -49 410 -29 q 449 -104 449 -69 q 410 -226 449 -167 q 319 -312 372 -286 l 296 -271 q 350 -223 328 -249 q 375 -161 372 -197 q 331 -139 349 -158 q 314 -96 314 -119 q 334 -49 314 -68 q 382 -29 354 -29 z "},"ŗ":{"ha":446,"x_min":75,"x_max":429,"o":"m 117 0 l 117 674 l 174 674 l 199 581 q 294 642 235 611 q 406 674 353 674 l 429 606 q 303 572 365 606 q 203 494 242 538 l 203 0 l 117 0 m 163 -29 q 208 -49 189 -29 q 228 -104 228 -69 q 190 -226 228 -167 q 99 -312 151 -286 l 75 -271 q 129 -223 107 -249 q 154 -161 151 -197 q 112 -139 128 -158 q 96 -96 96 -119 q 115 -49 96 -68 q 163 -29 133 -29 z "},"ţ":{"ha":429,"x_min":29,"x_max":400,"o":"m 368 594 l 217 594 l 217 171 q 238 89 217 121 q 311 57 260 57 q 344 62 326 57 q 368 69 361 67 l 385 -1 q 353 -9 374 -3 q 310 -17 333 -15 l 288 -75 q 367 -114 335 -81 q 400 -183 400 -147 q 352 -277 400 -247 q 244 -307 304 -307 q 189 -299 218 -307 q 140 -281 160 -292 l 164 -222 q 198 -235 174 -228 q 244 -242 222 -242 q 297 -227 271 -242 q 322 -186 322 -212 q 287 -137 322 -157 q 200 -112 251 -118 l 239 -11 q 158 47 188 3 q 129 161 129 90 l 129 594 l 31 594 l 29 660 l 129 660 l 129 835 l 217 865 l 217 660 l 339 660 l 368 594 z "},"ș":{"ha":626,"x_min":72,"x_max":554,"o":"m 106 101 q 190 69 142 83 q 290 54 238 54 q 421 81 374 54 q 468 165 468 108 q 415 249 468 214 q 290 310 363 285 q 142 381 211 336 q 72 506 72 426 q 139 642 72 593 q 319 692 206 692 q 425 676 363 692 q 522 636 488 661 l 494 572 q 423 603 467 586 q 317 619 379 619 q 203 590 246 619 q 160 511 160 560 q 210 434 161 464 q 329 381 258 404 q 483 302 411 351 q 554 172 554 253 q 485 33 554 83 q 288 -18 417 -18 q 181 -5 246 -18 q 78 35 117 8 l 106 101 m 310 -29 q 357 -49 338 -29 q 376 -104 376 -69 q 338 -226 376 -167 q 249 -312 300 -286 l 222 -271 q 278 -223 256 -249 q 303 -161 300 -197 q 258 -139 275 -158 q 242 -96 242 -119 q 262 -49 242 -68 q 310 -29 282 -29 z "},"ț":{"ha":429,"x_min":29,"x_max":385,"o":"m 368 594 l 217 594 l 217 171 q 238 89 217 121 q 311 57 260 57 q 344 62 326 57 q 368 69 361 67 l 385 -1 q 347 -11 371 -4 q 293 -18 322 -18 q 174 28 219 -18 q 129 161 129 74 l 129 594 l 31 594 l 29 660 l 129 660 l 129 835 l 217 865 l 217 660 l 339 660 l 368 594 m 275 -29 q 322 -49 303 -29 q 342 -104 342 -69 q 303 -226 342 -167 q 214 -312 265 -286 l 188 -271 q 243 -223 221 -249 q 267 -161 265 -197 q 224 -139 240 -158 q 208 -96 208 -119 q 228 -49 208 -68 q 275 -29 249 -29 z "},"­":{"ha":182,"x_min":0,"x_max":0,"o":""},"µ":{"ha":744,"x_min":117,"x_max":629,"o":"m 117 -304 l 117 674 l 203 674 l 203 221 q 237 105 203 153 q 342 57 271 57 q 438 80 381 57 q 542 149 494 103 l 542 674 l 629 674 l 629 0 l 572 0 l 546 76 q 445 10 503 38 q 335 -17 388 -17 q 261 -8 294 -17 q 203 18 228 0 l 203 -289 l 117 -304 z "},"ˉ":{"ha":378,"x_min":22,"x_max":357,"o":"m 22 957 l 357 957 l 357 889 l 22 889 l 22 957 z "},"ℓ":{"ha":533,"x_min":43,"x_max":474,"o":"m 63 257 l 43 321 q 90 358 65 339 q 138 400 114 378 l 138 786 q 186 926 138 876 q 311 975 235 975 q 428 928 382 975 q 474 797 474 881 q 400 588 474 701 q 225 381 326 475 l 225 221 q 241 105 225 153 q 328 57 257 57 q 370 63 347 57 q 421 81 393 69 l 450 28 q 390 -6 425 4 q 319 -17 356 -17 q 174 46 210 -17 q 138 208 138 108 l 138 310 q 100 281 119 294 q 63 257 81 267 m 386 794 q 365 879 386 856 q 311 903 343 903 q 252 878 279 901 q 225 786 225 854 l 225 486 q 338 639 290 558 q 386 794 386 719 z "},"Ω":{"ha":1074,"x_min":101,"x_max":974,"o":"m 881 469 q 783 770 881 651 q 538 889 686 889 q 291 770 389 889 q 193 469 193 651 q 244 236 193 357 q 375 69 294 115 l 382 0 l 110 0 l 101 69 l 267 69 q 146 240 190 128 q 101 468 101 351 q 217 819 101 675 q 538 967 333 963 q 858 819 742 963 q 974 468 974 675 q 929 240 974 351 q 807 69 885 128 l 974 69 l 965 0 l 692 0 l 699 69 q 830 236 779 115 q 881 469 881 357 z "},"∆":{"ha":811,"x_min":8,"x_max":803,"o":"m 442 944 l 803 14 l 718 0 l 8 0 l 351 944 l 442 944 m 397 833 l 115 69 l 692 69 l 397 833 z "},"∕":{"ha":524,"x_min":8,"x_max":515,"o":"m 515 981 l 86 -6 l 8 0 l 436 986 l 515 981 z "},"∙":{"ha":286,"x_min":29,"x_max":257,"o":"m 143 340 q 63 374 96 340 q 29 453 29 407 q 63 534 29 500 q 143 568 96 568 q 224 534 190 568 q 257 453 257 500 q 224 374 257 407 q 143 340 190 340 z "},"₺":{"ha":714,"x_min":29,"x_max":669,"o":"m 510 636 l 235 540 l 235 71 q 469 188 357 71 q 582 460 582 306 l 669 460 q 533 136 669 272 q 235 0 396 0 l 149 0 l 149 510 l 40 471 l 29 533 l 149 576 l 149 650 l 40 613 l 29 675 l 149 717 l 149 967 l 235 981 l 235 747 l 497 840 l 510 779 l 235 682 l 235 606 l 497 699 l 510 636 z "},"₽":{"ha":810,"x_min":51,"x_max":738,"o":"m 631 218 l 240 218 l 240 0 l 153 0 l 153 218 l 58 218 l 51 282 l 153 282 l 153 367 l 53 367 l 53 440 l 153 440 l 153 944 l 397 944 q 642 879 546 944 q 738 660 738 814 q 633 437 736 507 q 383 367 531 367 l 240 367 l 240 282 l 624 282 l 631 218 m 400 871 l 240 871 l 240 440 l 385 440 q 574 490 497 440 q 651 658 650 540 q 583 826 651 781 q 400 871 514 871 z "},"¢":{"ha":643,"x_min":72,"x_max":579,"o":"m 413 840 l 413 689 q 501 669 454 683 q 579 633 547 656 l 551 572 q 481 604 517 589 q 374 619 446 619 q 212 540 263 619 q 160 342 161 460 q 206 136 160 218 q 367 54 253 54 q 474 69 440 54 q 544 101 508 83 l 572 39 q 498 4 542 18 q 413 -14 454 -10 l 413 -154 l 349 -149 l 349 -18 q 142 91 211 -10 q 72 340 72 192 q 144 582 74 485 q 349 690 215 679 l 349 840 l 413 840 z "},"£":{"ha":607,"x_min":72,"x_max":581,"o":"m 261 757 l 261 522 l 450 522 l 481 458 l 261 458 l 261 214 q 249 131 261 167 q 214 69 236 94 l 572 69 l 581 0 l 86 0 l 79 69 l 83 69 q 153 103 133 71 q 174 185 174 135 l 174 458 l 75 458 l 72 522 l 174 522 l 174 757 q 219 897 174 844 q 338 950 264 950 q 390 943 365 950 q 429 932 415 936 l 413 858 q 388 868 406 863 q 357 874 371 874 q 283 841 304 874 q 261 757 261 808 z "},"¤":{"ha":926,"x_min":43,"x_max":882,"o":"m 43 -25 l 186 121 q 141 222 157 165 q 125 340 125 278 q 142 452 125 400 q 189 547 160 504 l 43 696 l 90 754 l 240 604 q 342 667 285 643 q 468 692 400 690 q 591 669 535 692 q 690 607 647 646 l 835 754 l 882 696 l 739 549 q 785 451 769 506 q 801 332 801 396 q 783 220 800 272 q 738 125 767 168 l 882 -25 l 835 -82 l 686 68 q 581 4 642 26 q 451 -18 521 -18 q 333 5 388 -17 q 236 65 278 26 l 90 -82 l 43 -25 m 714 332 q 649 535 714 453 q 469 618 585 618 q 286 539 358 618 q 213 342 214 460 q 278 137 213 218 q 456 56 343 56 q 640 133 567 56 q 714 332 713 211 z "},"¥":{"ha":760,"x_min":8,"x_max":753,"o":"m 333 0 l 333 108 l 88 108 l 76 176 l 335 176 l 335 360 l 88 360 l 76 429 l 310 429 l 8 929 l 99 944 l 378 467 l 660 944 l 753 944 l 444 429 l 672 429 l 685 360 l 422 360 l 422 176 l 672 176 l 685 108 l 421 108 l 421 0 l 333 0 z "},"€":{"ha":808,"x_min":43,"x_max":765,"o":"m 651 310 l 282 310 q 367 128 304 200 q 551 57 431 57 q 653 69 611 57 q 731 99 694 82 l 764 32 q 673 -4 725 11 q 556 -19 621 -19 q 298 75 382 -19 q 190 310 214 169 l 56 310 l 43 379 l 182 379 q 178 422 179 400 q 176 467 176 444 q 178 515 176 490 q 183 563 181 540 l 56 563 l 43 631 l 193 631 q 312 870 222 776 q 563 964 401 964 q 674 951 621 964 q 765 913 726 939 l 738 849 q 662 878 694 867 q 565 889 629 889 q 382 818 451 889 q 286 631 313 747 l 640 631 l 651 563 l 274 563 q 270 516 272 540 q 268 468 268 492 q 269 423 268 446 q 272 379 271 400 l 640 379 l 651 310 z "},"$":{"ha":740,"x_min":72,"x_max":674,"o":"m 471 1111 l 471 954 q 542 935 510 947 q 601 913 575 924 l 571 847 q 489 879 535 864 q 371 894 443 894 q 213 851 271 894 q 154 736 154 808 q 414 500 154 571 q 668 222 674 429 q 615 83 667 143 q 471 -3 564 24 l 471 -154 l 406 -149 l 406 -14 q 375 -17 392 -15 q 342 -18 358 -18 l 313 -18 l 313 -154 l 249 -154 l 249 -10 q 151 13 197 0 q 89 40 106 26 l 110 107 q 208 71 146 89 q 340 53 271 53 q 523 101 460 53 q 586 222 586 150 q 329 453 586 385 q 74 736 72 522 q 122 865 75 808 q 249 949 168 922 l 249 1111 l 313 1107 l 313 961 q 341 965 326 963 q 368 967 356 967 q 388 966 378 967 q 406 964 397 965 l 406 1111 l 471 1111 z "},",":{"ha":196,"x_min":22,"x_max":175,"o":"m 108 131 q 156 111 136 131 q 175 57 175 92 q 138 -65 175 -7 q 47 -150 100 -124 l 22 -110 q 78 -62 56 -87 q 101 1 100 -36 q 58 22 75 3 q 42 67 42 42 q 62 112 42 93 q 108 131 82 131 z "},".":{"ha":176,"x_min":22,"x_max":154,"o":"m 89 131 q 135 112 115 131 q 154 67 154 93 q 135 19 154 39 q 89 0 115 0 q 42 19 61 0 q 22 67 22 39 q 42 112 22 93 q 89 131 61 131 z "},"!":{"ha":308,"x_min":86,"x_max":219,"o":"m 206 975 l 183 272 l 125 301 l 103 975 l 206 975 m 154 131 q 201 112 182 131 q 219 67 219 93 q 201 19 219 39 q 154 0 182 0 q 107 19 128 0 q 86 67 86 39 q 107 112 86 93 q 154 131 128 131 z "},"¡":{"ha":308,"x_min":86,"x_max":219,"o":"m 154 840 q 106 860 126 840 q 86 908 86 881 q 106 955 86 935 q 154 975 126 975 q 200 955 181 975 q 219 908 219 935 q 200 860 219 881 q 154 840 181 840 m 103 0 l 125 701 l 183 674 l 206 0 l 103 0 z "},":":{"ha":176,"x_min":22,"x_max":154,"o":"m 88 493 q 42 513 61 493 q 22 558 22 532 q 42 606 22 585 q 88 626 61 626 q 135 606 115 626 q 154 558 154 585 q 135 513 154 532 q 88 493 115 493 m 88 50 q 42 69 61 50 q 22 117 22 89 q 42 164 22 144 q 88 183 61 183 q 135 164 115 183 q 154 117 154 144 q 135 69 154 89 q 88 50 115 50 z "},";":{"ha":199,"x_min":22,"x_max":176,"o":"m 110 493 q 63 513 82 493 q 43 558 43 532 q 63 606 43 585 q 110 626 82 626 q 157 606 138 626 q 176 558 176 585 q 157 513 176 532 q 110 493 138 493 m 108 183 q 156 163 136 183 q 175 106 175 142 q 138 -15 175 44 q 47 -100 100 -75 l 22 -60 q 78 -11 56 -37 q 101 51 100 15 q 58 72 75 54 q 42 117 42 90 q 62 164 42 144 q 108 183 82 183 z "},"?":{"ha":549,"x_min":22,"x_max":528,"o":"m 267 975 q 466 911 404 975 q 528 747 528 847 q 460 590 528 668 q 276 461 392 513 l 265 193 l 201 218 l 190 504 q 368 603 299 539 q 438 746 438 667 q 394 865 438 829 q 264 900 351 900 q 138 877 189 900 q 33 815 88 854 l 22 890 q 131 950 78 925 q 267 975 185 975 m 232 131 q 279 112 260 131 q 299 67 299 93 q 279 19 299 39 q 232 0 260 0 q 185 19 204 0 q 167 67 167 39 q 185 112 167 93 q 232 131 204 131 z "},"¿":{"ha":572,"x_min":43,"x_max":549,"o":"m 339 729 q 292 749 313 729 q 272 797 272 769 q 292 844 272 824 q 339 864 313 864 q 386 844 367 864 q 406 797 406 824 q 386 749 406 769 q 339 729 367 729 m 304 -111 q 104 -48 165 -111 q 43 114 43 15 q 111 272 43 193 q 296 403 179 351 l 306 671 l 369 644 l 381 358 q 203 260 272 324 q 135 117 135 196 q 177 -1 135 33 q 307 -36 219 -36 q 433 -13 382 -36 q 538 49 483 10 l 549 -29 q 441 -87 496 -64 q 304 -111 386 -111 z "},"*":{"ha":458,"x_min":8,"x_max":451,"o":"m 264 915 l 433 951 l 451 897 l 281 864 l 400 692 l 351 656 l 231 819 l 108 656 l 58 692 l 179 864 l 8 897 l 25 951 l 194 915 l 196 1075 l 263 1075 l 264 915 z "},"\"":{"ha":372,"x_min":8,"x_max":364,"o":"m 299 975 q 344 954 325 975 q 364 899 364 933 q 326 777 364 836 q 238 692 289 718 l 213 732 q 267 780 246 754 q 292 842 289 806 q 249 864 265 844 q 232 908 232 883 q 251 955 232 935 q 299 975 271 975 m 96 975 q 142 954 122 975 q 161 899 161 933 q 123 777 161 836 q 33 692 85 718 l 8 732 q 62 780 40 754 q 86 842 83 806 q 44 864 60 844 q 28 908 28 883 q 47 955 28 935 q 96 975 67 975 z "},"'":{"ha":168,"x_min":8,"x_max":161,"o":"m 96 975 q 142 954 122 975 q 161 899 161 933 q 123 777 161 836 q 33 692 85 718 l 8 732 q 62 780 40 754 q 86 842 83 806 q 44 864 60 844 q 28 908 28 883 q 47 955 28 935 q 96 975 67 975 z "},"‘":{"ha":168,"x_min":8,"x_max":161,"o":"m 74 692 q 26 712 44 692 q 8 767 8 732 q 46 889 8 829 q 135 975 83 949 l 161 932 q 105 885 128 911 q 79 824 82 860 q 124 801 108 821 q 140 757 140 782 q 121 711 140 731 q 74 692 101 692 z "},"’":{"ha":168,"x_min":8,"x_max":161,"o":"m 96 975 q 142 954 122 975 q 161 899 161 933 q 123 777 161 836 q 33 692 85 718 l 8 732 q 62 780 40 754 q 86 842 83 806 q 44 864 60 844 q 28 908 28 883 q 47 955 28 935 q 96 975 67 975 z "},"‚":{"ha":168,"x_min":8,"x_max":161,"o":"m 96 131 q 142 111 122 131 q 161 57 161 92 q 123 -65 161 -7 q 33 -150 85 -124 l 8 -110 q 62 -62 40 -87 q 86 1 83 -36 q 44 22 60 3 q 28 67 28 42 q 47 112 28 93 q 96 131 67 131 z "},"“":{"ha":372,"x_min":8,"x_max":364,"o":"m 74 692 q 26 712 44 692 q 8 767 8 732 q 46 889 8 829 q 135 975 83 949 l 161 932 q 105 885 128 911 q 79 824 82 860 q 124 801 108 821 q 140 757 140 782 q 121 711 140 731 q 74 692 101 692 m 276 692 q 231 712 250 692 q 213 767 213 732 q 250 889 213 829 q 340 975 288 949 l 364 932 q 309 885 331 911 q 286 824 288 860 q 328 801 313 821 q 344 757 344 782 q 324 711 344 731 q 276 692 304 692 z "},"”":{"ha":372,"x_min":8,"x_max":364,"o":"m 299 975 q 344 954 325 975 q 364 899 364 933 q 326 777 364 836 q 238 692 289 718 l 213 732 q 267 780 246 754 q 292 842 289 806 q 249 864 265 844 q 232 908 232 883 q 251 955 232 935 q 299 975 271 975 m 96 975 q 142 954 122 975 q 161 899 161 933 q 123 777 161 836 q 33 692 85 718 l 8 732 q 62 780 40 754 q 86 842 83 806 q 44 864 60 844 q 28 908 28 883 q 47 955 28 935 q 96 975 67 975 z "},"„":{"ha":372,"x_min":8,"x_max":364,"o":"m 96 132 q 142 112 122 132 q 161 57 161 92 q 123 -65 161 -6 q 33 -150 85 -124 l 8 -108 q 62 -60 40 -86 q 86 1 83 -35 q 44 22 60 3 q 28 67 28 42 q 47 113 28 94 q 96 132 67 132 m 299 131 q 344 111 325 131 q 364 57 364 92 q 326 -65 364 -7 q 238 -150 289 -124 l 213 -110 q 267 -62 246 -87 q 292 1 289 -36 q 249 22 265 3 q 232 67 232 42 q 251 112 232 93 q 299 131 271 131 z "},"·":{"ha":176,"x_min":22,"x_max":154,"o":"m 89 429 q 135 410 115 429 q 154 364 154 392 q 135 317 154 338 q 89 297 115 297 q 42 317 61 297 q 22 364 22 338 q 42 410 22 392 q 89 429 61 429 z "},"(":{"ha":332,"x_min":72,"x_max":310,"o":"m 238 -51 q 111 197 150 61 q 72 444 72 333 q 111 690 72 554 q 238 938 150 826 l 310 913 q 204 697 249 847 q 160 446 160 546 q 204 191 160 344 q 310 -26 249 38 l 238 -51 z "},")":{"ha":332,"x_min":22,"x_max":260,"o":"m 94 938 q 219 690 179 826 q 260 444 260 554 q 219 197 260 333 q 94 -51 179 61 l 22 -26 q 127 190 82 38 q 172 443 172 343 q 127 695 172 543 q 22 913 82 847 l 94 938 z "},"[":{"ha":351,"x_min":117,"x_max":343,"o":"m 117 967 l 343 967 l 332 904 l 196 904 l 196 -61 l 332 -61 l 343 -122 l 117 -122 l 117 967 z "},"]":{"ha":351,"x_min":8,"x_max":233,"o":"m 233 -122 l 8 -122 l 19 -61 l 154 -61 l 154 904 l 19 904 l 8 967 l 233 967 l 233 -122 z "},"{":{"ha":378,"x_min":43,"x_max":356,"o":"m 222 778 q 249 679 222 740 q 275 582 275 618 q 254 484 275 521 q 186 432 233 447 q 252 374 229 414 q 275 276 275 333 q 249 177 275 238 q 222 81 222 117 q 247 27 222 50 q 322 4 271 4 l 349 4 l 356 -58 l 319 -58 q 190 -19 232 -58 q 147 89 147 21 q 172 188 147 132 q 197 288 197 244 q 164 370 197 340 q 89 400 131 400 l 43 400 l 43 456 l 89 456 q 164 487 131 456 q 197 569 197 518 q 172 669 197 613 q 147 769 147 726 q 190 876 147 836 q 319 915 232 915 l 356 915 l 349 853 l 322 853 q 247 830 271 853 q 222 778 222 807 z "},"}":{"ha":378,"x_min":22,"x_max":333,"o":"m 154 81 q 128 177 154 117 q 101 276 101 238 q 124 373 101 336 q 193 425 146 410 q 125 483 149 443 q 101 582 101 524 q 128 679 101 618 q 154 778 154 740 q 130 830 154 807 q 56 853 106 853 l 29 853 l 22 915 l 57 915 q 188 876 146 915 q 231 769 231 836 q 205 669 231 726 q 179 569 179 613 q 213 488 179 518 q 288 457 246 457 l 333 457 l 333 403 l 288 403 q 213 372 246 403 q 179 288 179 340 q 205 188 179 244 q 231 89 231 132 q 188 -19 231 21 q 57 -58 146 -58 l 22 -58 l 29 4 l 56 4 q 130 27 106 4 q 154 81 154 50 z "},"/":{"ha":524,"x_min":8,"x_max":515,"o":"m 515 981 l 86 -6 l 8 0 l 436 986 l 515 981 z "},"\\":{"ha":524,"x_min":8,"x_max":515,"o":"m 436 -6 l 8 981 l 88 986 l 515 0 l 436 -6 z "},"|":{"ha":378,"x_min":146,"x_max":232,"o":"m 232 981 l 232 -6 l 146 0 l 146 986 l 232 981 z "},"¦":{"ha":378,"x_min":146,"x_max":232,"o":"m 232 981 l 232 564 l 146 569 l 146 986 l 232 981 m 232 400 l 232 -6 l 146 0 l 146 406 l 232 400 z "},"«":{"ha":494,"x_min":43,"x_max":478,"o":"m 254 371 l 449 564 l 478 507 l 321 340 l 478 174 l 449 117 l 254 310 l 254 371 m 43 371 l 238 564 l 267 507 l 111 340 l 267 174 l 238 117 l 43 310 l 43 371 z "},"»":{"ha":494,"x_min":14,"x_max":450,"o":"m 46 564 l 240 371 l 240 310 l 46 117 l 14 174 l 171 340 l 14 507 l 46 564 m 257 564 l 450 371 l 450 310 l 257 117 l 225 174 l 383 340 l 225 507 l 257 564 z "},"π":{"ha":806,"x_min":22,"x_max":785,"o":"m 160 0 l 160 604 l 22 604 l 22 674 l 785 674 l 785 604 l 646 604 l 646 0 l 558 0 l 558 604 l 247 604 l 247 0 l 160 0 z "},"†":{"ha":478,"x_min":22,"x_max":457,"o":"m 286 1083 l 286 868 l 431 868 l 457 801 l 286 801 l 272 -6 l 208 0 l 194 801 l 49 801 l 22 868 l 194 868 l 194 1088 l 286 1083 z "},"‡":{"ha":525,"x_min":43,"x_max":482,"o":"m 214 -8 l 221 258 l 69 258 l 43 326 l 217 326 l 221 742 l 69 742 l 43 811 l 224 811 l 217 1088 l 311 1083 l 304 811 l 456 811 l 482 742 l 308 742 l 304 326 l 456 326 l 482 258 l 303 258 l 310 1 l 214 -8 z "},"•":{"ha":286,"x_min":29,"x_max":257,"o":"m 143 340 q 63 374 96 340 q 29 453 29 407 q 63 534 29 500 q 143 568 96 568 q 224 534 190 568 q 257 453 257 500 q 224 374 257 407 q 143 340 190 340 z "},"…":{"ha":571,"x_min":22,"x_max":549,"o":"m 486 125 q 531 107 513 125 q 549 63 549 89 q 531 18 549 36 q 486 0 513 0 q 441 18 460 0 q 422 63 422 36 q 441 107 422 89 q 486 125 460 125 m 289 125 q 333 107 315 125 q 351 63 351 89 q 333 18 351 36 q 289 0 315 0 q 244 18 263 0 q 225 63 225 36 q 244 107 225 89 q 289 125 263 125 m 85 125 q 129 107 111 125 q 147 63 147 89 q 129 18 147 36 q 85 0 111 0 q 40 18 58 0 q 22 63 22 36 q 40 107 22 89 q 85 125 58 125 z "},"‹":{"ha":283,"x_min":43,"x_max":267,"o":"m 43 374 l 238 567 l 267 504 l 115 340 l 267 176 l 238 115 l 43 307 l 43 374 z "},"›":{"ha":283,"x_min":14,"x_max":240,"o":"m 46 567 l 240 374 l 240 307 l 46 115 l 14 176 l 169 340 l 14 504 l 46 567 z "},"-":{"ha":400,"x_min":22,"x_max":378,"o":"m 378 344 l 33 344 l 22 414 l 367 414 l 378 344 z "},"_":{"ha":572,"x_min":22,"x_max":549,"o":"m 549 0 l 33 0 l 22 69 l 538 69 l 549 0 z "},"–":{"ha":572,"x_min":22,"x_max":549,"o":"m 549 344 l 33 344 l 22 414 l 538 414 l 549 344 z "},"—":{"ha":701,"x_min":22,"x_max":681,"o":"m 681 344 l 33 344 l 22 414 l 669 414 l 681 344 z "},"#":{"ha":667,"x_min":29,"x_max":636,"o":"m 581 697 l 536 515 l 626 515 l 636 447 l 518 447 l 475 264 l 626 264 l 636 194 l 458 194 l 413 1 l 344 8 l 389 194 l 199 194 l 153 1 l 83 8 l 128 194 l 40 194 l 29 264 l 144 264 l 188 447 l 40 447 l 29 515 l 206 515 l 249 697 l 319 697 l 275 515 l 465 515 l 508 697 l 581 697 m 260 447 l 215 264 l 404 264 l 449 447 l 260 447 z "},"%":{"ha":1156,"x_min":43,"x_max":1111,"o":"m 832 981 l 403 -6 l 322 0 l 750 986 l 832 981 m 260 975 q 417 913 357 975 q 476 739 476 851 q 415 567 476 631 q 261 504 353 504 q 103 565 163 504 q 43 739 43 626 q 106 911 43 847 q 260 975 168 975 m 260 904 q 172 867 214 904 q 131 739 131 829 q 170 614 131 653 q 261 575 210 575 q 347 612 306 575 q 389 739 389 649 q 350 865 389 826 q 260 904 311 904 m 896 469 q 1051 408 992 469 q 1111 235 1111 346 q 1049 63 1111 126 q 896 0 988 0 q 739 61 799 0 q 679 235 679 122 q 742 406 679 342 q 896 469 804 469 m 896 400 q 808 363 849 400 q 767 235 767 326 q 806 109 767 147 q 896 71 844 71 q 983 108 942 71 q 1024 235 1024 146 q 985 361 1024 322 q 896 400 946 400 z "},"+":{"ha":717,"x_min":29,"x_max":689,"o":"m 689 344 l 397 344 l 397 6 l 318 11 l 318 344 l 40 344 l 29 414 l 318 414 l 318 742 l 397 738 l 397 414 l 675 414 l 689 344 z "},"÷":{"ha":667,"x_min":29,"x_max":636,"o":"m 332 500 q 275 524 297 500 q 253 578 253 547 q 275 633 253 611 q 332 656 297 656 q 386 633 364 656 q 408 578 408 611 q 386 524 408 547 q 332 500 364 500 m 636 344 l 40 344 l 29 414 l 626 414 l 636 344 m 335 79 q 279 103 301 79 q 257 158 257 126 q 279 213 257 190 q 335 236 301 236 q 390 213 367 236 q 413 158 413 190 q 390 103 413 126 q 335 79 367 79 z "},"×":{"ha":651,"x_min":29,"x_max":624,"o":"m 29 57 l 267 347 l 39 631 l 121 644 l 322 392 l 536 644 l 624 644 l 368 335 l 601 43 l 514 43 l 313 290 l 108 43 l 29 57 z "},"±":{"ha":660,"x_min":29,"x_max":629,"o":"m 629 419 l 367 419 l 367 150 l 289 157 l 289 419 l 40 419 l 29 486 l 289 486 l 289 742 l 367 738 l 367 486 l 618 486 l 629 419 m 629 1 l 40 1 l 29 67 l 618 67 l 629 1 z "},"<":{"ha":436,"x_min":14,"x_max":392,"o":"m 360 26 l 14 307 l 14 374 l 360 653 l 392 592 l 92 340 l 392 89 l 360 26 z "},"=":{"ha":667,"x_min":29,"x_max":636,"o":"m 636 447 l 40 447 l 29 515 l 626 515 l 636 447 m 636 194 l 40 194 l 29 264 l 626 264 l 636 194 z "},">":{"ha":436,"x_min":43,"x_max":422,"o":"m 422 307 l 75 26 l 43 89 l 343 340 l 43 592 l 75 653 l 422 374 l 422 307 z "},"°":{"ha":340,"x_min":22,"x_max":318,"o":"m 169 975 q 274 933 231 975 q 318 832 318 892 q 274 731 318 769 q 169 692 231 692 q 66 731 110 692 q 22 832 22 769 q 66 933 22 892 q 169 975 110 975 m 169 747 q 230 772 204 747 q 256 832 256 797 q 230 891 256 867 q 169 915 204 915 q 110 891 133 915 q 86 832 86 867 q 110 772 86 797 q 169 747 133 747 z "},"¹":{"ha":446,"x_min":86,"x_max":374,"o":"m 374 467 l 96 467 l 86 526 l 196 526 l 196 972 l 121 921 l 89 972 l 222 1063 l 272 1063 l 272 526 l 364 526 l 374 467 z "},"²":{"ha":542,"x_min":43,"x_max":469,"o":"m 247 1071 q 405 1014 360 1071 q 450 899 450 957 q 412 788 450 840 q 297 668 374 735 l 132 526 l 461 526 l 469 467 l 43 467 l 43 526 l 260 715 q 351 822 328 778 q 374 899 374 867 q 344 973 374 938 q 244 1008 315 1008 q 150 983 192 1008 q 107 957 108 958 l 76 1018 q 127 1044 78 1018 q 247 1071 176 1071 z "},"³":{"ha":567,"x_min":43,"x_max":479,"o":"m 258 1071 q 415 1022 363 1071 q 467 904 467 972 q 431 805 467 847 q 349 747 396 763 q 444 688 408 733 q 479 578 479 643 q 415 442 479 497 q 242 386 351 386 q 131 403 183 386 q 43 442 79 421 l 76 494 q 150 460 113 472 q 247 449 188 449 q 357 481 310 449 q 404 576 404 513 q 359 681 404 644 q 206 717 314 717 l 186 717 l 176 778 l 213 778 q 344 810 299 778 q 390 903 390 843 q 356 980 390 950 q 257 1010 321 1010 q 155 992 197 1010 q 86 957 113 974 l 56 1010 q 146 1053 97 1036 q 258 1071 194 1071 z "},"¼":{"ha":1022,"x_min":86,"x_max":978,"o":"m 374 467 l 96 467 l 86 526 l 196 526 l 196 972 l 121 921 l 89 972 l 222 1063 l 272 1063 l 272 526 l 364 526 l 374 467 m 707 692 l 304 -6 l 228 0 l 631 696 l 707 692 m 972 -104 l 871 -104 l 871 -226 l 799 -226 l 799 -104 l 475 -104 l 468 -47 l 468 -43 l 469 -43 l 821 446 l 871 446 l 871 -43 l 978 -43 l 972 -104 m 549 -43 l 799 -43 l 799 306 l 549 -43 z "},"½":{"ha":1074,"x_min":86,"x_max":1001,"o":"m 374 467 l 96 467 l 86 526 l 196 526 l 196 972 l 121 921 l 89 972 l 222 1063 l 272 1063 l 272 526 l 364 526 l 374 467 m 692 692 l 288 -6 l 214 0 l 617 696 l 692 692 m 779 453 q 937 396 892 453 q 982 281 982 339 q 944 169 982 222 q 831 50 906 115 l 665 -93 l 993 -93 l 1001 -153 l 576 -153 l 576 -93 l 790 99 q 882 203 858 158 q 906 281 906 247 q 876 355 906 319 q 778 390 847 390 q 683 365 725 390 q 640 339 642 340 l 610 400 q 660 426 611 400 q 779 453 708 453 z "},"¾":{"ha":1113,"x_min":43,"x_max":1069,"o":"m 797 692 l 393 -6 l 318 0 l 721 696 l 797 692 m 258 1071 q 415 1022 363 1071 q 467 904 467 972 q 431 805 467 847 q 349 747 396 763 q 444 688 408 733 q 479 578 479 643 q 415 442 479 497 q 242 386 351 386 q 131 403 183 386 q 43 442 79 421 l 76 494 q 150 460 113 472 q 247 449 188 449 q 357 481 310 449 q 404 576 404 513 q 359 681 404 644 q 206 717 314 717 l 186 717 l 176 778 l 213 778 q 344 810 299 778 q 390 903 390 843 q 356 980 390 950 q 257 1010 321 1010 q 155 992 197 1010 q 86 957 113 974 l 56 1010 q 146 1053 97 1036 q 258 1071 194 1071 m 1064 -104 l 961 -104 l 961 -226 l 889 -226 l 889 -104 l 565 -104 l 557 -47 l 557 -43 l 560 -43 l 911 446 l 961 446 l 961 -43 l 1069 -43 l 1064 -104 m 640 -43 l 889 -43 l 889 306 l 640 -43 z "},"℮":{"ha":725,"x_min":72,"x_max":660,"o":"m 660 332 l 160 332 q 216 131 161 211 q 396 51 271 51 q 515 66 469 51 q 594 99 560 81 l 624 35 q 511 -5 582 8 q 400 -18 440 -18 q 153 83 235 -18 q 72 340 72 183 q 151 592 74 492 q 378 692 229 692 q 593 589 526 692 q 660 332 660 486 m 572 392 q 518 555 563 490 q 374 619 474 619 q 223 555 274 619 q 163 392 172 490 l 572 392 z "},"∂":{"ha":750,"x_min":72,"x_max":663,"o":"m 72 283 q 147 473 72 389 q 350 557 221 557 q 471 530 415 557 q 565 464 526 503 q 457 701 543 593 q 243 838 371 808 l 281 889 q 560 690 457 853 q 663 375 663 528 q 572 94 663 188 q 349 0 482 0 q 149 88 225 0 q 72 283 72 175 m 160 275 q 211 135 160 196 q 351 74 263 74 q 516 150 463 74 q 574 356 569 226 q 484 442 543 406 q 350 479 425 479 q 210 419 261 479 q 160 275 160 358 z "},"∏":{"ha":810,"x_min":117,"x_max":693,"o":"m 117 944 l 693 944 l 693 0 l 613 0 l 613 883 l 196 883 l 196 0 l 117 0 l 117 944 z "},"∑":{"ha":654,"x_min":58,"x_max":596,"o":"m 567 882 l 146 882 l 413 500 l 413 458 l 146 69 l 589 69 l 596 0 l 58 0 l 58 69 l 343 479 l 58 882 l 58 944 l 558 944 l 567 882 z "},"−":{"ha":624,"x_min":22,"x_max":601,"o":"m 601 344 l 33 344 l 22 414 l 588 414 l 601 344 z "},"√":{"ha":731,"x_min":8,"x_max":722,"o":"m 722 981 l 322 -6 l 238 0 l 8 440 l 92 446 l 283 83 l 647 986 l 722 981 z "},"∞":{"ha":1207,"x_min":86,"x_max":1119,"o":"m 358 636 q 503 592 439 636 q 614 481 567 547 q 707 590 653 544 q 844 636 761 636 q 1044 559 969 636 q 1119 358 1119 482 q 1045 151 1119 236 q 847 67 971 67 q 703 110 768 67 q 588 225 639 153 q 498 114 551 161 q 361 67 444 67 q 161 143 236 67 q 86 343 86 219 q 161 551 86 465 q 358 636 236 636 m 844 563 q 712 492 760 563 q 643 347 664 421 q 633 319 638 333 q 625 292 629 306 q 714 185 660 228 q 843 140 768 142 q 987 205 936 139 q 1038 361 1038 271 q 987 502 1038 442 q 844 563 936 563 m 564 356 l 582 410 q 492 517 547 475 q 363 561 436 560 q 220 497 271 563 q 169 340 169 431 q 220 200 169 260 q 361 140 271 140 q 496 211 449 140 q 564 356 543 282 z "},"∫":{"ha":451,"x_min":14,"x_max":439,"o":"m 269 896 l 269 -56 q 225 -196 269 -143 q 106 -249 181 -249 q 53 -242 79 -249 q 14 -232 28 -236 l 31 -158 q 56 -166 39 -162 q 88 -169 74 -169 q 162 -137 140 -169 q 183 -57 183 -106 l 183 896 q 228 1036 183 985 q 346 1088 272 1088 q 399 1082 374 1088 q 439 1071 425 1076 l 422 999 q 395 1007 413 1001 q 364 1013 378 1013 q 291 980 313 1013 q 269 896 269 947 z "},"≈":{"ha":653,"x_min":21,"x_max":632,"o":"m 565 533 l 631 517 q 572 426 632 446 q 464 406 513 406 q 326 437 417 406 q 176 468 236 468 q 124 456 158 468 q 86 413 89 444 l 24 428 q 84 519 21 500 q 196 539 147 539 q 344 508 256 539 q 485 478 432 478 q 533 490 503 478 q 565 533 564 501 m 565 293 l 631 276 q 572 186 632 206 q 464 167 513 167 q 326 198 417 167 q 176 229 236 229 q 124 217 158 229 q 86 174 89 204 l 24 188 q 84 281 21 261 q 196 300 147 300 q 344 269 256 300 q 485 238 432 238 q 533 249 503 238 q 565 293 564 261 z "},"≠":{"ha":651,"x_min":22,"x_max":629,"o":"m 517 718 l 428 515 l 618 515 l 629 447 l 397 447 l 315 264 l 618 264 l 629 194 l 286 194 l 189 -21 l 115 -14 l 208 194 l 33 194 l 22 264 l 239 264 l 319 447 l 33 447 l 22 515 l 351 515 l 443 722 l 517 718 z "},"≤":{"ha":436,"x_min":14,"x_max":392,"o":"m 360 143 l 14 364 l 14 431 l 360 653 l 392 592 l 92 400 l 392 206 l 360 143 m 388 0 l 26 0 l 14 69 l 378 69 l 388 0 z "},"≥":{"ha":436,"x_min":43,"x_max":422,"o":"m 422 364 l 75 143 l 43 206 l 343 400 l 43 592 l 75 653 l 422 431 l 422 364 m 417 0 l 56 0 l 43 69 l 406 69 l 417 0 z "},"‰":{"ha":1667,"x_min":43,"x_max":1624,"o":"m 832 981 l 403 -6 l 322 0 l 750 986 l 832 981 m 260 975 q 417 913 357 975 q 476 739 476 851 q 415 567 476 631 q 261 504 353 504 q 103 565 163 504 q 43 739 43 626 q 106 911 43 847 q 260 975 168 975 m 260 904 q 172 867 214 904 q 131 739 131 829 q 170 614 131 653 q 261 575 210 575 q 347 612 306 575 q 389 739 389 649 q 350 865 389 826 q 260 904 311 904 m 1407 469 q 1565 408 1506 469 q 1624 235 1624 346 q 1562 63 1624 126 q 1408 0 1500 0 q 1251 61 1310 0 q 1192 235 1192 122 q 1253 406 1192 342 q 1407 469 1315 469 m 896 469 q 1051 408 992 469 q 1111 235 1111 346 q 1049 63 1111 126 q 896 0 988 0 q 739 61 799 0 q 679 235 679 122 q 742 406 679 342 q 896 469 804 469 m 1407 400 q 1320 363 1363 400 q 1278 235 1278 326 q 1317 109 1278 147 q 1408 71 1357 71 q 1496 108 1454 71 q 1538 235 1538 146 q 1498 361 1538 322 q 1407 400 1458 400 m 896 400 q 808 363 849 400 q 767 235 767 326 q 806 109 767 147 q 896 71 844 71 q 983 108 942 71 q 1024 235 1024 146 q 985 361 1024 322 q 896 400 946 400 z "},"⁄":{"ha":524,"x_min":8,"x_max":515,"o":"m 515 981 l 86 -6 l 8 0 l 436 986 l 515 981 z "},"◊":{"ha":725,"x_min":43,"x_max":682,"o":"m 346 0 l 43 404 l 43 428 l 346 832 l 379 832 l 682 428 l 682 404 l 379 0 l 346 0 m 125 415 l 361 96 l 601 415 l 361 738 l 125 415 z "},"©":{"ha":1176,"x_min":86,"x_max":1088,"o":"m 1088 467 q 953 117 1088 261 q 588 -28 818 -28 q 222 117 357 -28 q 86 467 86 261 q 222 819 86 674 q 588 964 357 964 q 953 819 818 964 q 1088 467 1088 674 m 168 468 q 281 163 168 286 q 588 40 393 40 q 895 163 782 40 q 1008 468 1008 286 q 895 773 1008 650 q 588 896 782 896 q 281 773 393 896 q 168 468 168 650 m 808 206 q 708 163 768 178 q 604 147 647 147 q 383 241 456 147 q 310 475 310 335 q 388 705 310 613 q 613 797 465 797 q 716 783 656 797 q 815 740 776 768 l 788 678 q 718 710 753 696 q 610 725 683 725 q 447 653 499 725 q 396 478 396 582 q 442 286 396 354 q 604 218 489 218 q 710 233 675 218 q 781 265 746 247 l 808 206 z "},"®":{"ha":1025,"x_min":72,"x_max":954,"o":"m 954 676 q 835 368 954 494 q 514 242 717 242 q 191 368 310 242 q 72 676 72 494 q 191 987 72 860 q 514 1114 310 1114 q 835 987 717 1114 q 954 676 954 860 m 147 678 q 244 414 147 519 q 514 307 342 308 q 781 414 683 308 q 879 678 879 519 q 781 944 879 839 q 514 1049 683 1049 q 244 944 342 1049 q 147 678 147 839 m 475 889 l 429 889 l 429 696 l 468 696 q 569 713 526 696 q 614 793 613 729 q 574 875 614 861 q 475 889 535 889 m 653 422 l 528 643 q 508 642 518 643 q 488 642 497 642 l 429 642 l 429 422 l 360 422 l 360 944 l 494 944 q 630 910 576 944 q 683 794 683 876 q 658 709 683 742 q 594 660 633 676 l 733 422 l 653 422 z "},"™":{"ha":1010,"x_min":14,"x_max":935,"o":"m 404 883 l 247 883 l 247 425 l 172 425 l 172 883 l 14 883 l 14 944 l 400 944 l 404 883 m 704 564 l 558 778 l 558 425 l 486 425 l 486 944 l 514 944 l 713 671 l 904 944 l 935 944 l 935 425 l 865 425 l 865 779 l 721 567 l 704 564 z "},"&":{"ha":946,"x_min":86,"x_max":896,"o":"m 682 160 l 383 431 q 332 479 357 457 q 288 521 307 501 q 203 429 232 490 q 172 290 174 368 q 256 111 172 168 q 439 54 339 54 q 579 81 518 54 q 682 160 640 108 m 786 471 l 850 446 q 829 292 846 363 q 781 164 813 221 l 896 57 l 856 0 l 740 104 q 617 15 692 47 q 439 -18 543 -18 q 188 60 290 -17 q 86 288 86 138 q 131 458 88 382 q 242 576 174 535 q 210 642 221 607 q 199 722 199 676 q 263 894 199 821 q 450 967 328 967 q 569 950 519 967 q 660 913 618 933 l 629 847 q 558 879 594 864 q 450 894 522 894 q 326 843 372 894 q 281 731 281 792 q 319 608 281 656 q 429 492 357 560 l 721 217 q 765 333 749 268 q 786 471 781 397 z "},"@":{"ha":1110,"x_min":72,"x_max":1036,"o":"m 771 533 l 738 254 q 760 176 732 196 q 818 156 789 156 q 922 224 882 156 q 961 413 961 293 q 865 661 961 564 q 607 758 769 758 q 294 634 429 758 q 158 297 158 510 q 267 24 158 124 q 531 -76 375 -76 q 652 -64 590 -76 q 757 -28 714 -51 l 779 -92 q 652 -135 721 -122 q 515 -149 583 -149 q 208 -26 344 -149 q 72 296 72 96 q 215 668 72 511 q 611 825 358 825 q 917 710 799 825 q 1036 422 1036 596 q 974 174 1036 257 q 807 90 911 90 q 744 102 774 90 q 694 139 714 114 q 633 106 669 121 q 560 92 597 92 q 390 148 444 92 q 335 293 335 204 q 428 493 335 418 q 643 568 522 568 l 742 568 l 771 533 m 558 156 q 622 166 593 156 q 668 194 650 176 q 665 226 665 208 q 667 264 664 244 l 699 510 l 636 510 q 483 451 549 510 q 418 293 418 393 q 450 200 418 244 q 558 156 482 156 z "},"^":{"ha":588,"x_min":22,"x_max":565,"o":"m 106 199 l 22 199 l 253 542 l 335 542 l 565 199 l 482 199 l 294 478 l 106 199 z "},"~":{"ha":494,"x_min":21,"x_max":472,"o":"m 471 403 q 433 303 472 331 q 340 276 393 276 q 242 310 293 276 q 154 343 190 343 q 108 329 128 343 q 86 285 89 315 l 24 285 q 60 383 21 356 q 154 410 100 410 q 258 376 213 410 q 339 343 303 343 q 385 357 365 343 q 406 403 404 371 l 471 403 z "},"§":{"ha":818,"x_min":72,"x_max":749,"o":"m 586 240 q 643 296 624 263 q 663 368 663 329 q 499 542 663 492 q 228 686 336 592 q 174 633 193 667 q 154 560 154 600 q 316 383 154 436 q 586 240 478 329 m 110 -39 q 208 -76 146 -57 q 340 -94 271 -94 q 523 -46 460 -94 q 586 76 586 3 q 329 291 586 238 q 74 558 72 344 q 103 663 75 615 q 179 740 131 710 q 157 792 165 764 q 149 853 149 821 q 230 1017 150 950 q 446 1083 310 1083 q 574 1067 514 1083 q 675 1031 635 1051 l 646 965 q 565 997 610 982 q 446 1013 519 1013 q 288 969 346 1013 q 231 854 231 926 q 490 632 231 688 q 743 368 749 576 q 715 262 742 310 q 638 183 688 214 q 660 133 651 160 q 668 75 669 107 q 581 -97 667 -29 q 342 -165 496 -165 q 197 -146 282 -165 q 89 -106 113 -126 l 110 -39 z "},"ª":{"ha":478,"x_min":58,"x_max":422,"o":"m 135 643 q 157 592 135 615 q 218 569 179 569 q 290 593 257 569 q 344 647 322 617 l 344 719 l 238 719 q 167 699 199 719 q 135 643 135 679 m 89 935 q 160 964 115 953 q 232 975 204 975 q 372 923 321 975 q 422 806 422 871 l 422 517 l 364 517 l 349 567 q 294 524 329 544 q 218 504 260 504 q 104 544 150 504 q 58 643 58 583 q 106 742 58 707 q 225 776 154 776 l 344 776 l 344 801 q 317 878 344 849 q 233 907 289 907 q 158 897 186 907 q 106 876 131 886 l 89 935 z "},"¬":{"ha":710,"x_min":22,"x_max":681,"o":"m 681 494 l 681 156 l 600 163 l 600 494 l 33 494 l 22 564 l 669 564 l 681 494 z "},"¶":{"ha":1149,"x_min":72,"x_max":1104,"o":"m 481 0 l 481 367 l 428 367 q 177 437 281 367 q 72 660 74 507 q 168 879 72 814 q 413 944 264 944 l 1104 944 l 1104 876 l 967 876 l 967 0 l 881 0 l 881 876 l 567 876 l 567 0 l 481 0 z "},"º":{"ha":549,"x_min":58,"x_max":492,"o":"m 274 975 q 431 913 371 975 q 492 739 492 851 q 428 567 492 631 q 274 504 365 504 q 118 565 178 504 q 58 739 58 626 q 120 911 58 847 q 274 975 182 975 m 274 906 q 185 867 229 906 q 142 739 142 829 q 183 613 142 653 q 274 572 225 572 q 363 610 319 572 q 406 739 406 649 q 365 866 406 826 q 274 906 325 906 z "},"":{"ha":0,"x_min":24,"x_max":581,"o":"m 581 1175 l 517 1132 q 423 1250 476 1211 q 303 1289 369 1289 q 180 1250 235 1289 q 86 1132 125 1211 l 24 1175 q 141 1312 71 1267 q 303 1357 211 1357 q 462 1312 392 1357 q 581 1175 532 1267 m 304 1068 q 253 1089 274 1068 q 232 1140 232 1110 q 253 1192 232 1171 q 304 1214 274 1214 q 356 1192 335 1214 q 378 1140 378 1171 q 356 1089 378 1110 q 304 1068 335 1068 z "},"ँ":{"ha":0,"x_min":24,"x_max":581,"o":"m 304 1214 q 253 1235 274 1214 q 232 1285 232 1256 q 253 1336 232 1315 q 304 1357 274 1357 q 356 1336 335 1357 q 378 1285 378 1315 q 356 1235 378 1256 q 304 1214 335 1214 m 517 1292 l 581 1253 q 462 1115 532 1161 q 303 1068 392 1068 q 141 1115 211 1068 q 24 1253 71 1161 l 86 1292 q 180 1175 125 1214 q 303 1136 235 1136 q 423 1175 369 1136 q 517 1292 476 1214 z "},"ं":{"ha":0,"x_min":24,"x_max":168,"o":"m 96 1040 q 44 1060 65 1040 q 24 1111 24 1081 q 44 1163 24 1142 q 96 1183 65 1183 q 147 1163 126 1183 q 168 1111 168 1142 q 147 1060 168 1081 q 96 1040 126 1040 z "},"ः":{"ha":193,"x_min":24,"x_max":168,"o":"m 96 582 q 44 603 65 582 q 24 653 24 624 q 44 706 24 683 q 96 728 65 728 q 147 706 126 728 q 168 653 168 683 q 147 603 168 624 q 96 582 126 582 m 96 101 q 44 122 65 101 q 24 174 24 143 q 44 225 24 204 q 96 246 65 246 q 147 225 126 246 q 168 174 168 204 q 147 122 168 143 q 96 101 126 101 z "},"ऄ":{"ha":1197,"x_min":96,"x_max":1214,"o":"m 675 249 q 594 55 675 132 q 357 -22 514 -22 q 206 2 274 -22 q 96 57 139 26 l 113 138 q 224 78 160 101 q 361 56 289 56 q 515 104 453 56 q 576 246 576 153 q 518 397 576 342 q 303 451 460 451 l 215 451 l 186 519 l 313 519 q 497 575 438 519 q 556 714 556 631 q 513 835 556 783 q 376 886 471 886 q 242 860 306 886 q 125 793 178 835 l 113 874 q 229 937 157 910 q 381 964 301 964 q 592 889 531 964 q 654 718 654 814 q 620 603 654 656 q 532 521 586 551 l 932 521 l 932 869 l 767 869 l 744 944 l 932 944 l 932 968 q 898 1056 932 1021 q 794 1090 864 1090 l 768 1090 q 594 1145 660 1092 q 529 1286 529 1199 l 529 1307 l 618 1286 q 658 1202 618 1233 q 761 1171 699 1171 l 788 1171 q 961 1110 896 1169 q 1026 968 1026 1051 l 1026 944 l 1192 944 l 1214 869 l 1026 869 l 1026 -22 l 932 0 l 932 450 l 551 450 q 642 367 610 417 q 675 249 675 317 z "},"अ":{"ha":1197,"x_min":96,"x_max":1214,"o":"m 675 249 q 594 55 675 132 q 357 -22 514 -22 q 206 2 274 -22 q 96 57 139 26 l 113 138 q 224 78 160 101 q 361 56 289 56 q 515 104 453 56 q 576 246 576 153 q 518 397 576 342 q 303 451 460 451 l 215 451 l 186 519 l 313 519 q 497 575 438 519 q 556 714 556 631 q 513 835 556 783 q 376 886 471 886 q 242 860 306 886 q 125 793 178 835 l 113 874 q 229 937 157 910 q 381 964 301 964 q 592 889 531 964 q 654 718 654 814 q 620 603 654 656 q 532 521 586 551 l 932 521 l 932 869 l 767 869 l 744 944 l 1192 944 l 1214 869 l 1026 869 l 1026 -22 l 932 0 l 932 450 l 551 450 q 642 367 610 417 q 675 249 675 317 z "},"आ":{"ha":1581,"x_min":96,"x_max":1596,"o":"m 932 0 l 932 450 l 551 450 q 642 367 610 417 q 675 249 675 317 q 594 55 675 132 q 357 -22 514 -22 q 206 2 274 -22 q 96 57 139 26 l 113 138 q 224 78 160 101 q 361 56 289 56 q 515 104 453 56 q 576 246 576 153 q 518 397 576 342 q 303 451 460 451 l 215 451 l 186 519 l 313 519 q 497 575 438 519 q 556 714 556 631 q 513 835 556 783 q 376 886 471 886 q 242 860 306 886 q 125 793 178 835 l 113 874 q 229 937 157 910 q 381 964 301 964 q 592 889 531 964 q 654 718 654 814 q 620 603 654 656 q 532 521 586 551 l 932 521 l 932 869 l 767 869 l 744 944 l 1576 944 l 1596 869 l 1411 869 l 1411 -22 l 1315 0 l 1315 869 l 1026 869 l 1026 -22 l 932 0 z "},"इ":{"ha":736,"x_min":-15,"x_max":750,"o":"m 254 69 q 317 56 285 61 q 379 51 349 51 q 524 91 465 51 q 582 200 582 131 q 536 308 582 265 q 419 351 490 351 l 288 351 q 140 404 207 351 q 72 533 72 457 q 134 666 72 617 q 285 715 196 715 l 506 715 l 506 869 l 4 869 l -15 944 l 731 944 l 750 869 l 601 869 l 601 636 l 285 636 q 199 606 231 636 q 167 533 167 576 q 200 458 167 488 q 288 429 233 429 l 407 429 q 606 370 535 429 q 678 199 678 311 q 600 40 678 107 q 379 -26 522 -26 q 331 -24 356 -26 q 282 -18 306 -22 l 422 -194 l 361 -239 l 183 -11 q 104 43 144 6 q 64 129 64 81 q 79 165 64 151 q 118 178 94 178 q 203 146 165 178 q 254 69 240 114 z "},"ई":{"ha":736,"x_min":-15,"x_max":750,"o":"m 254 69 q 317 56 285 61 q 379 51 349 51 q 524 91 465 51 q 582 200 582 131 q 536 309 582 267 q 419 351 490 351 l 288 351 q 140 404 207 351 q 72 533 72 457 q 134 666 72 617 q 285 715 196 715 l 506 715 l 506 869 l 4 869 l -15 944 l 493 944 q 428 1033 456 975 q 400 1140 400 1092 q 447 1273 400 1214 q 578 1332 494 1332 q 674 1316 636 1332 q 729 1286 711 1300 l 696 1228 q 648 1250 672 1239 q 586 1261 624 1261 q 512 1220 539 1261 q 485 1133 485 1179 q 518 1024 485 1078 q 586 944 551 971 l 731 944 l 750 869 l 601 869 l 601 636 l 285 636 q 199 606 231 636 q 167 533 167 576 q 200 458 167 488 q 288 429 233 429 l 407 429 q 606 370 535 429 q 678 199 678 311 q 600 40 678 107 q 379 -26 522 -26 q 331 -24 356 -26 q 282 -18 306 -22 l 422 -194 l 361 -239 l 183 -11 q 104 43 144 6 q 64 129 64 81 q 79 165 64 151 q 118 178 94 178 q 203 146 165 178 q 254 69 240 114 z "},"उ":{"ha":754,"x_min":-15,"x_max":769,"o":"m 671 249 q 590 55 671 132 q 354 -22 510 -22 q 202 2 269 -22 q 90 57 135 26 l 108 138 q 222 78 157 101 q 358 56 286 56 q 510 104 449 56 q 572 246 572 153 q 514 397 572 342 q 299 451 456 451 l 211 451 l 182 519 l 310 519 q 492 575 433 519 q 551 714 551 631 q 527 808 551 765 q 456 869 503 850 l 4 869 l -15 944 l 749 944 l 769 869 l 592 869 q 635 799 618 840 q 651 718 651 757 q 609 586 651 656 q 479 490 567 517 q 630 389 589 461 q 671 249 671 317 z "},"ऊ":{"ha":1178,"x_min":-15,"x_max":1194,"o":"m 671 249 q 590 55 671 132 q 354 -22 510 -22 q 202 2 269 -22 q 90 57 135 26 l 108 138 q 222 78 157 101 q 358 56 286 56 q 510 104 449 56 q 572 246 572 153 q 514 397 572 342 q 299 451 456 451 l 211 451 l 182 519 l 310 519 q 492 575 433 519 q 551 714 551 631 q 527 808 551 765 q 456 869 503 850 l 4 869 l -15 944 l 1174 944 l 1194 869 l 592 869 q 635 799 618 840 q 651 718 651 757 q 609 586 651 656 q 479 490 567 517 q 553 464 522 479 q 606 426 583 449 q 703 501 639 464 q 857 538 768 538 q 1076 456 994 538 q 1157 254 1157 375 q 1069 47 1157 122 q 869 -28 981 -28 l 854 51 q 995 108 939 51 q 1051 256 1051 164 q 996 402 1051 346 q 860 458 940 458 q 732 426 783 458 q 650 357 681 393 q 666 301 661 331 q 671 249 671 272 z "},"ऋ":{"ha":1246,"x_min":-15,"x_max":1263,"o":"m 818 121 q 871 108 849 111 q 928 106 893 106 q 1019 147 975 106 q 1064 283 1064 189 q 1037 403 1064 349 q 963 517 1010 458 q 863 430 938 475 q 692 385 788 385 l 638 385 l 638 -22 l 543 0 l 543 349 l 172 150 l 124 215 l 519 429 q 356 569 424 544 q 229 594 289 594 q 167 582 203 594 q 101 556 132 569 l 67 631 q 148 658 96 646 q 225 669 200 669 q 375 648 293 669 q 543 510 457 626 l 543 869 l 4 869 l -15 944 l 1240 944 l 1263 869 l 638 869 l 638 460 l 665 460 q 835 503 778 460 q 914 582 893 547 q 888 617 900 593 q 876 672 876 642 q 893 713 876 699 q 942 728 910 728 q 1021 702 983 728 q 1058 633 1058 676 q 1051 599 1058 617 q 1022 564 1043 582 q 1122 414 1090 503 q 1153 272 1153 325 q 1097 101 1153 175 q 928 28 1042 28 q 860 32 888 28 q 797 49 832 36 l 818 121 z "},"ऌ":{"ha":1211,"x_min":-15,"x_max":1226,"o":"m 842 0 q 878 -87 842 -53 q 975 -121 914 -121 q 1015 -117 997 -121 q 1054 -106 1032 -112 l 1068 -176 q 1016 -188 1043 -183 q 960 -193 989 -193 q 818 -142 883 -193 q 753 0 753 -90 q 815 138 753 88 q 947 193 876 188 l 947 385 q 908 531 947 475 q 792 586 869 586 q 678 527 717 586 q 640 376 640 468 l 640 217 l 544 244 l 544 376 q 504 526 544 468 q 376 583 464 583 q 262 535 308 583 q 215 425 215 486 q 256 227 215 315 q 364 1 296 139 l 286 -25 q 172 206 224 97 q 121 435 121 314 q 197 596 121 525 q 376 667 272 667 q 501 638 446 667 q 590 557 557 608 q 675 638 622 610 q 793 667 728 667 q 878 653 840 667 q 947 614 917 639 l 947 869 l 4 869 l -15 944 l 1206 944 l 1226 869 l 1042 869 l 1042 121 l 975 121 q 878 87 914 121 q 842 0 842 53 z "},"ऍ":{"ha":939,"x_min":-15,"x_max":954,"o":"m 699 1292 l 763 1253 q 645 1115 715 1161 q 486 1068 575 1068 q 324 1115 393 1068 q 208 1253 254 1161 l 269 1292 q 363 1175 308 1214 q 486 1136 418 1136 q 606 1175 553 1136 q 699 1292 660 1214 m 683 372 l 683 869 l 274 869 l 274 193 q 288 109 274 151 q 344 40 303 67 l 711 -187 l 661 -258 l 311 -50 q 215 41 250 -14 q 179 188 179 96 l 179 869 l 4 869 l -15 944 l 935 944 l 954 869 l 779 869 l 779 340 q 731 194 779 247 q 575 106 683 140 l 538 176 q 649 243 615 204 q 683 372 683 282 z "},"ऎ":{"ha":939,"x_min":-15,"x_max":954,"o":"m 394 1171 l 538 1171 q 713 1111 646 1171 q 779 968 779 1051 l 779 944 l 935 944 l 954 869 l 779 869 l 779 340 q 731 194 779 247 q 575 106 683 140 l 538 176 q 649 243 615 204 q 683 372 683 282 l 683 869 l 274 869 l 274 193 q 288 109 274 151 q 344 40 303 67 l 711 -187 l 661 -258 l 311 -50 q 215 41 250 -14 q 179 188 179 96 l 179 869 l 4 869 l -15 944 l 683 944 l 683 968 q 649 1056 683 1021 q 546 1090 614 1090 l 401 1090 q 228 1144 293 1090 q 163 1286 163 1199 l 163 1307 l 251 1286 q 292 1202 251 1233 q 394 1171 332 1171 z "},"ए":{"ha":939,"x_min":-15,"x_max":954,"o":"m 683 372 l 683 869 l 274 869 l 274 193 q 290 108 274 151 q 344 40 306 65 l 711 -187 l 661 -258 l 311 -50 q 215 41 250 -14 q 179 188 179 96 l 179 869 l 4 869 l -15 944 l 935 944 l 954 869 l 779 869 l 779 340 q 731 194 779 247 q 575 106 683 140 l 538 176 q 649 243 615 204 q 683 372 683 282 z "},"ऐ":{"ha":939,"x_min":-15,"x_max":954,"o":"m 683 372 l 683 869 l 274 869 l 274 193 q 289 108 274 151 q 344 40 304 65 l 711 -187 l 661 -258 l 311 -50 q 215 41 250 -14 q 179 188 179 96 l 179 869 l 4 869 l -15 944 l 649 944 l 310 1256 l 389 1307 l 754 944 l 935 944 l 954 869 l 779 869 l 779 340 q 731 194 779 247 q 575 106 683 140 l 538 176 q 649 243 615 204 q 683 372 683 282 z "},"ऑ":{"ha":1581,"x_min":96,"x_max":1596,"o":"m 1388 1292 l 1450 1253 q 1333 1115 1403 1161 q 1174 1068 1264 1068 q 1012 1115 1082 1068 q 894 1253 942 1161 l 957 1292 q 1051 1175 996 1214 q 1174 1136 1106 1136 q 1294 1175 1240 1136 q 1388 1292 1347 1214 m 932 0 l 932 450 l 551 450 q 642 367 610 417 q 675 249 675 317 q 594 55 675 132 q 357 -22 514 -22 q 206 2 274 -22 q 96 57 139 26 l 113 138 q 224 78 160 101 q 361 56 289 56 q 515 104 453 56 q 576 246 576 153 q 518 397 576 342 q 303 451 460 451 l 215 451 l 186 519 l 313 519 q 497 575 438 519 q 556 714 556 631 q 513 835 556 783 q 376 886 471 886 q 242 860 306 886 q 125 793 178 835 l 113 874 q 229 937 157 910 q 381 964 301 964 q 592 889 531 964 q 654 718 654 814 q 620 603 654 656 q 532 521 586 551 l 932 521 l 932 869 l 767 869 l 744 944 l 1576 944 l 1596 869 l 1411 869 l 1411 -22 l 1315 0 l 1315 869 l 1026 869 l 1026 -22 l 932 0 z "},"ऒ":{"ha":1581,"x_min":96,"x_max":1596,"o":"m 1082 1171 l 1172 1171 q 1345 1111 1279 1171 q 1411 968 1411 1051 l 1411 944 l 1576 944 l 1596 869 l 1411 869 l 1411 -22 l 1315 0 l 1315 869 l 1026 869 l 1026 -22 l 932 0 l 932 450 l 551 450 q 642 363 610 417 q 675 240 675 308 q 594 51 675 125 q 357 -22 514 -22 q 206 2 274 -22 q 96 57 139 26 l 113 138 q 224 78 160 101 q 361 56 289 56 q 515 101 453 56 q 576 239 576 147 q 518 393 576 335 q 303 451 460 451 l 215 451 l 186 519 l 313 519 q 497 572 438 519 q 556 708 556 624 q 513 831 556 776 q 376 886 471 886 q 242 860 306 886 q 125 793 178 835 l 113 874 q 229 937 157 910 q 381 964 301 964 q 592 885 531 964 q 654 711 654 807 q 620 600 654 649 q 532 521 586 551 l 932 521 l 932 869 l 767 869 l 744 944 l 1317 944 l 1317 968 q 1282 1056 1317 1021 q 1178 1090 1247 1090 l 1088 1090 q 915 1144 981 1090 q 849 1286 849 1199 l 849 1307 l 938 1286 q 978 1202 938 1233 q 1082 1171 1019 1171 z "},"ओ":{"ha":1581,"x_min":96,"x_max":1596,"o":"m 744 944 l 1285 944 l 947 1256 l 1025 1307 l 1392 944 l 1576 944 l 1596 869 l 1411 869 l 1411 -22 l 1315 0 l 1315 869 l 1026 869 l 1026 -22 l 932 0 l 932 450 l 551 450 q 642 367 610 417 q 675 249 675 317 q 594 55 675 132 q 357 -22 514 -22 q 206 2 274 -22 q 96 57 139 26 l 113 138 q 224 78 160 101 q 361 56 289 56 q 515 104 453 56 q 576 246 576 153 q 518 397 576 342 q 303 451 460 451 l 215 451 l 186 519 l 313 519 q 497 575 438 519 q 556 714 556 631 q 513 835 556 783 q 376 886 471 886 q 242 860 306 886 q 125 793 178 835 l 113 874 q 229 937 157 910 q 381 964 301 964 q 592 889 531 964 q 654 718 654 814 q 620 603 654 656 q 532 521 586 551 l 932 521 l 932 869 l 767 869 l 744 944 z "},"औ":{"ha":1581,"x_min":96,"x_max":1596,"o":"m 1399 944 l 1576 944 l 1596 869 l 1411 869 l 1411 -22 l 1315 0 l 1315 869 l 1026 869 l 1026 -22 l 932 0 l 932 450 l 551 450 q 642 367 610 417 q 675 249 675 317 q 594 55 675 132 q 357 -22 514 -22 q 206 2 274 -22 q 96 57 139 26 l 113 138 q 224 78 160 101 q 361 56 289 56 q 515 104 453 56 q 576 246 576 153 q 518 397 576 342 q 303 451 460 451 l 215 451 l 186 519 l 313 519 q 497 575 438 519 q 556 714 556 631 q 513 835 556 783 q 376 886 471 886 q 242 860 306 886 q 125 793 178 835 l 113 874 q 229 937 157 910 q 381 964 301 964 q 592 889 531 964 q 654 718 654 814 q 620 603 654 656 q 532 521 586 551 l 932 521 l 932 869 l 767 869 l 744 944 l 1310 944 l 1251 1007 q 1127 1103 1181 1086 q 1015 1119 1074 1119 l 897 1119 l 878 1203 l 1011 1203 q 1152 1182 1088 1203 q 1294 1065 1217 1161 l 1190 1379 l 1282 1413 l 1399 944 z "},"क":{"ha":1263,"x_min":-15,"x_max":1279,"o":"m 379 629 q 241 572 300 629 q 182 425 182 515 q 238 277 182 335 q 379 219 293 219 q 513 265 465 219 q 588 349 560 310 l 588 500 q 513 584 560 539 q 379 629 465 629 m 897 219 q 1040 277 983 219 q 1096 425 1096 335 q 1036 572 1096 515 q 897 629 976 629 q 756 578 806 629 q 682 489 707 526 l 682 -22 l 588 0 l 588 226 q 503 169 553 196 q 383 142 453 142 q 167 217 257 142 q 76 424 76 293 q 160 626 76 544 q 383 708 244 708 q 503 681 453 708 q 588 622 553 654 l 588 869 l 4 869 l -15 944 l 1260 944 l 1279 869 l 682 869 l 682 613 q 768 678 715 647 q 896 708 821 708 q 1117 626 1033 708 q 1200 424 1200 544 q 1113 217 1200 293 q 914 142 1026 142 l 897 219 z "},"ख":{"ha":1256,"x_min":-15,"x_max":1271,"o":"m 547 478 q 622 653 547 582 q 818 724 697 724 q 914 709 869 724 q 992 668 958 694 l 992 869 l 400 869 q 459 769 439 828 q 479 649 479 710 q 416 469 479 549 q 249 368 353 390 q 356 162 254 267 q 611 57 458 57 q 852 127 754 57 q 979 286 950 197 q 905 245 946 260 q 818 231 864 231 q 628 296 710 231 q 547 478 547 361 m 644 478 q 694 352 644 399 q 818 306 743 306 q 942 351 893 306 q 992 476 992 397 l 992 485 q 940 605 989 560 q 818 650 890 650 q 696 603 747 650 q 644 478 644 557 m 1086 -22 l 992 0 l 992 147 q 834 26 932 75 q 611 -22 736 -22 q 286 101 404 -22 q 163 361 168 224 l 108 361 q 76 375 88 361 q 65 408 65 389 q 103 497 65 451 q 200 543 142 543 q 228 527 218 543 q 238 488 238 511 l 238 450 q 343 517 301 465 q 385 649 385 568 q 354 778 385 714 q 272 869 324 843 l 4 869 l -15 944 l 1251 944 l 1271 869 l 1086 869 l 1086 -22 z "},"ग":{"ha":847,"x_min":-15,"x_max":864,"o":"m 585 0 l 585 869 l 267 869 l 267 313 q 257 269 267 286 q 228 253 247 253 q 121 301 164 253 q 78 399 78 350 q 91 434 78 421 q 122 447 104 447 l 171 447 l 171 869 l 4 869 l -15 944 l 843 944 l 864 869 l 679 869 l 679 -22 l 585 0 z "},"घ":{"ha":974,"x_min":-15,"x_max":990,"o":"m 711 0 l 711 296 q 591 171 667 221 q 392 121 515 121 q 183 192 258 121 q 107 356 107 264 q 142 488 107 428 q 243 563 176 547 q 155 632 188 581 q 122 747 122 683 q 137 813 122 781 q 174 869 151 846 l 4 869 l -15 944 l 969 944 l 990 869 l 804 869 l 804 -22 l 711 0 m 711 869 l 310 869 q 242 822 264 856 q 219 746 219 788 q 267 636 219 678 q 413 594 314 594 l 461 594 l 490 528 l 421 528 q 251 475 296 528 q 206 354 206 422 q 260 249 206 293 q 396 204 314 204 q 622 303 533 204 q 711 621 711 403 l 711 869 z "},"ङ":{"ha":801,"x_min":-15,"x_max":818,"o":"m 744 446 q 694 467 715 446 q 674 517 674 488 q 694 569 674 547 q 744 592 715 592 q 797 569 775 592 q 818 517 818 547 q 797 467 818 488 q 744 446 775 446 m 106 135 q 231 76 156 100 q 379 51 306 51 q 524 91 465 51 q 582 200 582 131 q 536 309 582 267 q 419 351 490 351 l 288 351 q 140 404 207 351 q 72 533 72 457 q 134 666 72 617 q 285 715 196 715 l 506 715 l 506 869 l 4 869 l -15 944 l 797 944 l 818 869 l 601 869 l 601 636 l 285 636 q 199 606 231 636 q 167 533 167 576 q 200 458 167 488 q 288 429 233 429 l 407 429 q 606 370 535 429 q 678 199 678 311 q 600 40 678 107 q 379 -26 522 -26 q 212 -1 294 -26 q 89 53 129 24 l 106 135 z "},"च":{"ha":976,"x_min":-15,"x_max":992,"o":"m 713 0 l 713 210 q 624 162 675 178 q 510 146 574 146 q 298 212 383 146 q 213 406 213 278 q 234 509 213 464 q 290 586 256 554 l 76 586 l 57 668 l 582 668 l 607 586 l 533 586 q 363 536 418 585 q 307 406 307 488 q 363 274 307 322 q 510 225 418 225 q 654 268 596 225 q 713 386 713 311 l 713 869 l 4 869 l -15 944 l 972 944 l 992 869 l 807 869 l 807 -22 l 713 0 z "},"छ":{"ha":1126,"x_min":-15,"x_max":1142,"o":"m 1044 565 q 899 195 1044 413 q 469 -22 753 -22 q 206 47 313 -22 q 99 253 99 117 q 140 396 99 321 q 290 497 182 471 q 160 592 201 524 q 118 721 118 660 q 134 801 118 763 q 176 869 150 840 l 7 869 l -15 944 l 1119 944 l 1142 869 l 903 869 l 903 769 q 1009 690 974 750 q 1044 565 1044 631 m 197 250 q 285 102 197 149 q 471 56 374 56 q 733 144 619 56 q 881 340 846 233 q 718 406 796 340 q 640 565 640 471 q 694 713 640 654 q 822 778 747 771 l 822 869 l 313 869 q 241 810 265 850 q 217 719 217 769 q 276 582 217 635 q 461 529 336 529 l 500 529 l 529 461 l 471 461 q 262 403 326 461 q 197 250 197 346 m 918 401 q 947 478 936 438 q 958 560 958 518 q 932 656 958 613 q 842 699 906 699 q 758 660 788 699 q 728 565 728 621 q 790 449 728 494 q 918 401 853 404 z "},"ज":{"ha":1038,"x_min":-15,"x_max":1053,"o":"m 774 558 l 508 558 q 559 479 540 525 q 578 378 578 433 q 492 184 578 250 q 278 118 406 118 q 127 142 194 118 q 15 196 60 165 l 33 276 q 144 217 82 240 q 278 194 207 194 q 426 244 369 194 q 482 378 482 293 q 426 512 482 465 q 278 558 369 558 l 204 558 l 179 640 l 774 640 l 774 869 l 4 869 l -15 944 l 1032 944 l 1053 869 l 867 869 l 867 -22 l 774 0 l 774 558 z "},"झ":{"ha":1175,"x_min":-15,"x_max":1190,"o":"m 911 869 l 601 869 l 601 636 l 285 636 q 199 606 231 636 q 167 533 167 576 q 200 458 167 488 q 288 429 233 429 l 407 429 q 532 410 478 429 q 621 357 586 392 l 911 357 l 911 869 m 254 69 q 317 56 285 61 q 379 51 349 51 q 524 91 465 51 q 582 200 582 131 q 536 309 582 267 q 419 351 490 351 l 288 351 q 140 404 207 351 q 72 533 72 457 q 134 666 72 617 q 285 715 196 715 l 506 715 l 506 869 l 4 869 l -15 944 l 1171 944 l 1190 869 l 1006 869 l 1006 -22 l 911 0 l 911 282 l 665 282 q 674 242 671 264 q 678 199 678 221 q 600 40 678 107 q 379 -26 522 -26 q 331 -24 356 -26 q 282 -18 306 -22 l 422 -194 l 361 -239 l 183 -11 q 104 43 144 6 q 64 129 64 81 q 79 165 64 151 q 118 178 94 178 q 203 146 165 178 q 254 69 240 114 z "},"ञ":{"ha":1036,"x_min":-15,"x_max":1051,"o":"m 575 378 q 479 191 563 253 q 278 129 396 129 q 127 153 194 129 q 15 208 60 178 l 33 290 q 144 231 82 253 q 278 208 207 208 q 425 263 369 208 q 481 419 481 318 q 425 576 481 521 q 278 631 369 631 q 206 624 243 631 q 138 608 168 618 l 118 683 q 194 701 153 694 q 278 708 235 708 q 481 645 397 708 q 575 451 564 582 l 772 451 l 772 869 l 4 869 l -15 944 l 1031 944 l 1051 869 l 867 869 l 867 -22 l 772 0 l 772 378 l 575 378 z "},"ट":{"ha":868,"x_min":-15,"x_max":883,"o":"m 183 315 q 277 110 183 164 q 500 57 371 57 q 645 78 576 57 q 778 144 714 99 l 789 57 q 660 -4 736 17 q 500 -25 583 -25 q 212 47 340 -25 q 83 315 83 119 q 209 574 83 488 q 517 660 335 660 l 594 660 l 594 869 l 4 869 l -15 944 l 864 944 l 883 869 l 690 869 l 690 578 l 517 578 q 278 513 374 578 q 183 315 183 449 z "},"ठ":{"ha":994,"x_min":-15,"x_max":1010,"o":"m 500 -25 q 213 47 342 -25 q 85 315 85 119 q 192 557 85 472 q 447 656 300 642 l 447 869 l 4 869 l -15 944 l 990 944 l 1010 869 l 542 869 l 542 657 q 802 574 689 649 q 915 318 915 500 q 790 59 915 143 q 500 -25 665 -25 m 183 315 q 277 110 183 164 q 500 57 371 57 q 724 121 629 57 q 818 318 818 185 q 724 523 818 468 q 500 578 629 578 q 278 513 374 578 q 183 315 183 449 z "},"ड":{"ha":736,"x_min":-15,"x_max":750,"o":"m 106 135 q 231 76 156 100 q 379 51 306 51 q 524 91 465 51 q 582 200 582 131 q 536 309 582 267 q 419 351 490 351 l 288 351 q 140 404 207 351 q 72 533 72 457 q 134 666 72 617 q 285 715 196 715 l 506 715 l 506 869 l 4 869 l -15 944 l 731 944 l 750 869 l 601 869 l 601 636 l 285 636 q 199 606 231 636 q 167 533 167 576 q 200 458 167 488 q 288 429 233 429 l 407 429 q 606 370 535 429 q 678 199 678 311 q 600 40 678 107 q 379 -26 522 -26 q 212 -1 294 -26 q 89 53 129 24 l 106 135 z "},"ढ":{"ha":869,"x_min":-15,"x_max":886,"o":"m 690 869 l 690 608 l 517 608 q 278 536 374 608 q 183 332 183 464 q 269 125 183 188 q 478 57 356 63 q 424 122 446 83 q 403 201 403 160 q 458 341 403 282 q 604 400 513 400 q 753 349 697 400 q 808 214 808 297 q 722 44 808 114 q 500 -25 635 -25 q 212 56 340 -25 q 83 332 83 136 q 209 597 83 501 q 517 692 335 692 l 594 692 l 594 869 l 4 869 l -15 944 l 865 944 l 886 869 l 690 869 m 611 315 q 529 286 564 315 q 494 201 494 257 q 519 122 494 158 q 586 67 543 86 q 689 123 657 82 q 721 211 721 164 q 692 285 721 256 q 611 315 663 315 z "},"ण":{"ha":1190,"x_min":-15,"x_max":1207,"o":"m 651 538 q 583 324 651 400 q 397 247 515 247 q 212 324 281 247 q 143 538 143 400 l 143 869 l 4 869 l -15 944 l 1186 944 l 1207 869 l 1022 869 l 1022 -22 l 928 0 l 928 869 l 651 869 l 651 538 m 236 869 l 236 538 q 274 385 236 443 q 400 328 311 328 q 522 386 485 328 q 558 538 558 444 l 558 869 l 236 869 z "},"त":{"ha":935,"x_min":-15,"x_max":951,"o":"m 672 0 l 672 546 l 383 546 q 242 509 289 546 q 194 400 194 472 q 264 203 194 315 q 389 3 333 90 l 310 -25 q 169 191 240 75 q 99 406 99 307 q 161 560 99 497 q 335 622 224 622 l 672 622 l 672 869 l 4 869 l -15 944 l 931 944 l 951 869 l 767 869 l 767 -22 l 672 0 z "},"थ":{"ha":925,"x_min":63,"x_max":940,"o":"m 349 756 q 295 706 331 728 q 218 685 260 685 q 110 722 158 685 q 63 818 63 758 q 107 922 63 881 q 222 964 151 964 q 364 897 296 964 q 432 731 432 831 q 371 553 432 603 q 244 469 310 503 q 319 369 258 410 q 457 328 381 328 q 606 383 553 328 q 660 538 660 439 l 660 869 l 588 869 l 568 944 l 921 944 l 940 869 l 756 869 l 756 -22 l 660 0 l 660 321 q 572 267 624 286 q 457 247 521 247 q 244 326 335 247 q 154 504 154 404 l 171 524 q 283 577 215 536 q 351 718 351 618 q 351 737 351 728 q 349 756 350 746 m 319 835 q 278 874 303 860 q 225 889 254 889 q 171 872 196 889 q 146 818 146 854 q 169 769 146 786 q 222 753 193 753 q 288 778 265 753 q 319 835 310 804 z "},"द":{"ha":824,"x_min":-15,"x_max":838,"o":"m 747 -17 l 675 -60 l 575 125 q 522 117 549 119 q 468 115 494 115 q 203 192 324 115 q 82 435 82 269 q 197 666 82 583 q 485 749 313 749 l 546 749 l 546 869 l 4 869 l -15 944 l 817 944 l 838 869 l 642 869 l 642 668 l 485 668 q 268 605 354 668 q 182 435 182 542 q 267 257 182 315 q 468 199 351 199 q 503 200 486 199 q 538 203 519 201 q 532 228 535 214 q 529 258 529 243 q 547 303 529 286 q 594 321 565 321 q 665 297 625 321 q 704 235 704 274 q 691 193 704 215 q 651 150 678 171 l 747 -17 z "},"ध":{"ha":1008,"x_min":111,"x_max":1024,"o":"m 372 885 q 266 847 308 885 q 224 746 224 808 q 270 636 224 678 q 415 594 317 594 l 465 594 l 494 528 l 422 528 q 253 475 299 528 q 208 354 208 422 q 271 245 208 286 q 414 204 333 204 q 648 303 551 204 q 744 621 744 403 l 744 869 l 653 869 l 633 944 l 1003 944 l 1024 869 l 839 869 l 839 -22 l 744 0 l 744 296 q 618 171 703 221 q 410 121 533 121 q 194 186 276 121 q 111 356 111 251 q 145 488 111 428 q 247 563 179 547 q 158 632 192 581 q 125 747 125 683 q 190 899 125 835 q 368 964 256 964 q 485 938 433 964 q 553 890 538 913 l 511 833 q 455 870 490 856 q 372 885 419 885 z "},"न":{"ha":828,"x_min":-15,"x_max":843,"o":"m 563 458 l 242 458 l 242 397 q 231 351 242 368 q 201 335 221 335 q 97 383 142 335 q 51 478 51 431 q 63 514 51 499 q 99 529 74 529 l 563 529 l 563 869 l 4 869 l -15 944 l 824 944 l 843 869 l 658 869 l 658 -22 l 563 0 l 563 458 z "},"ऩ":{"ha":828,"x_min":-15,"x_max":843,"o":"m 563 458 l 242 458 l 242 397 q 231 351 242 368 q 201 335 221 335 q 89 390 135 335 q 53 494 43 446 q 68 519 56 508 q 99 529 81 529 l 563 529 l 563 869 l 4 869 l -15 944 l 824 944 l 843 869 l 658 869 l 658 -22 l 563 0 l 563 458 m 201 -26 q 150 -5 172 -26 q 128 46 128 17 q 150 97 128 76 q 201 118 172 118 q 253 97 232 118 q 274 46 274 76 q 253 -5 274 17 q 201 -26 232 -26 z "},"प":{"ha":903,"x_min":-15,"x_max":918,"o":"m 639 0 l 639 321 q 549 267 603 286 q 432 247 496 247 q 223 324 301 247 q 144 538 144 400 l 144 869 l 4 869 l -15 944 l 897 944 l 918 869 l 733 869 l 733 -22 l 639 0 m 639 538 l 639 869 l 238 869 l 238 538 q 288 385 238 442 q 439 328 338 328 q 587 383 535 328 q 639 538 639 439 z "},"फ":{"ha":1311,"x_min":-15,"x_max":1328,"o":"m 638 538 l 638 869 l 236 869 l 236 538 q 287 385 236 442 q 439 328 338 328 q 586 383 535 328 q 638 538 638 439 m 947 196 q 1088 253 1032 196 q 1144 401 1144 311 q 1085 548 1143 492 q 947 604 1026 604 q 807 556 856 604 q 733 468 758 507 l 733 -22 l 638 0 l 638 321 q 548 267 601 286 q 431 247 494 247 q 222 324 301 247 q 143 538 143 400 l 143 869 l 4 869 l -15 944 l 1307 944 l 1328 869 l 733 869 l 733 592 q 818 655 767 625 q 944 685 869 685 q 1165 603 1082 685 q 1249 400 1249 521 q 1160 194 1249 269 q 963 118 1072 118 l 947 196 z "},"ब":{"ha":850,"x_min":-15,"x_max":867,"o":"m 588 0 l 588 226 q 503 169 553 196 q 383 142 453 142 q 167 217 257 142 q 76 424 76 293 q 160 626 76 544 q 383 708 244 708 q 503 681 453 708 q 588 622 553 654 l 588 869 l 4 869 l -15 944 l 846 944 l 867 869 l 682 869 l 682 -22 l 588 0 m 588 500 q 513 584 560 539 q 379 629 465 629 q 323 621 350 629 q 274 597 296 613 l 540 290 q 566 319 554 304 q 588 349 578 335 l 588 500 m 222 551 q 193 494 204 525 q 182 425 182 463 q 238 277 182 335 q 379 219 293 219 q 438 228 411 219 q 488 249 465 236 l 222 551 z "},"भ":{"ha":989,"x_min":47,"x_max":1004,"o":"m 725 0 l 725 375 l 383 375 l 383 313 q 374 269 383 286 q 344 253 364 253 q 233 308 278 253 q 194 411 188 364 q 210 436 197 425 q 240 447 222 447 l 289 447 l 289 693 q 244 674 268 679 q 203 668 219 668 q 90 710 132 668 q 47 819 47 751 q 95 924 47 883 q 207 964 143 964 q 337 903 290 964 q 383 742 383 842 l 383 447 l 725 447 l 725 869 l 540 869 l 519 944 l 983 944 l 1004 869 l 819 869 l 819 -22 l 725 0 m 135 810 q 157 758 135 778 q 208 739 179 739 q 248 747 226 739 q 288 769 269 756 q 265 852 286 822 q 206 882 244 882 q 156 863 176 882 q 135 810 135 844 z "},"म":{"ha":903,"x_min":-15,"x_max":919,"o":"m 640 375 l 267 375 l 267 313 q 257 269 267 286 q 228 253 247 253 q 115 308 160 253 q 79 411 69 364 q 93 436 81 425 q 122 447 106 447 l 171 447 l 171 869 l 4 869 l -15 944 l 899 944 l 919 869 l 735 869 l 735 -22 l 640 0 l 640 375 m 640 869 l 267 869 l 267 447 l 640 447 l 640 869 z "},"य":{"ha":861,"x_min":-15,"x_max":878,"o":"m 108 524 q 187 588 151 536 q 222 717 222 640 q 192 814 222 775 q 111 869 163 853 l 4 869 l -15 944 l 857 944 l 878 869 l 692 869 l 692 -22 l 597 0 l 597 321 q 510 267 561 286 q 394 247 458 247 q 182 326 272 247 q 92 504 92 404 l 108 524 m 597 869 l 250 869 q 294 806 276 847 q 311 708 311 765 q 280 576 311 642 q 183 478 249 511 q 257 376 197 419 q 394 328 317 332 q 544 383 490 328 q 597 538 597 439 l 597 869 z "},"र":{"ha":604,"x_min":-15,"x_max":621,"o":"m 183 361 l 126 361 q 99 372 111 361 q 85 396 88 382 q 110 491 78 439 q 193 543 143 543 q 223 526 211 543 q 244 488 235 510 l 261 450 q 367 517 325 465 q 408 649 408 568 q 377 778 408 714 q 296 869 346 843 l 4 869 l -15 944 l 599 944 l 621 869 l 429 869 q 488 769 468 828 q 508 649 508 710 q 442 467 508 546 q 271 367 376 389 l 500 0 l 403 -25 l 183 361 z "},"ऱ":{"ha":604,"x_min":-15,"x_max":621,"o":"m 183 361 l 126 361 q 99 372 111 361 q 85 396 88 382 q 110 491 78 439 q 193 543 143 543 q 223 526 211 543 q 244 488 235 510 l 261 450 q 367 517 325 465 q 408 649 408 568 q 377 778 408 714 q 296 869 346 843 l 4 869 l -15 944 l 599 944 l 621 869 l 429 869 q 488 769 468 828 q 508 649 508 710 q 442 467 508 546 q 271 367 376 389 l 500 0 l 403 -25 l 183 361 m 131 -26 q 80 -5 101 -26 q 58 46 58 17 q 80 97 58 76 q 131 118 101 118 q 183 97 161 118 q 204 46 204 76 q 183 -5 204 17 q 131 -26 161 -26 z "},"ल":{"ha":1211,"x_min":-15,"x_max":1226,"o":"m 947 0 l 947 385 q 908 531 946 475 q 792 586 869 586 q 678 527 717 586 q 640 376 640 468 l 640 217 l 546 244 l 544 376 q 504 525 544 468 q 376 583 464 582 q 262 535 308 583 q 215 425 215 486 q 256 227 215 315 q 364 1 296 139 l 286 -25 q 172 206 224 97 q 121 435 121 314 q 197 595 121 525 q 376 667 272 665 q 501 637 446 665 q 590 557 557 608 q 675 638 622 610 q 793 667 728 667 q 878 653 840 667 q 947 614 917 639 l 947 869 l 4 869 l -15 944 l 1206 944 l 1226 869 l 1042 869 l 1042 -22 l 947 0 z "},"ळ":{"ha":1247,"x_min":-15,"x_max":1263,"o":"m 1192 389 q 1104 165 1192 257 q 896 72 1017 72 q 744 117 814 72 q 629 244 675 161 q 531 123 589 174 q 383 72 472 72 q 165 156 247 72 q 82 374 82 240 q 165 599 82 506 q 381 692 247 692 q 535 645 465 692 q 657 526 606 599 q 736 631 688 586 q 856 688 785 676 l 856 869 l 4 869 l -15 944 l 1243 944 l 1263 869 l 950 869 l 950 688 q 1124 590 1057 671 q 1192 389 1192 508 m 1100 393 q 1048 547 1100 481 q 896 614 996 614 q 758 535 801 614 q 688 375 715 457 l 665 319 q 767 196 703 244 q 896 147 832 147 q 1044 221 988 147 q 1100 393 1100 294 m 383 151 q 528 229 476 151 q 604 386 581 307 q 611 416 606 400 q 622 446 617 432 q 524 563 583 517 q 383 611 464 610 q 228 539 283 611 q 174 371 174 467 q 228 217 174 283 q 383 151 283 151 z "},"ऴ":{"ha":1247,"x_min":-15,"x_max":1263,"o":"m 1192 389 q 1104 165 1192 257 q 896 72 1017 72 q 744 117 814 72 q 629 244 675 161 q 531 123 589 174 q 383 72 472 72 q 165 156 247 72 q 82 374 82 240 q 165 599 82 506 q 381 692 247 692 q 535 645 465 692 q 657 526 606 599 q 736 631 688 586 q 856 688 785 676 l 856 869 l 4 869 l -15 944 l 1243 944 l 1263 869 l 950 869 l 950 688 q 1124 590 1057 671 q 1192 389 1192 508 m 1100 393 q 1048 547 1100 481 q 896 614 996 614 q 758 535 801 614 q 688 375 715 457 l 665 319 q 767 196 703 244 q 896 147 832 147 q 1044 221 988 147 q 1100 393 1100 294 m 383 151 q 528 229 476 151 q 604 386 581 307 q 611 416 606 400 q 622 446 617 432 q 524 563 583 517 q 383 611 464 610 q 228 539 283 611 q 174 371 174 467 q 228 217 174 283 q 383 151 283 151 m 628 -121 q 576 -100 597 -121 q 556 -50 556 -79 q 576 2 556 -19 q 628 24 597 24 q 678 2 658 24 q 699 -50 699 -19 q 678 -100 699 -79 q 628 -121 658 -121 z "},"व":{"ha":850,"x_min":-15,"x_max":867,"o":"m 588 0 l 588 226 q 503 169 553 196 q 383 142 453 142 q 167 217 257 142 q 76 424 76 293 q 160 626 76 544 q 383 708 244 708 q 503 681 453 708 q 588 622 553 654 l 588 869 l 4 869 l -15 944 l 846 944 l 867 869 l 682 869 l 682 -22 l 588 0 m 379 629 q 242 572 300 629 q 182 425 183 515 q 238 277 182 335 q 379 219 293 219 q 513 265 465 219 q 588 349 560 310 l 588 500 q 513 584 560 539 q 379 629 465 629 z "},"श":{"ha":1071,"x_min":79,"x_max":1086,"o":"m 807 0 l 807 869 l 640 869 l 621 944 l 1065 944 l 1086 869 l 903 869 l 903 -22 l 807 0 m 167 804 q 188 757 167 772 q 239 742 208 742 q 328 784 294 742 q 367 874 361 826 q 328 888 349 883 q 283 893 307 893 q 199 867 232 893 q 167 804 167 840 m 189 364 l 135 364 q 108 374 119 364 q 93 400 96 385 q 118 495 85 443 q 200 547 151 547 q 231 531 218 547 q 253 490 244 514 l 267 446 q 413 501 344 446 q 481 663 481 556 q 467 747 481 701 q 422 831 454 793 q 363 725 413 775 q 235 675 313 675 q 126 712 174 675 q 79 808 79 749 q 140 918 79 872 q 288 964 200 964 q 497 874 421 964 q 574 660 574 783 q 483 455 572 531 q 279 371 394 379 l 278 371 l 539 0 l 439 -25 l 189 364 z "},"ष":{"ha":908,"x_min":-15,"x_max":925,"o":"m 644 0 l 644 321 q 552 267 608 286 q 432 247 496 247 q 223 324 301 247 q 144 538 144 400 l 144 869 l 4 869 l -15 944 l 904 944 l 925 869 l 739 869 l 739 -22 l 644 0 m 644 538 l 644 869 l 301 869 l 639 478 q 643 506 642 492 q 644 538 644 521 m 238 538 q 288 385 238 442 q 439 328 338 328 q 537 347 494 328 q 604 401 579 367 l 238 829 l 238 538 z "},"स":{"ha":1057,"x_min":-15,"x_max":1071,"o":"m 792 869 l 429 869 q 488 769 468 828 q 508 649 508 710 q 495 563 508 603 q 457 488 482 522 l 792 488 l 792 869 m 183 361 l 126 361 q 99 372 111 361 q 85 396 88 382 q 110 491 78 439 q 193 543 143 543 q 223 526 211 543 q 244 488 235 510 l 261 450 q 367 517 325 465 q 408 649 408 568 q 377 778 408 714 q 296 869 346 843 l 4 869 l -15 944 l 1051 944 l 1071 869 l 888 869 l 888 -22 l 792 0 l 792 415 l 386 415 q 333 385 363 399 q 271 367 303 372 l 500 0 l 403 -25 l 183 361 z "},"ह":{"ha":744,"x_min":-15,"x_max":760,"o":"m 588 328 q 537 419 588 379 q 403 458 486 458 q 265 407 319 458 q 210 285 210 356 q 316 117 210 172 q 522 54 422 63 l 501 -22 q 236 67 354 -14 q 118 285 118 147 q 140 395 118 347 q 201 474 163 443 q 151 526 171 494 q 131 601 131 558 q 180 717 132 676 q 317 757 228 757 l 521 757 l 521 869 l 4 869 l -15 944 l 739 944 l 760 869 l 614 869 l 614 678 l 319 678 q 249 658 275 678 q 222 603 224 639 q 240 551 222 575 q 288 518 258 528 q 344 532 314 528 q 406 536 375 536 q 603 476 526 536 q 679 335 679 417 q 660 242 679 289 q 606 171 642 194 l 536 219 q 576 270 564 244 q 588 328 588 296 z "},"ॸ":{"ha":849,"x_min":-15,"x_max":864,"o":"m 267 869 l 267 483 l 446 483 q 656 407 576 483 q 735 193 735 331 l 735 -22 l 640 0 l 640 193 q 590 346 640 289 q 439 403 540 403 l 267 403 l 267 349 q 257 306 267 322 q 228 289 247 289 q 115 344 160 289 q 79 447 69 400 q 93 472 81 461 q 122 483 106 483 l 171 483 l 171 869 l 4 869 l -15 944 l 843 944 l 864 869 l 267 869 z "},"ऺ":{"ha":0,"x_min":-137,"x_max":-50,"o":"m -50 1224 l -50 944 l -137 944 l -137 1246 l -50 1224 z "},"ऻ":{"ha":436,"x_min":-15,"x_max":451,"o":"m 263 1224 l 263 944 l 429 944 l 451 869 l 265 869 l 265 -22 l 171 0 l 171 869 l 4 869 l -15 944 l 175 944 l 175 1246 l 263 1224 z "},"़":{"ha":0,"x_min":24,"x_max":168,"o":"m 96 -215 q 44 -194 65 -215 q 24 -144 24 -174 q 44 -93 24 -114 q 96 -72 65 -72 q 147 -93 126 -72 q 168 -144 168 -114 q 147 -194 168 -174 q 96 -215 126 -215 z "},"ऽ":{"ha":736,"x_min":56,"x_max":653,"o":"m 96 126 q 219 72 144 92 q 364 51 293 51 q 500 95 446 51 q 554 221 554 139 q 478 421 554 308 q 322 625 403 533 l 101 875 l 101 944 l 636 944 l 653 875 l 197 875 l 371 683 q 551 461 456 589 q 646 221 646 333 q 567 45 646 117 q 339 -26 488 -26 q 201 -7 279 -26 q 56 51 124 13 l 96 126 z "},"ा":{"ha":436,"x_min":-15,"x_max":451,"o":"m 171 0 l 171 869 l 4 869 l -15 944 l 429 944 l 451 869 l 265 869 l 265 -22 l 171 0 z "},"ि":{"ha":436,"x_min":-15,"x_max":1079,"o":"m 1042 994 q 756 1147 938 1065 q 410 1229 575 1229 q 260 1183 315 1229 q 204 1069 204 1138 q 224 990 204 1022 q 258 944 244 958 l 429 944 l 451 869 l 265 869 l 265 -22 l 171 0 l 171 869 l 4 869 l -15 944 l 151 944 q 127 993 142 964 q 113 1069 113 1022 q 193 1240 113 1172 q 407 1307 274 1307 q 795 1213 594 1307 q 1079 1054 996 1119 l 1042 994 z "},"ी":{"ha":436,"x_min":-306,"x_max":446,"o":"m -186 1015 l -257 983 q -290 1050 -275 1014 q -306 1128 -306 1086 q -248 1256 -306 1204 q -107 1307 -190 1307 q 131 1178 43 1307 q 251 944 219 1049 l 424 944 l 446 869 l 261 869 l 261 -22 l 167 0 l 167 869 l -1 869 l -22 944 l 156 944 q 74 1117 138 1004 q -107 1229 11 1229 q -192 1197 -164 1229 q -221 1126 -221 1165 q -212 1074 -221 1100 q -186 1015 -203 1049 z "},"ु":{"ha":0,"x_min":-532,"x_max":19,"o":"m -475 -151 q -341 -287 -403 -236 q -194 -339 -279 -339 q -97 -305 -131 -339 q -62 -218 -62 -271 q -99 -132 -62 -165 q -194 -99 -135 -99 l -261 -99 l -261 -25 l -179 -25 q -42 -76 -104 -25 q 19 -218 19 -128 q -44 -360 19 -308 q -196 -411 -108 -411 q -378 -352 -292 -411 q -532 -189 -465 -293 l -475 -151 z "},"ू":{"ha":0,"x_min":-406,"x_max":146,"o":"m 89 -287 q -47 -149 14 -200 q -193 -99 -107 -99 q -290 -132 -257 -99 q -324 -217 -324 -165 q -288 -306 -324 -271 q -193 -340 -253 -340 l -125 -340 l -125 -411 l -207 -411 q -343 -360 -281 -411 q -406 -217 -406 -308 q -342 -77 -406 -129 q -190 -25 -279 -25 q -8 -85 -94 -25 q 146 -249 79 -146 l 89 -287 z "},"ृ":{"ha":0,"x_min":-446,"x_max":-139,"o":"m -364 -218 q -328 -306 -364 -271 q -232 -340 -292 -340 q -192 -335 -210 -340 q -154 -325 -174 -331 l -139 -396 q -191 -407 -162 -403 q -247 -411 -219 -411 q -385 -360 -325 -411 q -446 -218 -446 -308 q -383 -76 -446 -128 q -247 -25 -319 -25 l -165 -25 l -165 -99 l -232 -99 q -328 -132 -292 -99 q -364 -218 -364 -165 z "},"ॄ":{"ha":0,"x_min":-368,"x_max":-169,"o":"m -312 -217 q -349 -188 -329 -211 q -368 -139 -368 -165 q -323 -50 -368 -75 q -229 -25 -278 -25 l -172 -25 l -171 -86 l -203 -86 q -255 -99 -229 -86 q -281 -139 -281 -112 q -255 -176 -281 -164 q -203 -189 -229 -189 l -169 -189 l -203 -244 q -262 -258 -237 -244 q -287 -297 -287 -271 q -267 -335 -287 -322 q -203 -347 -246 -347 l -171 -347 l -201 -407 l -229 -407 q -323 -383 -278 -407 q -368 -297 -368 -358 q -351 -249 -368 -271 q -312 -217 -335 -226 z "},"ॅ":{"ha":0,"x_min":24,"x_max":581,"o":"m 517 1292 l 581 1253 q 462 1115 532 1161 q 303 1068 392 1068 q 141 1115 211 1068 q 24 1253 71 1161 l 86 1292 q 180 1175 125 1214 q 303 1136 235 1136 q 423 1175 369 1136 q 517 1292 476 1214 z "},"ॆ":{"ha":0,"x_min":-629,"x_max":-157,"o":"m -540 1286 q -499 1202 -540 1233 q -397 1171 -458 1171 q -223 1110 -289 1169 q -157 968 -157 1051 l -157 911 l -251 911 l -251 968 q -286 1056 -251 1021 q -390 1090 -321 1090 q -564 1145 -499 1092 q -629 1286 -629 1199 l -629 1307 l -540 1286 z "},"े":{"ha":0,"x_min":-632,"x_max":-146,"o":"m -146 903 l -249 903 l -632 1256 l -554 1307 l -146 903 z "},"ै":{"ha":0,"x_min":-697,"x_max":-176,"o":"m -176 944 l -265 944 l -324 1007 q -448 1103 -394 1086 q -560 1119 -501 1119 l -678 1119 l -697 1203 l -564 1203 q -423 1182 -487 1203 q -281 1065 -358 1161 l -385 1379 l -293 1413 l -176 944 z "},"ॉ":{"ha":436,"x_min":-60,"x_max":494,"o":"m 432 1292 l 494 1253 q 378 1115 447 1161 q 217 1068 308 1068 q 57 1115 126 1068 q -60 1253 -12 1161 l 3 1292 q 95 1175 42 1214 q 217 1136 149 1136 q 340 1175 286 1136 q 432 1292 393 1214 m 171 0 l 171 869 l 4 869 l -15 944 l 429 944 l 451 869 l 265 869 l 265 -22 l 171 0 z "},"ॊ":{"ha":436,"x_min":-208,"x_max":451,"o":"m -118 1286 q -78 1202 -118 1233 q 24 1171 -39 1171 q 199 1110 133 1169 q 265 968 265 1051 l 265 944 l 429 944 l 451 869 l 265 869 l 265 -22 l 171 0 l 171 869 l 4 869 l -15 944 l 171 944 l 171 968 q 136 1056 171 1021 q 33 1090 101 1090 q -142 1145 -75 1092 q -208 1286 -208 1199 l -208 1307 l -118 1286 z "},"ो":{"ha":436,"x_min":-185,"x_max":451,"o":"m -15 944 l 154 944 l -185 1256 l -106 1307 l 261 944 l 429 944 l 451 869 l 265 869 l 265 -22 l 171 0 l 171 869 l 4 869 l -15 944 z "},"ौ":{"ha":436,"x_min":-264,"x_max":451,"o":"m 256 944 l 429 944 l 451 869 l 265 869 l 265 -22 l 171 0 l 171 869 l 4 869 l -15 944 l 167 944 l 108 1007 q -15 1103 38 1086 q -128 1119 -68 1119 l -246 1119 l -264 1203 l -132 1203 q 10 1182 -54 1203 q 151 1065 75 1161 l 49 1379 l 139 1413 l 256 944 z "},"ॏ":{"ha":436,"x_min":-279,"x_max":451,"o":"m -49 1090 l 81 1090 q 133 1087 110 1089 q 174 1081 156 1085 q 153 1126 168 1108 q 103 1143 138 1143 q -40 1194 -6 1144 q -74 1331 -74 1243 l -74 1351 l 8 1331 q 29 1248 8 1279 q 93 1217 50 1217 q 230 1157 194 1217 q 265 1013 265 1097 l 264 944 l 429 944 l 451 869 l 265 869 l 265 -22 l 171 0 l 171 869 l 4 869 l -15 944 l 178 944 q 164 1001 178 988 q 86 1015 150 1015 l -40 1015 q -214 1066 -149 1017 q -279 1203 -279 1115 l -279 1222 l -199 1203 q -154 1120 -199 1150 q -49 1090 -110 1090 z "},"्":{"ha":0,"x_min":-340,"x_max":0,"o":"m -57 -414 l -340 -160 l -268 -93 l 0 -362 l -57 -414 z "},"ॖ":{"ha":0,"x_min":24,"x_max":581,"o":"m 517 -54 l 581 -93 q 462 -230 532 -185 q 303 -275 392 -275 q 141 -230 211 -275 q 24 -93 71 -185 l 86 -54 q 180 -170 125 -131 q 303 -210 235 -210 q 423 -170 369 -210 q 517 -54 476 -131 z "},"ॗ":{"ha":0,"x_min":24,"x_max":697,"o":"m 581 -54 l 643 -93 q 510 -217 596 -185 q 364 -249 425 -249 q 217 -217 301 -249 q 86 -93 133 -185 l 149 -54 q 256 -156 188 -131 q 364 -182 324 -182 q 473 -156 407 -182 q 581 -54 539 -131 m 635 -181 l 697 -219 q 545 -344 635 -311 q 364 -378 456 -378 q 182 -342 272 -378 q 24 -219 92 -307 l 86 -181 q 216 -281 136 -249 q 364 -312 296 -312 q 508 -283 431 -312 q 635 -181 586 -253 z "},"ॎ":{"ha":429,"x_min":167,"x_max":446,"o":"m 167 0 l 167 944 l 424 944 l 446 869 l 261 869 l 261 -22 l 167 0 z "},"ॵ":{"ha":1581,"x_min":96,"x_max":1596,"o":"m 1094 1090 l 1224 1090 q 1276 1087 1253 1089 q 1317 1081 1299 1085 q 1296 1126 1311 1108 q 1246 1143 1281 1143 q 1103 1194 1138 1144 q 1069 1331 1069 1243 l 1069 1351 l 1151 1331 q 1172 1248 1151 1279 q 1236 1217 1193 1217 q 1373 1157 1338 1217 q 1408 1013 1408 1097 l 1407 944 l 1576 944 l 1596 869 l 1411 869 l 1411 -22 l 1315 0 l 1315 869 l 1026 869 l 1026 -22 l 932 0 l 932 450 l 551 450 q 642 367 610 417 q 675 249 675 317 q 594 55 675 132 q 357 -22 514 -22 q 206 2 274 -22 q 96 57 139 26 l 113 138 q 224 79 160 101 q 361 56 289 57 q 515 103 453 54 q 576 246 576 153 q 518 397 576 342 q 303 451 460 451 l 215 451 l 186 519 l 313 519 q 497 575 438 519 q 556 714 556 631 q 513 835 556 783 q 376 886 471 886 q 242 860 306 886 q 125 793 178 835 l 113 874 q 229 937 157 910 q 381 964 301 964 q 592 889 531 964 q 654 718 654 814 q 620 603 654 656 q 532 521 586 551 l 932 521 l 932 869 l 767 869 l 744 944 l 1321 944 q 1307 1001 1321 988 q 1229 1015 1293 1015 l 1103 1015 q 929 1066 994 1017 q 864 1203 864 1115 l 864 1222 l 944 1203 q 989 1120 944 1150 q 1094 1090 1033 1090 z "},"ॐ":{"ha":1185,"x_min":96,"x_max":1161,"o":"m 836 1065 q 785 1086 806 1065 q 765 1138 765 1107 q 785 1190 765 1168 q 836 1211 806 1211 q 888 1190 867 1211 q 910 1138 910 1168 q 888 1086 910 1107 q 836 1065 867 1065 m 1049 1144 l 1110 1106 q 993 967 1063 1013 q 833 921 924 921 q 672 967 742 921 q 556 1106 603 1013 l 618 1144 q 711 1028 657 1067 q 833 990 765 990 q 955 1028 901 990 q 1049 1144 1008 1067 m 381 964 q 592 889 531 964 q 654 718 654 814 q 613 586 654 656 q 485 490 572 517 q 557 464 525 479 q 610 426 589 449 q 707 501 642 464 q 863 538 772 538 q 1081 456 1000 538 q 1161 254 1161 375 q 1073 47 1161 122 q 874 -28 985 -28 l 857 51 q 999 108 943 51 q 1056 256 1056 164 q 999 402 1054 346 q 865 458 944 458 q 736 426 789 458 q 653 357 683 393 q 670 301 665 331 q 675 249 675 272 q 594 55 675 132 q 357 -22 514 -22 q 206 2 274 -22 q 96 57 139 26 l 113 138 q 224 79 160 101 q 361 56 289 57 q 515 103 453 54 q 576 246 576 153 q 518 397 576 342 q 303 451 460 451 l 215 451 l 186 519 l 313 519 q 497 575 438 519 q 556 714 556 631 q 513 835 556 783 q 376 886 471 886 q 242 860 306 886 q 125 793 178 835 l 113 874 q 229 937 157 910 q 381 964 301 964 z "},"॑":{"ha":0,"x_min":24,"x_max":117,"o":"m 100 1054 l 39 1054 l 24 1304 l 117 1304 l 100 1054 z "},"॒":{"ha":0,"x_min":24,"x_max":786,"o":"m 786 -194 l 43 -194 l 24 -121 l 767 -121 l 786 -194 z "},"॓":{"ha":0,"x_min":24,"x_max":214,"o":"m 214 1054 l 153 1054 l 24 1304 l 133 1304 l 214 1054 z "},"॔":{"ha":0,"x_min":24,"x_max":214,"o":"m 214 1304 l 83 1054 l 24 1054 l 104 1304 l 214 1304 z "},"ॕ":{"ha":0,"x_min":24,"x_max":597,"o":"m 522 1339 l 585 1300 q 468 1163 538 1208 q 308 1117 399 1117 q 147 1163 217 1117 q 29 1300 76 1208 l 92 1339 q 185 1223 131 1263 q 308 1183 240 1183 q 429 1223 376 1183 q 522 1339 482 1263 m 597 1008 l 40 1008 l 24 1071 l 582 1071 l 597 1008 z "},"ॶ":{"ha":1197,"x_min":96,"x_max":1214,"o":"m 675 249 q 594 55 675 132 q 357 -22 514 -22 q 206 2 274 -22 q 96 57 139 26 l 113 138 q 224 79 160 101 q 361 56 289 57 q 515 103 453 54 q 576 246 576 153 q 518 397 576 342 q 303 451 460 451 l 215 451 l 186 519 l 313 519 q 497 575 438 519 q 556 714 556 631 q 513 835 556 783 q 376 886 471 886 q 242 860 306 886 q 125 793 178 835 l 113 874 q 229 937 157 910 q 381 964 301 964 q 592 889 531 964 q 654 718 654 814 q 620 603 654 656 q 532 521 586 551 l 932 521 l 932 869 l 767 869 l 744 944 l 1192 944 l 1214 869 l 1026 869 l 1026 -22 l 932 0 l 932 450 l 551 450 q 642 367 610 417 q 675 249 675 317 m 910 -54 l 974 -93 q 855 -230 925 -185 q 696 -275 785 -275 q 534 -230 604 -275 q 417 -93 464 -185 l 479 -54 q 573 -170 518 -131 q 696 -210 628 -210 q 816 -170 763 -210 q 910 -54 869 -131 z "},"ॷ":{"ha":1197,"x_min":96,"x_max":1214,"o":"m 675 249 q 594 55 675 132 q 357 -22 514 -22 q 206 2 274 -22 q 96 57 139 26 l 113 138 q 224 79 160 101 q 361 56 289 57 q 515 103 453 54 q 576 246 576 153 q 518 397 576 342 q 303 451 460 451 l 215 451 l 186 519 l 313 519 q 497 575 438 519 q 556 714 556 631 q 513 835 556 783 q 376 886 471 886 q 242 860 306 886 q 125 793 178 835 l 113 874 q 229 937 157 910 q 381 964 301 964 q 592 889 531 964 q 654 718 654 814 q 620 603 654 656 q 532 521 586 551 l 932 521 l 932 869 l 767 869 l 744 944 l 1192 944 l 1214 869 l 1026 869 l 1026 -22 l 932 0 l 932 450 l 551 450 q 642 367 610 417 q 675 249 675 317 m 882 -54 l 944 -93 q 812 -217 897 -185 q 665 -249 726 -249 q 519 -217 603 -249 q 388 -93 435 -185 l 450 -54 q 557 -156 489 -131 q 665 -182 625 -182 q 774 -156 708 -182 q 882 -54 840 -131 m 936 -181 l 999 -219 q 847 -344 936 -311 q 665 -378 757 -378 q 483 -342 574 -378 q 325 -219 393 -307 l 388 -181 q 517 -281 438 -249 q 665 -312 597 -312 q 810 -283 732 -312 q 936 -181 888 -253 z "},"क़":{"ha":1263,"x_min":-15,"x_max":1279,"o":"m 379 629 q 242 572 300 629 q 182 425 183 515 q 238 277 182 335 q 379 219 293 219 q 513 265 465 219 q 588 349 560 310 l 588 500 q 513 584 560 539 q 379 629 465 629 m 897 219 q 1040 277 983 219 q 1096 425 1096 335 q 1035 572 1094 515 q 897 629 976 629 q 756 578 806 629 q 682 489 707 526 l 682 -22 l 588 0 l 588 226 q 503 169 553 196 q 383 142 453 142 q 167 217 257 142 q 76 424 76 293 q 160 626 76 544 q 383 708 244 708 q 503 681 453 708 q 588 622 553 654 l 588 869 l 4 869 l -15 944 l 1260 944 l 1279 869 l 682 869 l 682 613 q 768 678 715 647 q 896 708 821 708 q 1117 626 1033 708 q 1200 424 1200 544 q 1113 217 1200 293 q 914 142 1026 142 l 897 219 m 261 -121 q 210 -100 231 -121 q 189 -50 189 -79 q 210 2 189 -19 q 261 24 231 24 q 313 2 292 24 q 333 -50 333 -19 q 313 -100 333 -79 q 261 -121 292 -121 z "},"ख़":{"ha":1256,"x_min":-15,"x_max":1271,"o":"m 547 478 q 622 653 547 582 q 818 724 697 724 q 914 709 869 724 q 992 668 958 694 l 992 869 l 400 869 q 459 769 439 828 q 479 649 479 710 q 416 469 479 549 q 249 368 353 390 q 356 162 254 267 q 611 57 458 57 q 852 127 754 57 q 979 286 950 197 q 905 245 946 260 q 818 231 864 231 q 628 296 710 231 q 547 478 547 361 m 644 478 q 694 352 644 399 q 818 306 743 306 q 942 351 893 306 q 992 476 992 397 q 942 603 992 556 q 818 650 893 650 q 697 603 747 650 q 644 478 646 557 m 1086 -22 l 992 0 l 992 147 q 834 26 932 75 q 611 -22 736 -22 q 286 101 404 -22 q 163 361 168 224 l 108 361 q 80 372 92 361 q 67 396 68 382 q 99 491 58 439 q 200 543 139 543 q 228 527 218 543 q 238 488 238 511 l 238 450 q 343 517 301 465 q 385 649 385 568 q 354 778 385 714 q 272 869 324 843 l 4 869 l -15 944 l 1251 944 l 1271 869 l 1086 869 l 1086 -22 m 128 -26 q 78 -5 99 -26 q 57 46 57 17 q 78 97 57 76 q 128 118 99 118 q 180 97 158 118 q 201 46 201 76 q 180 -5 201 17 q 128 -26 158 -26 z "},"ग़":{"ha":847,"x_min":-15,"x_max":864,"o":"m 585 0 l 585 869 l 267 869 l 267 313 q 257 269 267 286 q 228 253 247 253 q 115 308 160 253 q 79 411 69 364 q 93 436 81 425 q 122 447 106 447 l 171 447 l 171 869 l 4 869 l -15 944 l 843 944 l 864 869 l 679 869 l 679 -22 l 585 0 m 235 -26 q 184 -5 204 -26 q 164 46 164 17 q 184 97 164 76 q 235 118 204 118 q 287 97 265 118 q 308 46 308 76 q 287 -5 308 17 q 235 -26 265 -26 z "},"ज़":{"ha":1038,"x_min":-15,"x_max":1053,"o":"m 774 558 l 508 558 q 559 479 540 525 q 578 378 578 433 q 492 184 578 250 q 278 118 406 118 q 127 142 194 118 q 15 196 60 165 l 33 276 q 144 218 82 240 q 278 194 207 196 q 426 244 369 194 q 482 378 482 293 q 426 512 482 465 q 278 558 369 558 l 204 558 l 179 640 l 774 640 l 774 869 l 4 869 l -15 944 l 1032 944 l 1053 869 l 867 869 l 867 -22 l 774 0 l 774 558 m 281 -121 q 230 -100 251 -121 q 208 -50 208 -79 q 230 2 208 -19 q 281 24 251 24 q 333 2 311 24 q 354 -50 354 -19 q 333 -100 354 -79 q 281 -121 311 -121 z "},"ड़":{"ha":736,"x_min":-15,"x_max":750,"o":"m 106 135 q 231 76 156 100 q 379 51 306 53 q 524 92 465 53 q 582 199 582 131 l 582 200 q 536 309 582 267 q 419 351 490 351 l 288 351 q 140 404 207 351 q 72 533 72 457 q 134 666 72 617 q 285 715 196 715 l 506 715 l 506 869 l 4 869 l -15 944 l 731 944 l 750 869 l 601 869 l 601 636 l 285 636 q 199 606 231 636 q 167 533 167 576 q 200 458 167 488 q 288 429 233 429 l 407 429 q 606 370 535 429 q 678 199 678 311 q 600 40 678 107 q 379 -26 522 -26 q 212 -1 294 -26 q 89 53 129 24 l 106 135 m 388 -244 q 337 -223 358 -244 q 315 -171 315 -201 q 337 -120 315 -142 q 388 -99 358 -99 q 439 -120 418 -99 q 460 -171 460 -142 q 439 -223 460 -201 q 388 -244 418 -244 z "},"ढ़":{"ha":869,"x_min":-15,"x_max":886,"o":"m 690 869 l 690 608 l 517 608 q 278 536 374 608 q 183 332 183 464 q 269 125 183 188 q 478 57 356 63 q 424 122 446 83 q 403 201 403 160 q 458 341 403 282 q 604 400 513 400 q 753 349 697 400 q 808 214 808 297 q 722 44 808 114 q 500 -25 635 -25 q 212 56 340 -25 q 83 332 83 136 q 209 597 83 501 q 517 692 335 692 l 594 692 l 594 869 l 4 869 l -15 944 l 865 944 l 886 869 l 690 869 m 611 315 q 529 286 564 315 q 494 201 494 257 q 519 122 494 158 q 586 67 543 86 q 689 123 657 82 q 721 211 721 164 q 692 285 721 256 q 611 315 663 315 m 500 -244 q 450 -223 471 -244 q 429 -171 429 -201 q 450 -120 429 -142 q 500 -99 471 -99 q 552 -120 531 -99 q 574 -171 574 -142 q 552 -223 574 -201 q 500 -244 531 -244 z "},"फ़":{"ha":1311,"x_min":-15,"x_max":1328,"o":"m 638 538 l 638 869 l 236 869 l 236 538 q 287 385 236 442 q 439 328 338 328 q 586 383 535 328 q 638 538 638 439 m 947 196 q 1088 253 1032 196 q 1144 401 1144 311 q 1085 548 1143 492 q 947 604 1026 604 q 807 556 856 604 q 733 468 758 507 l 733 -22 l 638 0 l 638 321 q 548 267 601 286 q 431 247 494 247 q 222 324 301 247 q 143 538 143 400 l 143 869 l 4 869 l -15 944 l 1307 944 l 1328 869 l 733 869 l 733 592 q 818 655 767 625 q 944 685 869 685 q 1165 603 1082 685 q 1249 400 1249 521 q 1160 194 1249 269 q 963 118 1072 118 l 947 196 m 307 -26 q 256 -5 276 -26 q 235 46 235 17 q 256 97 235 76 q 307 118 276 118 q 358 97 338 118 q 379 46 379 76 q 358 -5 379 17 q 307 -26 338 -26 z "},"य़":{"ha":861,"x_min":-15,"x_max":878,"o":"m 108 524 q 187 588 151 536 q 222 717 222 640 q 192 814 222 775 q 111 869 163 853 l 4 869 l -15 944 l 857 944 l 878 869 l 692 869 l 692 -22 l 597 0 l 597 321 q 510 267 561 286 q 394 247 458 247 q 182 326 272 247 q 92 504 92 404 l 108 524 m 597 869 l 250 869 q 294 806 276 847 q 311 708 311 765 q 280 576 311 642 q 183 478 249 511 q 257 376 197 419 q 394 328 317 332 q 544 383 490 328 q 597 538 597 439 l 597 869 m 208 -26 q 158 -5 179 -26 q 138 46 138 17 q 158 97 138 76 q 208 118 179 118 q 261 97 240 118 q 282 46 282 76 q 261 -5 282 17 q 208 -26 240 -26 z "},"ॠ":{"ha":1238,"x_min":-15,"x_max":1253,"o":"m 908 13 q 888 45 894 26 q 881 86 881 64 q 965 204 881 149 q 1049 328 1049 260 q 1031 403 1049 360 q 963 517 1014 446 q 863 430 938 475 q 692 385 788 385 l 638 385 l 638 -22 l 543 0 l 543 349 l 172 150 l 124 215 l 519 429 q 356 569 424 544 q 229 594 289 594 q 167 582 203 594 q 101 556 132 569 l 67 631 q 148 658 96 646 q 225 669 200 669 q 375 648 293 669 q 543 510 457 626 l 543 869 l 4 869 l -15 944 l 1233 944 l 1253 869 l 638 869 l 638 460 l 665 460 q 833 503 774 460 q 914 582 892 547 q 888 617 900 593 q 876 672 876 642 q 893 713 876 699 q 942 728 910 728 q 1021 702 983 728 q 1058 633 1058 676 q 1048 601 1058 617 q 1018 567 1038 585 q 1113 434 1086 492 q 1139 322 1139 376 q 1058 186 1139 238 q 976 89 976 135 q 1002 48 976 54 q 1054 42 1028 42 l 1079 42 l 1051 -25 l 1036 -25 q 984 -34 1010 -25 q 958 -69 958 -43 q 984 -106 958 -96 q 1036 -115 1010 -115 l 1068 -115 l 1039 -182 l 1013 -182 q 915 -158 963 -182 q 868 -69 868 -133 q 879 -21 868 -40 q 908 13 890 -1 z "},"ॡ":{"ha":1211,"x_min":-15,"x_max":1226,"o":"m 903 -10 q 866 19 886 -4 q 846 69 846 43 q 877 147 846 121 q 947 178 908 172 l 947 385 q 908 531 946 475 q 792 586 869 586 q 678 527 717 586 q 640 376 640 468 l 640 217 l 546 244 l 544 376 q 504 525 544 468 q 376 583 464 582 q 262 535 308 583 q 215 425 215 486 q 256 227 215 315 q 364 1 296 139 l 286 -25 q 172 206 224 97 q 121 435 121 314 q 197 595 121 525 q 376 667 272 665 q 501 637 446 665 q 590 557 557 608 q 675 638 622 610 q 793 667 728 667 q 878 653 840 667 q 947 614 917 639 l 947 869 l 4 869 l -15 944 l 1206 944 l 1226 869 l 1042 869 l 1042 121 l 1013 121 q 960 108 986 121 q 933 69 933 96 q 960 31 933 43 q 1013 19 986 19 l 1044 19 l 1013 -35 q 953 -48 978 -35 q 928 -87 928 -61 q 949 -126 928 -114 q 1013 -139 969 -139 l 1042 -139 l 1015 -200 l 986 -200 q 892 -175 938 -200 q 846 -87 846 -150 q 863 -40 846 -61 q 903 -10 881 -19 z "},"ॢ":{"ha":0,"x_min":24,"x_max":575,"o":"m 339 -192 l 339 -283 l 260 -265 l 260 -192 q 231 -114 258 -136 q 171 -93 204 -92 q 122 -113 146 -92 q 99 -164 99 -135 q 123 -274 99 -219 q 186 -406 147 -328 l 118 -424 q 53 -290 82 -353 q 24 -160 24 -228 q 67 -67 24 -107 q 171 -25 111 -26 q 249 -49 210 -25 q 299 -106 288 -72 q 350 -50 313 -75 q 425 -25 388 -25 q 533 -66 490 -25 q 575 -160 575 -107 q 540 -259 575 -217 q 506 -342 506 -301 q 519 -362 506 -356 q 551 -368 533 -368 l 564 -368 l 549 -424 l 531 -424 q 465 -408 503 -424 q 428 -358 428 -393 q 463 -256 428 -299 q 497 -164 497 -212 q 474 -112 497 -131 q 425 -93 451 -93 q 366 -117 393 -93 q 339 -192 339 -142 z "},"ॣ":{"ha":0,"x_min":24,"x_max":575,"o":"m 518 -547 q 442 -527 481 -547 q 404 -457 404 -507 q 414 -417 404 -433 q 439 -389 424 -400 q 431 -375 433 -383 q 428 -358 428 -367 q 463 -256 428 -299 q 497 -164 497 -212 q 474 -112 497 -131 q 425 -93 451 -93 q 366 -117 393 -93 q 339 -192 339 -142 l 339 -283 l 260 -265 l 260 -192 q 231 -114 258 -136 q 171 -93 204 -92 q 122 -113 146 -92 q 99 -164 99 -135 q 123 -274 99 -219 q 186 -406 147 -328 l 118 -424 q 53 -290 82 -353 q 24 -160 24 -228 q 67 -67 24 -107 q 171 -25 111 -26 q 249 -49 210 -25 q 299 -106 288 -72 q 350 -50 313 -75 q 425 -25 388 -25 q 533 -66 490 -25 q 575 -160 575 -107 q 540 -259 575 -217 q 506 -342 506 -301 q 519 -362 506 -356 q 551 -368 533 -368 l 564 -368 l 549 -424 l 533 -424 q 495 -431 513 -424 q 478 -457 478 -437 q 497 -487 478 -479 q 539 -494 517 -494 l 564 -494 l 540 -547 l 518 -547 z "},"।":{"ha":485,"x_min":194,"x_max":290,"o":"m 290 1050 l 290 -22 l 194 0 l 194 1071 l 290 1050 z "},"॥":{"ha":899,"x_min":194,"x_max":704,"o":"m 704 1050 l 704 -22 l 608 0 l 608 1071 l 704 1050 m 289 1050 l 290 -22 l 194 0 l 194 1071 l 289 1050 z "},"०":{"ha":974,"x_min":96,"x_max":879,"o":"m 96 471 q 207 749 96 633 q 488 864 318 864 q 767 749 656 864 q 879 471 879 633 q 767 194 879 310 q 488 79 656 79 q 207 194 318 79 q 96 471 96 310 m 193 471 q 275 250 193 336 q 488 164 357 164 q 699 250 618 164 q 781 471 781 336 q 699 693 781 607 q 488 779 618 779 q 275 693 357 779 q 193 471 193 607 z "},"१":{"ha":529,"x_min":79,"x_max":467,"o":"m 81 433 l 244 564 l 253 571 q 147 644 196 593 q 99 768 99 694 q 149 908 99 851 q 276 964 199 964 q 415 910 364 964 q 467 778 467 856 q 436 649 467 714 q 310 514 406 583 l 169 403 l 168 396 l 450 0 l 349 -25 l 79 397 l 81 433 m 282 876 q 216 846 239 876 q 193 768 193 815 q 228 676 193 711 q 310 622 264 640 q 359 686 340 651 q 378 760 378 721 q 351 842 378 808 q 282 876 325 876 z "},"२":{"ha":700,"x_min":96,"x_max":622,"o":"m 232 364 l 176 364 q 149 374 161 364 q 136 400 138 385 q 160 495 128 443 q 242 547 193 547 q 273 531 260 547 q 296 490 286 514 l 311 446 q 456 503 388 446 q 524 668 524 560 q 475 821 524 756 q 326 886 426 886 q 195 851 251 886 q 138 813 139 817 l 96 883 q 163 924 97 883 q 331 964 228 964 q 557 864 492 964 q 622 668 622 764 q 530 458 622 536 q 319 371 438 379 l 574 0 l 481 -25 l 232 364 z "},"३":{"ha":704,"x_min":71,"x_max":626,"o":"m 115 881 q 224 940 160 917 q 367 964 288 964 q 544 902 479 964 q 608 753 608 840 q 576 638 608 688 q 490 572 544 589 q 592 494 558 554 q 626 358 626 433 q 542 189 626 257 q 325 121 457 121 l 290 121 l 429 -54 l 368 -99 l 190 129 q 111 184 151 147 q 71 269 71 221 q 87 305 71 292 q 125 318 103 318 q 208 288 171 318 q 260 213 246 257 q 292 206 275 208 q 328 204 310 204 q 467 249 406 206 q 528 358 528 292 q 482 481 528 426 q 311 536 436 536 l 203 536 l 183 604 l 319 604 q 465 643 418 604 q 513 750 513 682 q 469 849 513 813 q 363 885 426 885 q 236 864 292 885 q 128 801 181 843 l 115 881 z "},"४":{"ha":983,"x_min":79,"x_max":904,"o":"m 79 892 l 135 964 q 306 798 207 893 q 492 603 404 703 q 677 798 579 703 q 849 964 775 893 l 904 892 q 727 722 824 815 q 549 533 631 629 q 669 351 621 442 q 718 186 718 261 q 658 33 718 90 q 492 -25 599 -25 q 324 33 385 -25 q 264 186 264 92 q 313 351 264 261 q 433 533 361 442 q 255 722 351 629 q 79 892 158 815 m 492 461 q 399 315 435 386 q 363 186 363 244 q 402 90 363 124 q 492 56 442 56 q 581 90 542 56 q 621 186 621 124 q 584 315 621 244 q 492 461 547 386 z "},"५":{"ha":669,"x_min":111,"x_max":654,"o":"m 329 72 q 387 59 360 63 q 439 56 414 56 q 538 85 508 56 q 567 161 567 115 q 545 285 567 229 q 494 383 524 340 q 453 377 475 379 q 410 375 432 375 q 196 446 281 375 q 111 665 111 517 l 111 944 l 204 944 l 204 665 q 260 502 204 550 q 417 454 315 454 l 438 454 q 422 489 428 472 q 418 522 417 506 q 437 565 419 544 q 485 585 454 585 q 562 560 525 585 q 599 493 599 535 q 592 457 599 475 q 565 421 585 439 q 629 291 604 372 q 654 167 654 210 q 608 35 654 92 q 442 -22 563 -22 q 381 -19 418 -22 q 307 -3 343 -15 l 329 72 z "},"६":{"ha":738,"x_min":96,"x_max":690,"o":"m 690 -11 l 617 -57 l 517 129 q 515 133 515 131 q 514 136 514 135 q 452 123 493 125 q 396 121 411 121 q 179 189 263 121 q 96 358 96 257 q 129 494 96 433 q 231 572 163 554 q 143 638 175 589 q 111 753 111 688 q 176 902 111 840 q 354 964 240 964 q 496 940 432 964 q 604 881 560 917 l 592 801 q 483 864 538 843 q 357 885 428 885 q 251 849 293 885 q 208 750 208 813 q 254 643 208 682 q 400 604 300 604 l 529 604 l 549 536 l 407 536 q 238 481 283 536 q 193 358 193 426 q 253 249 193 292 q 392 204 313 206 q 435 208 414 204 q 475 217 457 211 q 471 238 472 226 q 469 263 469 249 q 487 308 469 290 q 535 326 504 326 q 606 303 567 326 q 644 240 644 279 q 631 198 644 219 q 592 154 618 176 l 690 -11 z "},"७":{"ha":922,"x_min":46,"x_max":857,"o":"m 726 661 q 661 753 703 717 q 556 789 619 789 q 438 747 486 789 q 389 638 389 706 q 434 526 389 571 q 554 482 479 482 q 675 535 621 482 q 726 661 729 588 m 761 525 q 665 437 726 469 q 542 404 603 404 q 363 469 431 404 q 294 629 294 533 q 366 803 294 733 q 554 874 438 874 q 780 737 703 874 q 857 410 857 600 q 743 103 857 232 q 447 -25 629 -25 q 149 88 253 -25 q 46 397 46 200 l 140 397 q 222 145 140 232 q 457 58 304 58 q 673 151 576 58 q 769 407 769 244 q 768 465 769 436 q 761 525 767 494 z "},"८":{"ha":786,"x_min":79,"x_max":693,"o":"m 179 281 q 242 124 179 189 q 400 58 304 58 q 535 98 464 58 q 607 303 607 138 l 692 276 q 639 82 693 189 q 388 -25 585 -25 q 158 65 238 -25 q 79 274 79 156 q 200 633 79 443 q 469 964 321 824 l 525 890 q 276 585 374 751 q 179 281 179 418 z "},"९":{"ha":646,"x_min":96,"x_max":599,"o":"m 346 885 q 231 838 276 885 q 186 724 186 792 q 188 667 186 693 q 194 621 189 642 q 263 583 219 594 q 351 572 306 572 q 464 617 422 572 q 506 731 506 663 q 463 840 506 796 q 346 885 421 885 m 599 738 q 527 564 599 633 q 339 494 456 494 q 288 502 313 494 q 240 521 263 510 l 319 407 q 447 231 407 286 q 488 107 488 175 q 449 12 488 49 q 349 -36 411 -25 l 335 36 q 386 64 367 46 q 406 104 406 82 q 371 200 406 150 q 228 390 336 250 q 126 557 157 482 q 96 703 96 632 q 163 885 96 806 q 349 964 231 964 q 534 899 469 964 q 599 738 599 833 z "},"॰":{"ha":790,"x_min":79,"x_max":713,"o":"m 397 714 q 620 620 528 714 q 713 390 713 526 q 620 164 713 257 q 396 71 528 71 q 171 165 263 71 q 79 399 79 260 q 171 623 79 532 q 397 714 263 714 m 396 149 q 558 219 492 149 q 625 393 625 290 q 558 565 625 494 q 396 635 492 635 q 233 565 299 635 q 167 393 167 494 q 233 219 167 290 q 396 149 299 149 z "},"ॱ":{"ha":256,"x_min":56,"x_max":200,"o":"m 128 339 q 76 359 97 339 q 56 410 56 379 q 76 461 56 440 q 128 482 97 482 q 179 461 158 482 q 200 410 200 440 q 179 359 200 379 q 128 339 158 339 z "},"ॲ":{"ha":1197,"x_min":96,"x_max":1258,"o":"m 1196 1292 l 1258 1253 q 1141 1115 1211 1161 q 979 1068 1071 1068 q 818 1115 888 1068 q 701 1253 749 1161 l 764 1292 q 858 1175 804 1214 q 979 1136 911 1136 q 1101 1175 1047 1136 q 1196 1292 1156 1214 m 675 249 q 594 55 675 132 q 357 -22 514 -22 q 206 2 274 -22 q 96 57 139 26 l 113 138 q 224 79 160 101 q 361 56 289 57 q 515 103 453 54 q 576 246 576 153 q 518 397 576 342 q 303 451 460 451 l 215 451 l 186 519 l 313 519 q 497 575 438 519 q 556 714 556 631 q 513 835 556 783 q 376 886 471 886 q 242 860 306 886 q 125 793 178 835 l 113 874 q 229 937 157 910 q 381 964 301 964 q 592 889 531 964 q 654 718 654 814 q 620 603 654 656 q 532 521 586 551 l 932 521 l 932 869 l 767 869 l 744 944 l 1192 944 l 1214 869 l 1026 869 l 1026 -22 l 932 0 l 932 450 l 551 450 q 642 367 610 417 q 675 249 675 317 z "},"ॳ":{"ha":1197,"x_min":96,"x_max":1214,"o":"m 675 249 q 594 55 675 132 q 357 -22 514 -22 q 206 2 274 -22 q 96 57 139 26 l 113 138 q 224 79 160 101 q 361 56 289 57 q 515 103 453 54 q 576 246 576 153 q 518 397 576 342 q 303 451 460 451 l 215 451 l 186 519 l 313 519 q 497 575 438 519 q 556 714 556 631 q 513 835 556 783 q 376 886 471 886 q 242 860 306 886 q 125 793 178 835 l 113 874 q 229 937 157 910 q 381 964 301 964 q 592 889 531 964 q 654 718 654 814 q 620 603 654 656 q 532 521 586 551 l 932 521 l 932 869 l 767 869 l 744 944 l 935 944 l 935 1246 l 1024 1224 l 1024 944 l 1192 944 l 1214 869 l 1026 869 l 1026 -22 l 932 0 l 932 450 l 551 450 q 642 367 610 417 q 675 249 675 317 z "},"ॴ":{"ha":1581,"x_min":96,"x_max":1596,"o":"m 932 0 l 932 450 l 551 450 q 642 367 610 417 q 675 249 675 317 q 594 55 675 132 q 357 -22 514 -22 q 206 2 274 -22 q 96 57 139 26 l 113 138 q 224 79 160 101 q 361 56 289 57 q 515 103 453 54 q 576 246 576 153 q 518 397 576 342 q 303 451 460 451 l 215 451 l 186 519 l 313 519 q 497 575 438 519 q 556 714 556 631 q 513 835 556 783 q 376 886 471 886 q 242 860 306 886 q 125 793 178 835 l 113 874 q 229 937 157 910 q 381 964 301 964 q 592 889 531 964 q 654 718 654 814 q 620 603 654 656 q 532 521 586 551 l 932 521 l 932 869 l 767 869 l 744 944 l 1317 944 l 1317 1246 l 1406 1224 l 1406 944 l 1576 944 l 1596 869 l 1411 869 l 1411 -22 l 1315 0 l 1315 869 l 1026 869 l 1026 -22 l 932 0 z "},"ॹ":{"ha":1038,"x_min":-15,"x_max":1053,"o":"m 774 558 l 508 558 q 559 479 540 525 q 578 378 578 433 q 492 184 578 250 q 278 118 406 118 q 127 142 194 118 q 15 196 60 165 l 33 276 q 144 218 82 240 q 278 194 207 196 q 426 244 369 194 q 482 378 482 293 q 426 512 482 465 q 278 558 369 558 l 204 558 l 179 640 l 774 640 l 774 869 l 4 869 l -15 944 l 1032 944 l 1053 869 l 867 869 l 867 -22 l 774 0 l 774 558 m 144 -86 q 94 -65 115 -86 q 74 -14 74 -44 q 94 38 74 17 q 144 58 115 58 q 197 38 175 58 q 218 -14 218 17 q 197 -65 218 -44 q 144 -86 175 -86 m 413 -86 q 362 -65 383 -86 q 340 -14 340 -44 q 362 38 340 17 q 413 58 383 58 q 464 38 443 58 q 485 -14 485 17 q 464 -65 485 -44 q 413 -86 443 -86 m 279 -225 q 228 -205 249 -225 q 207 -154 207 -185 q 228 -102 207 -124 q 279 -81 249 -81 q 331 -102 310 -81 q 351 -154 351 -124 q 331 -205 351 -185 q 279 -225 310 -225 z "},"ॺ":{"ha":849,"x_min":-8,"x_max":879,"o":"m 110 524 q 188 588 153 536 q 222 717 222 640 q 193 814 222 775 q 113 869 164 853 l 13 869 l -8 944 l 857 944 l 879 869 l 692 869 l 692 -22 l 599 0 l 599 321 q 511 267 563 286 q 396 247 460 247 q 183 326 272 247 q 93 504 93 404 l 110 524 m 599 869 l 281 869 l 597 506 q 598 521 597 513 q 599 538 599 529 l 599 869 m 185 478 q 258 376 199 419 q 396 328 318 332 q 506 353 460 328 q 575 426 551 379 l 311 731 l 311 708 q 281 576 311 642 q 185 478 250 511 z "},"ॻ":{"ha":847,"x_min":-15,"x_max":864,"o":"m 585 0 l 585 869 l 267 869 l 267 313 q 257 269 267 286 q 228 253 247 253 q 115 308 160 253 q 79 411 69 364 q 93 436 81 425 q 122 447 106 447 l 171 447 l 171 869 l 4 869 l -15 944 l 843 944 l 864 869 l 679 869 l 679 -22 l 585 0 m 706 -194 l 147 -194 l 126 -121 l 685 -121 l 706 -194 z "},"ॼ":{"ha":1038,"x_min":-15,"x_max":1053,"o":"m 774 558 l 508 558 q 559 479 540 525 q 578 378 578 433 q 492 184 578 250 q 278 118 406 118 q 127 142 194 118 q 15 196 60 165 l 33 276 q 144 218 82 240 q 278 194 207 196 q 426 244 369 194 q 482 378 482 293 q 426 512 482 465 q 278 558 369 558 l 204 558 l 179 640 l 774 640 l 774 869 l 4 869 l -15 944 l 1032 944 l 1053 869 l 867 869 l 867 -22 l 774 0 l 774 558 m 881 -194 l 76 -194 l 56 -121 l 860 -121 l 881 -194 z "},"ॽ":{"ha":763,"x_min":96,"x_max":685,"o":"m 386 964 q 610 883 536 964 q 685 693 685 801 q 613 506 685 601 q 404 364 542 411 l 404 26 l 310 56 l 310 413 q 506 524 428 449 q 585 692 585 600 q 531 831 585 782 q 383 881 478 881 q 233 854 300 881 q 107 788 167 828 l 96 874 q 224 938 154 913 q 386 964 294 964 z "},"ॾ":{"ha":736,"x_min":-15,"x_max":750,"o":"m 106 135 q 231 76 156 100 q 379 51 306 53 q 524 92 465 53 q 582 199 582 131 l 582 200 q 536 309 582 267 q 419 351 490 351 l 288 351 q 140 404 207 351 q 72 533 72 457 q 134 666 72 617 q 285 715 196 715 l 506 715 l 506 869 l 4 869 l -15 944 l 731 944 l 750 869 l 601 869 l 601 636 l 285 636 q 199 606 231 636 q 167 533 167 576 q 200 458 167 488 q 288 429 233 429 l 407 429 q 606 370 535 429 q 678 199 678 311 q 600 40 678 107 q 379 -26 522 -26 q 212 -1 294 -26 q 89 53 129 24 l 106 135 m 672 -194 l 107 -194 l 86 -121 l 651 -121 l 672 -194 z "},"ॿ":{"ha":850,"x_min":-15,"x_max":867,"o":"m 588 0 l 588 226 q 503 169 553 196 q 383 142 453 142 q 167 217 257 142 q 76 424 76 293 q 160 626 76 544 q 383 708 244 708 q 503 681 453 708 q 588 622 553 654 l 588 869 l 4 869 l -15 944 l 846 944 l 867 869 l 682 869 l 682 -22 l 588 0 m 588 500 q 513 584 560 539 q 379 629 465 629 q 323 621 350 629 q 274 597 296 613 l 540 290 q 566 319 554 304 q 588 349 578 335 l 588 500 m 222 551 q 193 494 204 525 q 182 425 182 463 q 238 277 182 335 q 379 219 293 219 q 438 228 411 219 q 488 249 465 236 l 222 551 m 721 -194 l 121 -194 l 101 -121 l 700 -121 l 721 -194 z "}}}
